<?xml version="1.0" encoding="UTF-8"?>
<svg width="360" height="586.77" viewBox="0 0 360.002 586.767" xmlns="http://www.w3.org/2000/svg">
 <defs>
  <filter id="a">
   <feGaussianBlur stdDeviation="11.8346"/>
  </filter>
  <linearGradient id="d" x2="0" y1="581.14" y2="5.6284" gradientUnits="userSpaceOnUse">
   <stop stop-color="#06001f" offset="0"/>
   <stop stop-color="#0062bf" offset="1"/>
  </linearGradient>
  <linearGradient id="c" x1="335.22" x2="169.88" y1="534.81" y2="369.47" gradientUnits="userSpaceOnUse">
   <stop stop-color="#989f00" offset="0"/>
   <stop stop-color="#fff81f" offset="1"/>
  </linearGradient>
  <linearGradient id="b" x2="0" y1="190.54" y2="51.202" gradientUnits="userSpaceOnUse">
   <stop stop-color="#dbff5f" offset="0"/>
   <stop stop-color="#fff81f" offset="1"/>
  </linearGradient>
 </defs>
 <g transform="matrix(.9831 0 0 .9831 .013154 0)">
  <g transform="translate(9.1035 10.895)" filter="url(#a)" opacity=".5">
   <path d="m199.024,319.816c.714-67.53 1.423-135.06 2.219-202.59-17.597,31.07-34.559,62.933-50.411,96.144-16.486,33.29-32.892,68.798-48.824,106.446h97.016zm-36.857,266.951c.555-47.24 1.109-94.479 1.665-141.796h-163.832c0-16.646.555-30.437.555-42.009 .555-12.285.555-20.925.555-28.218v-18.071c0-6.5-.555-13.711-.555-23.144 26.076-55.721 53.816-111.441 83.303-166.447 30.04-55.721 61.268-111.441 94.714-167.082 18.706,3.567 37.412,7.212 56.117,9.353 19.338,2.219 39.153,4.359 60.159,5.786 .318,106.605.714,213.211 1.11,319.816h64.043c-1.269,36.143-2.614,72.365-3.965,108.588l-62.934-.714c.399,47.953.795,95.906 1.19,143.938h-132.125z" fill-rule="evenodd"/>
  </g>
  <g transform="translate(.77821)">
   <path d="m199.024,319.816c.714-67.53 1.423-135.06 2.219-202.59-17.597,31.07-34.559,62.933-50.411,96.144-16.486,33.29-32.892,68.798-48.824,106.446h97.016zm-36.857,266.951c.555-47.24 1.109-94.479 1.665-141.796h-163.832c0-16.646.555-30.437.555-42.009 .555-12.285.555-20.925.555-28.218v-18.071c0-6.5-.555-13.711-.555-23.144 26.076-55.721 53.816-111.441 83.303-166.447 30.04-55.721 61.268-111.441 94.714-167.082 18.706,3.567 37.412,7.212 56.117,9.353 19.338,2.219 39.153,4.359 60.159,5.786 .318,106.605.714,213.211 1.11,319.816h64.043c-1.269,36.143-2.614,72.365-3.965,108.588l-62.934-.714c.399,47.953.795,95.906 1.19,143.938h-132.125z" fill-rule="evenodd"/>
  </g>
  <path d="m204.32 325.44c0.241-73.872 0.478-147.74 0.714-221.69-17.515 31.071-46.209 77.279-62.06 110.57-16.408 33.289-36.066 70.7-51.916 108.35 37.728 0.873 75.455 1.824 113.26 2.776zm-34.636 255.7c-0.634-47.398-1.269-94.795-1.902-142.19h-163.83c0-16.646 1.903-18.706 1.903-30.277 0.555-12.365 0.555-21.005 0.555-28.298v-18.071c0-6.498-0.555-13.711-0.555-23.144 26.078-55.72 53.818-111.44 83.303-166.45 30.038-55.641 61.269-111.36 94.717-167.08 18.706 3.567 37.412 7.212 56.117 9.353 19.338 2.219 27.026 4.359 48.028 5.786 0.318 106.6 0.714 213.21 1.114 319.82h64.121c-1.188 32.021-2.456 64.042-3.725 96.063l-62.934-0.714c1.027 48.349 2.06 96.777 3.092 145.21l-120 1e-3z" fill="url(#d)" fill-rule="evenodd"/>
  <path d="m156.92 441.24-35.352-24.253 46.051 6.42-23.857-38.918 40.107 15.059-15.059-40.896 40.898 14.266-17.914-39.234 44.067 23.78-9.907-43.277 35.352 29.404 0.791-42.085 28.141 27.424 2.378 8.719 63.171 1.584-0.396 99.235-64.362 1.98 1.188 142.11-124.99 0.397-0.791-140.92-9.513-0.794z" fill-rule="evenodd" stroke="#000" stroke-miterlimit="10" stroke-width=".036"/>
  <path d="m156.92121,436.884-22.67-13.87 42.09,5.55-26.235-37.729 39.313,15.456-14.664-41.691 42.09,16.327-17.123-38.123 42.09,20.606-9.512-38.123 32.573,25.441 .4-38.916 24.171,21.084 .796,7.529 61.979,1.189-.396,94.081-62.775,1.587 .791,142.907-119.048.396-.793-142.907-13.077-.794z" fill="url(#c)" fill-rule="evenodd" stroke="#000" stroke-miterlimit="10" stroke-width=".036"/>
  <path d="m231.5 39.71c15.142 5.469 25.999 13.315 33.766 25.046 7.688 11.492 11.813 29.485 11.494 43.593-0.791 14.029-2.852 25.443-15.06 39.71-12.362 13.95-31.387 28.216-57.94 43.672l1.191-37.332c11.254-3.328 20.925-10.225 29.327-21.004 8.162-10.938 21.079-28.058 20.684-43.672-0.632-15.851-8.162-32.101-23.462-50.013z" fill-rule="evenodd" stroke="#000" stroke-miterlimit="10" stroke-width=".036"/>
  <path d="m174.75 162.8c0.635 1.269-4.915 3.092-17.833 6.341-12.84 2.933-32.337 6.896-58.811 11.889 7.449 3.962 15.613 7.133 25.441 9.511 9.59 2.378 20.211 3.964 32.181 4.756 6.341-10.779 12.681-21.638 19.022-32.497z" fill-rule="evenodd" stroke="#000" stroke-miterlimit="10" stroke-width=".036"/>
  <path d="m164.84621,172.313c-3.725,6.103-7.45,12.206-11.095,18.229-10.067-.872-18.47-1.823-25.84-3.17-7.293-1.426-13.477-3.25-18.23-5.151 12.92-1.506 24.015-3.092 33.29-4.756 9.115-1.665 16.406-3.488 21.875-5.152zm39.312-12.682v24.174c7.771-2.694 16.728-7.847 26.554-15.456 9.83-7.847 25.362-20.053 32.578-30.198 6.656-9.987 9.512-19.023 9.512-30.198-.24-11.811-4.201-29.248-9.116-38.838-4.992-9.59-11.176-15.456-19.497-17.913 6.734,11.256 11.018,20.608 13.154,29.01 1.823,8.244.95,12.84-.791,20.212-2.06,7.291-5.151,15.059-9.59,22.668-4.282,7.292-9.83,14.267-16.646,20.607-7.37,6.183-15.695,11.177-26.158,15.932z" fill="url(#b)" fill-rule="evenodd" stroke="#000" stroke-miterlimit="10" stroke-width=".036"/>
  <path d="m69.97121,252.366c4.201-14.425 7.609-21.479 9.908-21.797 2.219-.317 3.646,6.42 3.965,20.212 8.084-2.854 12.441-3.25 13.076-1.189 .555,1.902-2.614,6.261-9.512,13.078 3.965,11.651 4.915,17.913 3.169,19.101-2.06.951-6.497-2.853-14.266-12.286-8.4,10.462-13.79,15.06-15.853,14.664-2.061-.792-1.109-6.578 3.172-18.229-6.421-2.695-9.196-4.993-8.006-7.213 1.032-2.299 5.709-4.518 14.347-6.341z" fill-rule="evenodd" stroke="#000" stroke-miterlimit="10" stroke-width=".036"/>
  <path d="m73.93621,252.763c1.505-9.274 2.933-13.871 3.961-13.475 .952.475 1.746,5.231 2.377,15.456 6.025-2.775 9.434-3.567 9.908-2.378 .478,1.109-1.664,4.042-6.736,9.115 4.358,7.688 5.945,12.048 4.756,12.761-1.426.714-5.23-2.061-12.285-8.322-5.468,7.925-8.799,11.651-10.306,11.492-1.505-.396-.87-4.676 1.587-13.157-6.656-.872-9.035-1.981-8.007-3.962 1.032-2.062 5.946-4.36 14.745-7.53z" fill="#ffff80" fill-rule="evenodd" stroke="#000" stroke-miterlimit="10" stroke-width=".036"/>
  <path d="m231.66221,197.122c11.099-4.359 17.438-5.707 18.706-4.359 1.351,1.426-2.378,5.231-10.858,12.364 5.629,3.805 8.007,6.262 7.135,7.689-1.032,1.269-5.233,1.506-12.918.396-5.47,8.243-8.957,11.811-10.462,11.335-1.587-.634-1.428-5.627.791-14.98-11.018-.317-16.328-1.269-17.119-2.853-.637-1.744 3.643-3.964 13.154-6.975-1.505-5.39-1.428-7.926.555-8.481 1.982-.319 5.551,1.346 11.016,5.864z" fill-rule="evenodd" stroke="#000" stroke-miterlimit="10" stroke-width=".036"/>
  <path d="m233.40821,199.816c6.656-3.566 10.145-4.914 10.462-4.042 .159.793-2.614,3.805-8.639,9.036 4.675,2.615 6.815,4.122 6.42,5.152-.555.951-3.487.792-9.116.158-2.773,6.578-4.674,9.67-5.706,9.273-1.109-.475-1.346-4.439-.714-11.889-7.767.475-11.89.08-12.363-.872-.636-1.03 2.378-2.933 9.035-5.389-2.615-4.519-3.17-6.737-1.347-6.975s5.707,1.505 11.968,5.548z" fill="#ffff80" fill-rule="evenodd" stroke="#000" stroke-miterlimit="10" stroke-width=".036"/>
  <path d="m198.77021,49.458c11.176-4.28 17.278-5.866 18.628-4.438 1.347,1.347-2.378,5.389-10.862,12.444 5.788,3.804 8.085,6.261 7.216,7.688-.954,1.268-5.393,1.505-12.999.396-5.47,8.244-8.957,11.811-10.463,11.334-1.586-.555-1.427-5.786.792-15.06-10.858-.396-16.248-1.03-17.042-2.773-.714-1.506 3.646-4.122 13.081-6.975-1.587-5.391-1.269-7.926.632-8.482 1.982-.315 5.547,1.349 11.017,5.866z" fill-rule="evenodd" stroke="#000" stroke-miterlimit="10" stroke-width=".036"/>
  <path d="m200.43421,52.153c6.656-3.567 10.145-4.914 10.462-4.042 .159.792-2.614,3.805-8.639,9.036 4.679,2.616 6.815,4.122 6.42,5.152-.555.951-3.487.793-9.116.159-2.614,6.578-4.597,9.67-5.625,9.273-1.109-.475-1.268-4.439-.795-11.889-7.767.475-11.888.079-12.363-.872-.555-1.031 2.378-2.933 9.116-5.39-2.773-4.518-3.251-6.737-1.428-6.975s5.708,1.506 11.968,5.548z" fill="#ffff80" fill-rule="evenodd" stroke="#000" stroke-miterlimit="10" stroke-width=".036"/>
  <path d="m80.98921,350.015c20.688-8.005 31.863-10.62 34.479-8.162 2.299,2.535-4.279,9.907-20.052,22.984 10.54,7.055 14.978,11.571 13.313,14.188-1.98,2.457-9.67,2.614-23.936.791-10.066,15.219-16.327,21.877-19.419,20.925-3.013-1.346-2.537-10.304 1.428-27.82-19.975-.475-30.2-2.219-31.546-5.23-1.109-3.013 6.656-7.291 24.174-12.841-2.854-9.828-2.459-14.979 1.188-15.772 3.647-.713 10.226,2.615 20.371,10.937z" fill-rule="evenodd" stroke="#000" stroke-miterlimit="10" stroke-width=".036"/>
  <path d="m84.15821,355.009c12.367-6.659 18.706-9.193 19.342-7.609 .316,1.664-4.597,6.896-15.933,16.883 8.799,4.756 12.445,7.688 11.809,9.433-1.027,1.584-6.338,1.584-16.801.315-5.074,12.206-8.481,17.915-10.543,17.121-2.061-.95-2.535-8.163-1.426-21.954-14.426.712-21.719.476-22.828-1.587s4.598-5.311 16.805-10.064c-5.074-8.402-5.946-12.285-2.616-12.84 3.329-.399 10.62,2.932 22.191,10.302z" fill="#ffff80" fill-rule="evenodd" stroke="#000" stroke-miterlimit="10" stroke-width=".036"/>
  <path d="m236.97 260.29c4.36-14.347 7.371-21.639 9.908-21.876 2.219-0.317 3.569 6.34 4.042 20.29 8.084-2.853 12.444-3.249 13.081-1.189 0.555 1.903-2.619 6.262-9.512 13.079 3.96 11.651 4.915 17.912 3.169 19.102-1.982 1.029-6.656-3.091-14.346-12.365-8.402 10.304-13.79 15.218-15.854 14.743-2.06-0.793-1.109-6.579 3.174-18.309-6.502-2.537-9.039-4.914-7.93-7.134 1.033-2.378 5.789-4.28 14.268-6.341z" fill-rule="evenodd" stroke="#000" stroke-miterlimit="10" stroke-width=".036"/>
  <path d="m240.93721,260.689c1.506-9.274 2.933-13.871 3.961-13.475 .954.475 1.746,5.231 2.378,15.456 6.266-2.775 9.198-3.567 9.989-2.378 .555,1.109-1.823,4.042-6.815,9.115 4.515,7.767 6.024,11.889 4.833,12.681-1.346.475-5.47-1.902-12.363-8.322-5.47,7.925-8.798,11.651-10.308,11.492-1.505-.475-.868-4.517 1.587-13.078-6.497-.872-9.034-1.981-7.925-3.962 1.032-2.06 6.025-4.359 14.663-7.529z" fill="#ffff80" fill-rule="evenodd" stroke="#000" stroke-miterlimit="10" stroke-width=".036"/>
 </g>
</svg>
