<?xml version="1.0" encoding="UTF-8"?>
<svg width="332.95" height="585.67" viewBox="0 0 332.954 585.67" xmlns="http://www.w3.org/2000/svg">
 <defs>
  <filter id="e">
   <feGaussianBlur stdDeviation="11.48281"/>
  </filter>
  <linearGradient id="d" x1="38.324" x2="105.53" y1="500.45" y2="433.24" gradientUnits="userSpaceOnUse">
   <stop stop-color="#005f19" offset="0"/>
   <stop stop-color="#bfff5f" offset="1"/>
  </linearGradient>
  <linearGradient id="c" x1="133.5" x2="183.23" y1="570.02" y2="520.3" gradientUnits="userSpaceOnUse">
   <stop stop-color="#005f19" offset="0"/>
   <stop stop-color="#bfff5f" offset="1"/>
  </linearGradient>
  <linearGradient id="b" x2="0" y1="568.97" y2="211.23" gradientUnits="userSpaceOnUse">
   <stop stop-color="#009f24" offset="0"/>
   <stop stop-color="#c9ffbf" offset="1"/>
  </linearGradient>
  <linearGradient id="a" x2="0" y1="212.31" y2="11.878" gradientUnits="userSpaceOnUse">
   <stop stop-color="#bffff4" offset="0"/>
   <stop stop-color="#5fe5ff" offset="1"/>
  </linearGradient>
 </defs>
 <path transform="matrix(.97109 0 0 .97109 2.0977 7.7675)" d="m138.76 379.06c-0.47 21.078-0.938 42.234-1.411 63.394 24.841 3.291 49.759 6.58 74.68 9.874 1.411-19.199 2.82-38.478 4.232-57.753-25.782-5.172-51.64-10.344-77.501-15.515zm18.26-122.64c12.537-13.167 20.218-19.513 33.852-25.312 13.633-6.582 11.125-7.521 27.033-7.521 35.812 0 65.353 14.652 88.627 43.177 23.35 28.601 34.714 66.606 34.714 113.47 0 65.9-14.183 117.15-43.177 154.45-28.445 38.084-68.174 56.42-119.34 56.42-32.911 0-61.905-8.777-88.077-26.331-25.547-17.63-45.451-41.766-59.633-72.483-6.817-16.142-12.538-39.571-16.455-70.29-3.997-30.795-6.269-66.606-6.269-106.18 0-103.91 14.81-181.56 44.351-232.81 28.917-51.954 73.265-77.578 132.35-77.578 44.901 0 80.085 16.143 105.63 48.349 25.623 31.423 38.709 76.088 38.709 132.51-30.873 1.411-61.747 2.899-92.621 4.387-0.55-20.765-1.098-41.529-1.725-62.295-25.938-3.919-51.953-7.836-77.968-11.755 1e-3 46.547 1e-3 93.172 1e-3 139.8z" fill-rule="evenodd" filter="url(#e)" opacity=".5"/>
 <path d="m128.79 370.59c-0.45641 20.469-0.91088 41.013-1.3702 61.561 24.123 3.1959 48.32 6.3898 72.521 9.5886 1.3702-18.644 2.7385-37.366 4.1096-56.083-25.037-5.0225-50.147-10.045-75.26-15.066zm17.732-119.09c12.175-12.786 19.634-18.949 32.873-24.58 13.239-6.3917 10.803-7.3036 26.251-7.3036 34.777 0 63.464 14.228 86.065 41.929 22.675 27.774 33.71 64.68 33.71 110.19 0 63.995-13.773 113.76-41.929 149.98-27.623 36.983-66.203 54.789-115.89 54.789-31.96 0-60.115-8.5233-85.531-25.57-24.808-17.12-44.137-40.559-57.909-70.388-6.6199-15.675-12.176-38.427-15.979-68.258-3.8814-29.905-6.0878-64.68-6.0878-103.11 0-100.9 14.382-176.31 43.069-226.08 28.081-50.452 71.147-75.335 128.52-75.335 43.603 0 77.77 15.676 102.58 46.951 24.882 30.515 37.59 73.888 37.59 128.68-29.98 1.3702-59.962 2.8152-89.943 4.2602-0.5341-20.165-1.0663-40.328-1.6751-60.494-25.188-3.8057-50.451-7.6095-75.714-11.415 9.7e-4 45.201 9.7e-4 90.478 9.7e-4 135.76z" fill-rule="evenodd"/>
 <path d="m140.29 211.63c-0.60887-34.092-1.2954-68.258-1.98-102.42 30.516 4.1087 61.106 8.2174 91.695 12.328 0.45933 19.099 0.9138 38.276 1.3702 57.452l76.629 1.3692c0-54.712-10.731-87.052-35.538-117.64-24.882-31.275-49.691-50.832-93.293-50.832-57.375 0-99.075 25.644-128.52 75.334-21.231 34.699-30.286 71.605-36.297 125.1l125.94-0.68365z" fill="url(#a)" fill-rule="evenodd"/>
 <path d="m14.232 211.23c-2.2063 33.635-4.3738 68.353-6.6568 102.06 0 38.427 2.2073 73.203 6.0887 103.11 3.8038 29.83 14.078 54.866 20.697 70.464 13.772 29.906 34.014 47.254 58.821 64.301 25.342 17.047 48.702 17.807 80.739 17.807 49.613 0 77.769-17.73 105.39-54.713 28.08-36.22 38.277-59.202 38.277-123.12 0-45.582-6.0868-94.054-28.766-121.83-22.598-27.7-33.634-39.646-68.408-39.646-15.371 0-22.297-5.0244-35.538 1.3683-13.24 5.6314-31.655 18.644-43.829 31.428-0.22918-16.893-0.45933-33.862-0.76134-50.832l-126.05-0.40203zm109.46 154.19c-0.98857 24.047-2.0529 48.092-3.1182 72.215 28.233 2.7385 56.539 5.4789 84.846 8.2183 1.3692-21.384 2.7385-42.842 4.1077-64.302-28.611-5.3245-57.222-10.73-85.836-16.132z" fill="url(#b)" fill-rule="evenodd"/>
 <path d="m127.27 566.92c-3.0444-1.2935-5.9353-3.8805-8.6757-7.761-2.9667-4.2631-8.9797-12.326-7.7619-15.98 1.3702-3.728 6.2402-5.7081 15.448-5.9353-2.6618-8.7495-2.6618-13.392 0-14.533 2.6627-0.98954 7.9892 1.5207 15.979 8.1407-7.3793-6.9996-11.187-12.174-11.413-16.361-0.38261-4.1844 2.8152-6.9229 9.5866-8.2174-0.75939-0.68559 0-2.2063 2.283-4.5661 2.2083-2.7394 7.9144-10.5 10.959-10.045 2.6627 0.45836 4.4903 4.8729 5.4789 13.243 9.742-4.3398 15.523-5.4051 17.35-3.1978 1.8276 2.0548-0.30395 7.3813-6.3937 15.981 9.8187-1.4479 15.677-0.53313 17.276 2.7394s-0.99051 8.4456-7.7619 16.36c7.5347-2.0558 12.252-0.38164 14.154 5.0235 1.9033 5.2487 0.98857 14.227-2.7385 26.937-4.6428 2.6627-12.023 3.8805-22.753 3.6523-10.73-0.38067-24.199-2.2073-41.016-5.4799z" fill-rule="evenodd" stroke="#000" stroke-miterlimit="10" stroke-width=".03496"/>
 <path d="m129.02 565.55c-7.3055-8.2183-11.034-14.305-10.88-18.263 0-4.1087 3.8805-6.0868 11.337-5.9334-2.5889-7.8406-2.284-12.102 0.91186-12.786 3.2735-0.68365 9.0554 2.2063 18.265 8.6757-5.3284-11.263-8.2203-18.643-8.6777-22.754-0.45545-4.031 1.5217-4.4874 5.9353-1.3692 2.7414-9.0544 4.872-13.621 6.3927-13.697 1.3702-0.22627 2.1325 4.0329 2.283 12.786 7.9134-5.7838 12.784-7.7639 14.611-5.9363 1.6742 1.6742 0.30492 7.1521-4.1097 16.438 8.7524-3.1959 14.001-3.0453 15.449 0.45642 1.444 3.3474-0.91379 10.12-6.7743 20.012 6.012-4.1854 10.348-4.1854 12.708 0 2.3598 4.0329 2.8162 12.251 1.3712 24.655-8.9797 2.5122-18.492 3.5775-28.233 3.1949-10.045-0.38066-19.862-2.2073-30.589-5.4789z" fill="url(#c)" fill-rule="evenodd" stroke="#000" stroke-miterlimit="10" stroke-width=".03496"/>
 <path d="m147.21 566.08c-2.8938-0.75843-4.9487-2.2063-6.4704-4.9458-1.6742-2.8152-2.5093-6.3908-2.8142-11.034 3.2716-1.5984 5.9363-1.9791 8.599-0.30395 2.586 1.446 4.6399 4.5651 6.4665 9.3603-2.8142-2.9676-5.0225-4.6418-6.9248-5.3264-1.9014-0.68656-3.5008-0.38067-4.4874 1.2178 0.75843 1.7499 1.3683 3.4241 2.4336 5.3274 0.91379 1.746 1.9791 3.6494 3.1978 5.7042z" fill-rule="evenodd" stroke="#000" stroke-miterlimit="10" stroke-width=".03496"/>
 <path d="m148.12 559.61c-1.2935-2.7394-1.2168-5.2517-0.07574-8.1436 1.2945-2.89 3.2716-5.7819 7.0763-8.9797 3.4241 1.3702 5.175 3.6532 5.5546 6.5452 0.38067 3.0434-0.91088 6.315-3.5756 10.957 0.68559-3.9572 0.60693-6.7734 0.07477-8.7505-0.68365-1.9033-1.8256-2.9686-3.729-2.8919-0.98857 1.445-1.9024 3.2706-2.7385 5.174-0.98857 1.7528-1.7509 3.8824-2.587 6.0897z" fill-rule="evenodd" stroke="#000" stroke-miterlimit="10" stroke-width=".03496"/>
 <path d="m153.68 559.76c0.83611-2.6637 2.8152-4.7176 5.6314-5.8596 2.7394-1.2177 6.6199-1.8266 11.337-1.5207 1.2935 3.4998 1.0643 6.1635-0.68365 8.598-1.9033 2.283-5.1749 3.9572-10.121 5.3274 3.2706-2.4365 5.0215-4.4136 6.0878-6.2402 0.91186-1.9033 0.60888-3.3483-0.60887-4.6418-1.8276 0.45739-3.8057 1.0643-5.6314 1.8256-2.0538 0.68559-3.9582 1.5198-6.012 2.5112z" fill-rule="evenodd" stroke="#000" stroke-miterlimit="10" stroke-width=".03496"/>
 <path d="m167.3 69.786c-0.30395-2.4365-0.22627-4.5661 0.53216-6.3917 0.7623-2.284 1.9033-4.0339 3.7309-5.2517 1.6742-1.3692 3.728-2.1296 6.1635-1.9791 2.2073 0.07672 5.0225 1.6742 6.6966 3.0444 1.142 1.2178 1.2168 3.8057 2.283 4.7943 1.142 0.68462 2.3598 0.68462 4.2612-0.30395-1.3683-4.1854-2.0539-7.9901-2.3607-11.414-0.60596-3.6523-0.30298-5.9353 0.60984-9.5118 0.9138-3.9572 4.2631-10.729 5.9363-12.403 1.5217-1.7509 2.8919 1.3692 4.1067 3.1959 1.0663 1.8266 2.1325 4.2612 2.8929 7.6095 1.3692-2.3588 3.1949-4.87 5.174-6.6966 1.9781-1.9014 4.3379-3.9572 7.0754-5.3264 2.9696 4.1854 5.2517 8.3708 6.5471 12.251 1.2916 4.0329 3.2706 5.7071 1.5207 11.186-2.0548 5.1759-6.1645 11.642-12.938 19.709 2.285 1.8256 6.0887 2.5112 11.417 1.445 5.4022-1.141 12.021-3.4231 20.468-7.457-0.60984 3.1968-1.7509 5.7828-3.4241 8.0659-1.6742 2.1315-4.1097 3.9572-6.9996 5.1749 3.2716 1.0653 4.5651 2.283 3.8805 3.6523-0.76133 1.2168-3.5008 2.8152-8.2203 4.4903 3.0453 1.9014 4.3398 3.6523 4.1873 5.2507-0.37969 1.3692-2.2063 2.6627-5.7838 3.5765l-14.382-11.034c-6.3927 2.587-11.948 3.1959-16.665 2.1306-4.871-1.446-8.598-6.6966-12.1-8.9797-3.6523-2.283-6.9239-3.1968-9.8158-3.5765-1.98 0.83708-3.2716 1.5974-4.4894 1.9781-1.2945 0.22821-1.9033 0.38067-2.4355 0.15246 0-1.6742 0.07574-2.9676 0.53215-4.1854 0.23015-1.2187 0.76231-2.284 1.5984-3.1968z" fill-rule="evenodd" stroke="#000" stroke-miterlimit="10" stroke-width=".03496"/>
 <path d="m169.28 69.253c0.68462 0.22821 1.2935 0.83805 1.8266 1.5217 0.3797 0.6079 0.98857 1.5217 1.2158 2.7394 2.9686 0.22724 5.7081 1.141 7.9134 2.1315 2.0568 1.0653 3.425 2.586 5.5556 4.2602 1.9791 1.5217 3.9562 4.1864 6.8481 5.3264 2.7394 0.99051 5.8605 1.2178 9.3603 0.99051 3.1211-0.38164 6.3927-1.3702 9.8177-2.9686l13.924 11.11c1.5984-0.45739 2.3607-0.98955 2.587-1.9024 0.07575-0.98954-0.68365-2.3588-1.9771-3.5008-1.6742-1.3692-7.2288-3.5765-7.0025-3.9572 0.22917-0.53216 6.1635 1.142 8.6757 0.9138 2.3607-0.60887 4.567-1.9024 4.87-2.9676-0.07574-1.141-1.5984-2.1315-4.87-3.2726 1.9781-0.60887 3.5765-0.98954 5.0992-1.9791 1.2925-1.0653 2.4355-1.9024 3.4241-3.3483 0.68365-1.5217 1.2925-2.8152 1.5217-4.7176-8.295 3.6523-15.143 5.5546-20.242 6.012-5.2507 0.30395-9.0564-0.83708-11.109-3.729 2.9696-3.2716 5.4789-5.8596 7.2288-8.0659 1.8266-2.2063 3.5008-3.8805 3.5775-5.0215-0.07575-1.2178-1.3712-2.1315-3.8805-2.4355 2.8919-1.5984 4.4894-3.0444 5.0963-4.3369 0.45933-1.3702-0.38066-2.588-2.2053-3.6523 1.445-2.4345 2.1296-4.9458 1.748-7.8377-0.45544-2.8929-1.6732-6.1645-3.9562-9.5118-4.4894 3.0434-7.9115 6.4684-10.577 10.272-2.5103 3.729-4.1077 8.1426-5.4022 12.328-1.5974 3.9572-2.7385 9.2069-4.3369 11.643-2.1296 2.1296-5.2517 2.2063-7.0025 1.6742-1.8237-0.9138-1.7499-3.6532-3.0414-5.2507-1.2187-1.7509-3.0453-3.1968-4.6428-3.729-1.98-0.53216-4.4126-0.30395-6.0878 0.68462-1.9791 0.76134-3.3483 2.6647-4.1097 4.5661-0.75939 1.5965-0.6079 3.8795 0.15343 6.0101z" fill="#b87800" fill-rule="evenodd" stroke="#000" stroke-miterlimit="10" stroke-width=".03496"/>
 <path d="m199.64 44.142c0.53313-1.445 0.53313-3.4998 0-5.3264-0.76133-2.0539-2.1296-7.0006-3.5008-6.6199-1.3702 0.07672-3.5008 4.5661-4.3359 7.9144-1.142 3.3483-1.7509 7.3813-1.5236 11.491 0.22821 3.8038 1.0653 7.2288 2.8152 10.882 0.60888-3.5008 1.5994-6.6209 2.6647-9.6643 0.98857-3.2736 2.2821-5.8615 3.8805-8.6767z" fill="#b87800" fill-rule="evenodd" stroke="#000" stroke-miterlimit="10" stroke-width=".03496"/>
 <path d="m173.61 64.992c0.38067 0.91282 1.5217 1.3702 2.5122 0.91282 0.98954-0.3797 1.5217-1.5207 1.142-2.4345s-1.5236-1.3692-2.5122-0.9138c-0.98954 0.38067-1.5217 1.446-1.142 2.4355z" fill-rule="evenodd" stroke="#000" stroke-miterlimit="10" stroke-width=".03496"/>
 <path d="m168.8995,70.31837c-.91574.30395-1.4479,1.29349-1.90431,2.13057-.53313.83708-.68559,1.97908-.76231,3.42407 .45933.15246 1.37118-.30395 2.13252-.53216 .75939-.45738 1.67513-1.06529 2.73944-1.82662-.22917-1.21678-.53313-2.05483-.91476-2.51124-.3797-.60887-.91186-.83708-1.29058-.68462z" fill="#ff0" fill-rule="evenodd" stroke="#000" stroke-miterlimit="10" stroke-width=".03496"/>
 <path d="m104.14 366.71c-1.2187-14.535-0.45641-26.102 2.588-35.005 2.8909-8.903 8.0649-14.914 15.217-18.035 1.98-15.599 2.3598-27.318 0.83902-35.992-1.7509-8.7495-7.6085-7.6852-9.6643-15.599-1.9781-8.2193-0.30395-25.646-1.7509-31.427-1.6732-5.4022-4.0329-2.3598-7.9134-1.7509-4.2621 0.30395-12.86 4.1106-15.827 3.4988-2.9696-0.91185-4.7185-3.1191-0.83611-8.3679 3.728-5.4789 11.641-13.545 23.74-24.199l1.0663-9.5886c-2.5122-1.2177-3.6532-2.6627-3.7309-4.6408-0.15149-2.2083 1.98-6.4694 3.5008-7.2307 1.2178-0.83708 3.1221 0.15343 4.872 2.6647 2.9677-0.53313 4.87-0.2282 6.317 0.60791 1.2916 0.68559 2.1296 2.6637 1.5974 4.1854-0.68559 1.5217-2.5889 2.9686-5.7081 4.6408l0.60985 9.2079c5.4779 2.7394 9.2059 6.0878 11.489 10.348 2.1296 4.0329 2.1296 9.2079 1.7509 14.689-0.45642 5.173-5.6314 9.8915-4.4126 17.426 1.0643 7.456 6.7724 21.534 10.956 27.24 3.8805 5.1769 5.7081 3.5775 12.557 5.4808 6.8472 1.748 20.544 0.3797 27.927 6.1635 7.1521 5.6294 11.947 14.762 14.687 27.697 2.5103 1.5227 5.4022 1.7499 8.3708 1.2935 2.9667-0.76134 6.6966-2.3588 9.4361-4.7933 2.585-2.6647 4.4126-6.0897 5.7838-10.577-4.2631-4.9458-4.8729-8.296-2.4374-11.188 2.4374-2.8152 8.2183-4.4874 17.35-5.3255 1.3683 7.7619 1.2187 12.937-0.45738 15.829-1.8256 2.8152-5.0215 3.2726-9.8925 1.3683-1.445 8.2941-4.5641 14.611-9.6633 19.557-5.175 4.7952-12.024 7.8377-20.85 9.4361 0.68462 9.9702 0.83514 19.405 0.15246 28.003-0.68559 8.6757-2.8162 21.992-4.3398 23.514-1.7489 1.141-4.3379-7.9134-5.7061-16.056-1.5227-8.3708-2.7385-19.48-3.3464-33.635-5.0992 5.4041-8.9797 11.109-11.644 17.426-2.7394 6.0868-3.425 16.588-5.0234 19.786-1.9004 3.1191-6.316 3.0415-6.1635-1.3712 0-4.7933 2.1296-13.695 6.3927-27.014-8.2183-5.4022-14.002-7.6095-17.655-7.456-3.8038 0-2.4336 4.9458-4.1077 8.9787-1.9771 3.9572-5.0972 10.195-6.1635 15.827-1.0663 5.5546 1.0663 17.35-0.07672 17.731-1.2945-0.07575-6.4665-9.2856-7.6104-16.208-1.2925-7.0016-1.0653-15.143 0.38261-25.037-2.8162-3.5756-4.9467-4.4894-7.2288-2.4336-2.285 1.9771-4.5661 7.2288-5.9353 14.305-1.5984 6.8491-1.9024 23.057-3.2736 27.469-1.6712 4.2602-3.728 3.8785-6.1635-1.446z" fill-rule="evenodd"/>
 <path d="m110.91 224.34c-6.1635 1.8266-11.033 3.2726-14.913 4.3369-3.8805 0.76134-7.0763 1.8266-8.3698 1.7499-1.6004 0-1.7509-0.7594-0.45738-1.9771 1.6732-0.53313 2.8162-1.445 3.1191-2.1306 0.22918-0.99051-0.14955-1.7499-1.141-2.8919 5.5537-5.0982 10.044-9.6643 14.079-13.394 3.727-4.1844 6.619-8.2941 9.2846-9.6624 2.4336-1.3683 4.1077 0.76133 6.7704 2.586 2.5889 1.6771 7.0016 4.4136 8.8272 7.9144 1.5236 3.3483 1.7509 7.458 1.2945 12.328-0.60985 4.7933-3.9582 10.577-4.1854 15.599-0.22821 4.6428 0.68559 7.0016 2.4365 12.328 1.6712 5.0215 3.8805 11.111 7.2288 18.262-2.2092 6.012-2.6656 10.808-1.0682 14.078s6.317 6.0897 10.35 5.4789c3.728-0.91185 8.0649-4.1844 12.708-10.119 7.6104 0.60693 13.089 1.2925 16.74 2.6627 3.5008 1.2177 5.0234 2.8152 4.567 4.7933-4.2611 4.0339-6.5442 7.459-6.5442 10.58-0.2282 2.8132 2.7385 6.3908 5.9343 7.456s7.1521 0.60887 12.708-1.0653l1.3712 9.2079c2.9676 2.1296 6.1635 2.6627 10.5 1.2925 4.0329-1.445 8.903-4.4903 14.306-9.4361-4.3398 6.1635-8.2203 10.35-12.785 13.392-4.4903 2.6627-8.9777 4.1873-13.773 3.73-0.07671 6.2392-0.30395 13.011-0.68559 20.317-0.60984 7.2278-0.98954 20.62-1.9781 22.904-1.2935 1.9791-2.9686-3.0424-4.1854-10.347-1.0663-7.6114-1.9781-18.339-2.4345-33.636-3.0453 1.5984-6.013 4.4903-8.599 8.3708-2.9686 3.8038-5.6314 9.6643-7.6852 14.914-1.9801 5.0215-3.3483 15.143-4.1097 16.284-1.142 0.68656-1.8266-5.3255-0.91185-10.121 0.8361-4.7166 2.9667-10.654 6.3907-17.806-8.0639-4.6418-14.228-7.3822-18.489-7.9144-4.4923-0.6079-6.013 2.0568-7.4609 4.1873-1.3683 1.8266-0.60596 4.3369-1.5188 7.2288-1.5236 2.6618-4.7176 4.9458-5.7838 9.7381-0.99149 4.9487 0.75939 17.426 0.22626 18.644-0.83514 0.7623-3.6513-8.9787-4.3369-13.392-0.83514-4.871-0.9138-9.0554-0.22821-13.393 0.53216-4.3369 3.8057-9.0554 3.0453-11.489-1.0662-2.4365-3.7309-3.2736-8.598-2.8152l2.889-14.763c8.0688-3.0444 13.089-5.7071 14.763-8.2931 1.445-2.8152-2.5103-5.6314-4.872-7.3055-2.5103-1.7509-5.5527-2.588-9.4332-2.8152 0.53312-7.2288 0-13.013-1.2954-17.35-1.6732-4.7156-5.4799-5.8596-7.3036-9.2827-1.8266-3.426-2.7424-5.5576-3.0444-10.503-0.38067-5.2517 0.22918-15.143 0.60887-19.403 0.07575-4.4136 0.91186-4.7185 0.45739-6.1635-0.60888-1.4469-2.2821-2.5122-4.4146-2.8938z" fill="#ff8000" fill-rule="evenodd" stroke="#000" stroke-miterlimit="10" stroke-width=".03496"/>
 <path d="m119.97 317.4c-2.8919 0.07671-5.477 2.0538-7.4551 5.9343-2.2092 3.6542-4.1116 9.2079-5.0992 16.665-1.144 7.2278-2.0548 24.504-1.5227 26.861 0.22918 2.2063 2.283-7.457 3.4998-13.163 0.91185-6.0887 1.5984-16.514 3.2716-21.611 1.5984-5.1759 3.9582-8.0678 7.0783-8.9797 0.07478-1.9024 0.15246-3.8057 0.22724-5.7071z" fill="#ff8000" fill-rule="evenodd" stroke="#000" stroke-miterlimit="10" stroke-width=".03496"/>
 <path d="m126.36 292.14c2.5122 0 4.4156 0.60887 6.316 1.5207 1.7509 0.83805 4.4923 1.98 4.4136 3.73-0.53313 1.3683-4.2612 4.3369-6.1635 5.7061-1.9781 1.3702-3.6523 1.9033-5.0205 2.2063 0.14955-4.3369 0.30395-8.7495 0.45447-13.163z" fill="#ad4200" fill-rule="evenodd" stroke="#000" stroke-miterlimit="10" stroke-width=".03496"/>
 <path d="m136.02 271.9c-1.445 4.9458-1.445 8.6757 0 11.185 1.2187 2.4365 5.0244 4.2621 7.9134 3.729 2.8162-0.68559 5.5546-3.5008 8.5233-8.1416-2.8929-0.37969-5.5546-0.75939-8.2941-1.9771-2.8909-1.2177-5.3264-2.8162-8.1426-4.7952z" fill="#ad4200" fill-rule="evenodd" stroke="#000" stroke-miterlimit="10" stroke-width=".03496"/>
 <path d="m180.62 287.72c-2.4355 0.68365-4.0329 1.9801-4.7952 4.1844-0.98857 2.0558-1.9771 6.9258 0 8.7524 1.98 1.6751 5.9363 2.3598 11.873 1.7509 0.07574-3.5008-0.45739-6.3169-1.5984-8.7524-1.2187-2.5112-3.0444-4.4903-5.4789-5.9353z" fill="#ad4200" fill-rule="evenodd" stroke="#000" stroke-miterlimit="10" stroke-width=".03496"/>
 <path d="m144.17 306.37c-0.9138 1.9771 0.53216 5.8576 2.587 8.1416 1.5974 1.8266 5.174 5.0225 8.3698 4.6418 3.3474-0.60887 9.5876-4.1096 10.806-6.3927 0.76134-2.284-3.425-5.0225-5.5556-6.7734-2.586-1.6742-5.1749-4.2611-8.0668-3.9562-2.9657 0.15343-7.1521 1.9033-8.1406 4.3388z" fill-rule="evenodd" stroke="#000" stroke-miterlimit="10" stroke-width=".03496"/>
 <path d="m146.75 307.74c0.3797 1.2178 1.6742 5.2507 3.5765 6.5432 1.7489 1.0653 5.4022 0.99148 7.459 0.68559 1.9014-0.45641 4.5632-1.3683 4.1844-3.0434-0.83611-1.6742-5.0982-5.9363-7.5318-6.6209-2.5132-0.8361-5.5576 0.68462-6.7763 1.2935-1.5207 0.30686-1.446-0.30298-0.91186 1.142z" fill="#ad4200" fill-rule="evenodd" stroke="#000" stroke-miterlimit="10" stroke-width=".03496"/>
 <path d="m175.37 308.12c-1.9771-0.83611-4.87 1.8266-5.7071 4.1864-1.2178 2.0539-1.5207 7.761 0.2282 8.599 1.6751 0.68267 9.74-1.9033 10.731-3.9562 0.68364-2.284-3.4241-8.0678-5.2517-8.8292z" fill-rule="evenodd" stroke="#000" stroke-miterlimit="10" stroke-width=".03496"/>
 <path d="m174.07 311.46c-1.3683 0.07671-3.4241 4.2631-2.8929 5.4818 0.45835 0.91089 5.7081 0.98857 6.3927 0.22627 0.30589-1.0653-2.5093-5.7081-3.4998-5.7081z" fill="#ad4200" fill-rule="evenodd" stroke="#000" stroke-miterlimit="10" stroke-width=".03496"/>
 <path d="m219.96 292.29c-1.8247-1.5984-2.7385-3.0434-3.0434-4.335-0.45544-1.5236-0.53215-2.283 1.5217-3.5008 1.9791-1.2178 5.6314-2.5889 10.956-3.8067 0.60984 5.3284 0.60984 8.9797 0 11.263-0.75843 2.0558-2.4326 1.6771-3.8805 1.7509-1.6722 0.07575-3.4231-0.38067-5.5537-1.3712z" fill="#ff8000" fill-rule="evenodd" stroke="#000" stroke-miterlimit="10" stroke-width=".03496"/>
 <path d="m112.89 208.89c-1.3702-0.45835-5.4789 2.8152-5.0244 3.9552 0.38261 0.99052 5.8605 2.9686 7.0025 2.4355 0.68462-0.83611-0.76036-6.011-1.9781-6.3908z" fill-rule="evenodd" stroke="#000" stroke-miterlimit="10" stroke-width=".03496"/>
 <path d="m116.24 197.02v-7.6852c2.89-1.2178 4.5661-2.5889 5.0225-3.5008 0.45545-1.3702-1.0692-2.4355-2.2063-2.8919-1.5236-0.76037-5.3274-0.68462-6.1645 0.2282-1.0663 0.9138-0.91379 2.8171 0.45544 5.7061l-0.22723 8.1436h3.1201z" fill="#ad4200" fill-rule="evenodd" stroke="#000" stroke-miterlimit="10" stroke-width=".03496"/>
 <path d="m112.51 180.35c-1.0682 0.83708-1.4469 1.7509-1.7509 3.0444-0.15246 1.2178-0.22918 2.5112 0.3797 4.1864-1.5227-1.2178-2.2821-2.283-1.9771-3.5008 0.15051-1.2935 1.3683-2.4355 3.3483-3.73z" fill="#ad4200" fill-rule="evenodd" stroke="#000" stroke-miterlimit="10" stroke-width=".03496"/>
 <path d="m23.707 364.5c-6.5432 0.30395-10.805 1.6742-13.621 4.1077-2.6618 2.283-3.5756 1.7509-2.7394 10.426 0.30492 8.7505 3.3512 33.405 5.9353 41.091 2.4355 7.3036 5.5576 8.3698 9.0583 3.1959l1.8247 41.014 38.352-3.1939-5.9363-37.364c4.4136 3.0424 7.6104 2.7394 9.5876-0.91379 1.8276-3.8047 1.0663-13.696 1.8276-21.458 0.68559-8.3698 4.1077-20.395 1.7509-26.405-2.7414-5.9363-8.2203-8.8272-17.274-8.6757 6.011-19.025 7.8367-32.568 5.4799-41.472s-13.699-11.337-19.633-11.413c-6.3179-0.22918-14.079 4.87-16.818 9.9682-2.7394 4.7933 0.30589 12.708 0.91283 19.633 0.30395 7.0025 0.83611 13.774 1.2925 21.461z" fill-rule="evenodd" stroke="#000" stroke-miterlimit="10" stroke-width=".03496"/>
 <path d="m26.905 369.98c-7.3075-1.2935-11.874-0.83805-14.537 1.3683-2.5093 1.9033-1.443 4.4136-0.91088 11.339 0.30395 7.0016 0.15246 23.893 2.7394 30.134 2.283 5.8586 6.1635 7.6862 11.337 5.4779 1.5984 21.46 2.6637 35.462 3.1959 42.844 0.53313 7.1511 0.53313 7.3036 0 0.45544l30.134-2.7385-5.4799-39.189c3.1959 2.3598 5.6314 3.2716 7.3045 2.7394 1.5217-0.83611 1.4479 0.83805 2.7394-6.3937 1.142-7.6085 6.7734-29.675 4.5661-37.438-2.4355-7.8377-8.6748-10.425-18.718-8.598 2.89-13.924 4.1067-25.035 3.6513-33.331-0.45641-8.5213-2.283-14.534-6.3927-16.816-4.4136-2.587-15.903-1.9781-19.177 2.7414-3.4212 4.7156-0.4535 17.423-0.4535 25.491-0.15149 7.8367-0.15149 15.142 9.7e-4 21.915z" fill="#ffc080" fill-rule="evenodd" stroke="#000" stroke-miterlimit="10" stroke-width=".03496"/>
 <path d="m68.907 374.93c-6.4675 0.30395-11.033 1.6751-13.695 4.1096-2.6647 2.2063-3.5794 1.9024-2.7404 10.5 0.30395 8.598 3.3474 33.329 5.9343 41.016 2.4345 7.3036 5.4789 8.3698 9.1321 3.1959l1.8266 41.016 38.275-3.1221-5.9353-37.439c4.4156 3.0463 7.6104 2.7385 9.5905-0.91185 1.8247-3.8805 1.0653-13.469 1.8247-21.383 0.53216-8.2941 4.2602-20.544 1.8266-26.483-2.6627-5.9343-8.4466-8.8262-17.349-8.6738 5.5537-18.874 7.3812-32.494 5.477-41.472-2.1296-9.0554-12.251-10.806-16.893-12.327-4.5651-1.9033-8.0639-1.2945-10.5 2.7385-2.585 3.9572-4.03 13.621-4.9448 21.916-1.2197 8.297-1.8286 17.124-1.8286 27.321z" fill-rule="evenodd" stroke="#000" stroke-miterlimit="10" stroke-width=".03496"/>
 <path d="m72.028 380.41c-7.3036-1.2935-11.872-0.83514-14.536 1.3712-2.5093 1.8247-1.445 4.5661-0.91185 11.413 0.30492 7.155 0.15246 23.742 2.7404 30.059 2.284 5.8576 6.0858 7.6842 11.414 5.4789 1.446 21.306 2.587 35.611 3.1182 42.916 0.53313 7.1521 0.53313 7.3046 0 0.45642l30.134-2.7385-5.4789-39.266c3.1959 2.3588 5.6314 3.2736 7.3065 2.7394 1.5198-0.83611 1.445 0.83708 2.7365-6.3917 1.1439-7.6852 6.7753-29.524 4.567-37.362-2.4374-7.7629-8.6757-10.655-18.718-8.6777 2.889-14.002 4.1067-24.807 3.6513-33.252-0.45544-8.4465-2.284-14.763-6.3937-16.893-4.4126-2.588-15.902-1.9791-19.173 2.7385-3.425 4.9467-0.45738 17.198-0.45738 25.568-0.15149 7.8377-0.15149 15.22 9.7e-4 21.84z" fill="#ffc080" fill-rule="evenodd" stroke="#000" stroke-miterlimit="10" stroke-width=".03496"/>
 <path d="m93.488 318.01c2.7365 0.6079 6.8472-0.60984 9.1292 1.3683 2.0529 1.8266 1.3683 6.9248 3.1968 9.9682 1.5198 2.7414 6.2383 3.4241 6.8472 7.3046 0.38261 3.73-2.7385 9.5886-3.1959 15.524-0.45544 5.7828 0.5341 12.176 0.91283 19.175 0.30298 6.7734 0.83611 13.852 0.45641 21.84-0.98857 7.8367-2.5103 21.688-4.5661 25.11-2.0529 2.9686-6.1635-3.9543-7.3036-6.3908-1.3692-2.6627 0.22627-7.8377-0.45835-8.2183-0.91088-0.45738-2.4345 3.8805-4.5661 5.9353-2.6627 1.8256-9.6624 11.718-9.5856 5.0215 0-7.3813 8.2941-35.46 10.5-46.95 2.0529-11.492 3.4988-14.763 2.283-21.004-1.7509-6.5432-7.1521-15.141-10.96-16.436-4.0329-1.2178-10.347 3.4998-11.869 9.1302-1.8266 5.4032 1.3673 15.601 2.284 23.286 0.60693 7.3055 1.9004 12.176 2.7365 21.384 0.83708 9.1302 3.6532 27.09 2.283 33.329-1.9014 6.0101-8.8272 5.0225-11.337 3.1958-2.283-2.284-0.99148-13.926-2.283-15.524-1.5984-1.7509-6.1635 12.937-6.3908 5.9372-0.45932-7.2307 5.172-34.928 4.5632-47.865-0.76134-13.089-10.195-22.828-8.6757-29.221 1.2964-6.2402 11.34-5.7081 16.361-8.6748 4.7185-3.6542 8.8272-9.4361 12.327-10.882 3.0482-1.1401 4.4942 2.5132 7.3104 3.6562z" fill-rule="evenodd" stroke="#000" stroke-miterlimit="10" stroke-width=".03496"/>
 <path d="m12.141 422.18c3.5008-3.6513 6.619-5.5546 9.6653-5.4022 2.89 0 4.03 6.3927 7.8348 5.9353 3.5775-0.68462 10.045-10.12 13.546-9.5118 3.2736 0.68364 5.5576 4.5641 6.5432 12.785 3.8805-3.5785 7.2278-5.0992 10.044-4.8729 3.0453 0.07575 5.0244 3.4241 6.7753 6.2412 1.2925 2.5122 1.7509 5.9353 1.3683 9.6643 2.0539-7.459 4.6428-12.328 8.598-14.002 3.7309-1.7509 8.4475-0.91185 14.157 3.1191-1.2964-3.1191-0.61082-4.7166 2.0539-4.7933 2.8123-0.15343 11.794 1.5207 14.001 4.1087 1.9043 2.4345 0.91185 5.6314-2.6627 10.195 3.0444-1.5207 5.7061-1.445 7.9892-0.07478 2.2073 1.2168 4.1873 4.5641 5.0225 8.598 0.45641 4.1883-0.14955 9.0554-1.8266 15.753 6.316 3.0444 9.3603 5.4022 9.1321 7.9911-0.3059 2.283-3.8805 4.4903-10.731 6.316 4.4126 3.1959 6.1635 6.6966 5.2507 11.109-1.0653 4.4136-11.947 10.195-11.187 14.686 0.45738 3.8057 13.926 7.0016 14.841 10.196 0.75842 3.3483-2.3636 6.5442-9.6653 9.8925 4.4874 2.7414 6.1645 4.872 4.7166 7.0016-1.5984 2.0538-6.0101 3.5008-13.544 4.9467-2.587 3.728-5.1759 4.9458-8.3718 3.0444-3.2716-1.9033-6.6209-6.619-10.348-14.154-0.38164 4.9467-1.4469 8.903-3.8047 11.565-2.4355 2.6656-5.5566 4.1096-9.9692 4.3398-13.468-6.1635-24.655-18.796-34.701-37.897-9.9644-19.327-18.109-44.515-24.728-76.781z" fill-rule="evenodd" stroke="#000" stroke-miterlimit="10" stroke-width=".03496"/>
 <path d="m15.185 426.52c1.0653-3.4241 2.7404-4.7952 5.0244-4.4136 2.1306 0.22723 5.0196 7.456 8.6738 6.9996 3.3483-0.60888 9.2069-9.9682 12.555-9.5886 3.1201 0.45738 5.7838 4.1864 7.154 11.795 4.4136-2.8919 7.3036-4.2602 9.5118-4.4126 1.8247-0.15246 1.5984 1.0663 2.586 3.3483 0.98954 1.9791 2.0548 4.9458 3.5008 8.903l9.8925 1.0663c-0.60887-7.6862 0.45641-11.946 3.5008-13.088 2.9657-1.141 7.6075 1.0653 14.227 6.6199 2.5122-6.6966 4.4923-9.3603 5.9372-8.295 1.2916 0.98954 2.0538 6.0101 2.284 14.763 5.9324-1.5227 9.3584-0.60985 11.184 2.7375 1.5236 3.425 1.144 8.9039-1.445 17.35 4.4126 1.3712 6.6966 3.122 6.8501 5.2517 0.15149 2.0538-2.0577 4.4894-6.3179 7.3045 2.5889 1.5217 3.8805 3.425 3.8805 5.4022-0.30298 1.9033-2.5093 3.5008-4.2602 6.5452-1.8266 3.1949-5.7071 7.3793-5.7838 11.337-0.30395 3.6532 3.6542 7.3036 5.4041 10.044 1.5207 2.283 5.3255 2.4355 4.9467 4.5651s-2.5899 4.871-6.9268 8.2203c4.1873 2.3578 5.4022 4.4874 4.7952 6.0887-0.91476 1.5984-7.9154 2.283-9.8935 3.8038-2.0538 1.2935-0.07671 6.7724-2.587 4.7166-2.8919-2.3578-7.458-7.9115-14.001-17.578-1.7509 2.1296-3.8047 4.6418-5.8605 7.8377-2.1296 3.0434-4.2602 6.6199-6.6957 10.731-10.121-8.2203-18.872-18.035-27.09-30.059-8.296-12.176-16.59-28.992-21.688-41.93-5.2497-13.237-8.3698-24.879-9.3594-36.064z" fill="url(#d)" fill-rule="evenodd" stroke="#000" stroke-miterlimit="10" stroke-width=".03496"/>
 <path d="m47.831 464.72c1.2168-3.4998 3.1939-5.6294 6.7724-7.2278 3.3483-1.5984 7.9134-2.1296 13.697-1.9024 1.6722 4.0349 1.445 7.6095-0.68462 10.425-2.283 2.7394-6.1655 5.0225-12.253 6.5432 3.6532-2.89 6.3927-5.3255 7.3822-7.6085 0.91088-2.3607 0.91088-4.0329-0.83611-5.6314-2.284 0.60887-4.3379 1.3702-6.7734 2.283-2.3598 0.76134-4.7933 1.9043-7.3045 3.1192z" fill-rule="evenodd" stroke="#000" stroke-miterlimit="10" stroke-width=".03496"/>
 <path d="m72.332 471.57c-0.45641-3.0424 0.30298-5.4022 2.283-7.9134 2.0529-2.587 4.869-4.4894 9.2827-6.5422 2.6647 2.5122 3.8067 4.869 3.426 7.9134-0.60984 2.8919-2.6647 5.9334-6.4684 9.4351 1.6742-3.5008 2.5103-6.3908 2.5103-8.3708-0.07477-1.9771-0.98954-3.3464-2.7375-3.8038-1.4469 1.2187-2.8152 2.5103-4.1116 4.1844-1.2925 1.5227-2.9676 3.1201-4.1844 5.0973z" fill-rule="evenodd" stroke="#000" stroke-miterlimit="10" stroke-width=".03496"/>
 <path d="m78.725 470.05c2.0529-2.0539 4.4884-3.0444 7.6095-2.9686 3.1201-0.07575 6.5422 1.141 10.881 3.3483-0.30492 3.5785-1.5974 6.0878-4.1864 7.5337-2.8142 1.446-6.316 1.3683-11.415 0.60984 3.9591-0.99148 6.3927-1.7509 8.1436-3.122 1.5207-1.443 1.98-2.6618 1.3683-4.4894-1.9771-0.37969-3.728-0.6079-5.8576-0.68267-2.2073-0.22918-4.1854-0.3059-6.5432-0.22918z" fill-rule="evenodd" stroke="#000" stroke-miterlimit="10" stroke-width=".03496"/>
 <path d="m80.549 475.3c2.8919 0 5.1759 0.75939 7.459 3.1191 2.1325 2.1296 3.9582 5.4789 5.4818 10.044-2.6666 2.3598-5.4041 3.2716-8.2203 2.4374-2.8162-0.83902-5.709-3.3483-8.6738-7.5357 3.3474 2.1306 5.9334 3.1949 8.0639 3.4998 2.1325 0.07671 3.1988-0.68462 4.0329-2.283-1.142-1.5984-2.3578-3.1191-3.6513-4.5651-1.2935-1.5217-2.8938-3.1949-4.4923-4.7166z" fill-rule="evenodd" stroke="#000" stroke-miterlimit="10" stroke-width=".03496"/>
 <path d="m55.667 500.56c1.0653-3.3483 3.3474-5.6314 6.8491-7.1521 3.3483-1.5207 7.9134-2.283 13.696-1.9771 1.6742 4.03 1.446 7.6085-0.68365 10.423-2.283 2.8162-6.1645 5.0225-12.253 6.6199 3.6542-3.0424 6.3927-5.4022 7.3813-7.6842 0.9138-2.1296 0.9138-4.1874-0.83611-5.5556-2.2821 0.45641-4.3359 1.2954-6.7714 2.2063-2.5132 0.7623-4.871 1.9043-7.3822 3.1201z" fill-rule="evenodd" stroke="#000" stroke-miterlimit="10" stroke-width=".03496"/>
 <path d="m65.406 501.4c3.2745-1.0653 6.4704-0.83805 9.8935 0.98954 3.425 1.8266 6.4675 4.9458 9.9692 9.6643-2.284 3.9562-5.174 5.7071-8.6738 5.8576-3.7309 0-7.6881-1.9014-12.711-5.7052 4.6418 1.2158 8.0668 1.5984 10.579 1.141 2.3588-0.45738 3.6532-1.9024 3.8824-4.0329-1.8305-1.3702-3.8076-2.8152-5.9382-4.0329-2.1296-1.3712-4.5651-2.6637-7.0016-3.8814z" fill-rule="evenodd" stroke="#000" stroke-miterlimit="10" stroke-width=".03496"/>
 <path d="m76.21278,348.06778c0-.45738.60887-.68656 1.82565-.98954 .98954-.30492 3.19586-1.06626 4.56704-.83805 1.142-.07672 1.97811.15246 2.20535.68462-.22723.30395-1.67319,1.06625-2.28303,1.67513-.76134.37969-.22918,1.29349-.76134,1.29349-.75939-.15246-1.67319-1.59647-2.43549-1.67416s-1.36827.60984-1.82468.83611c-.60887-.15343-1.44498-.68559-1.29349-.9876z" fill-rule="evenodd" stroke="#000" stroke-miterlimit="10" stroke-width=".03496"/>
 <path d="m86.33446,348.06778c0-.45738.68462-.68656 1.7499-.98954 .91185-.30492 3.42407-1.06626 4.64182-.83805 1.142-.07672 1.97616.15246 2.20534.68462-.22918.30395-1.67319,1.06625-2.28206,1.67513-.68462.37969-.38067,1.29349-.83902,1.29349-.83514-.15246-1.52073-1.59647-2.35684-1.67416-.68462-.07672-1.52364.60984-1.90431.83611-.68365-.15343-1.29252-.68559-1.21483-.9876z" fill-rule="evenodd" stroke="#000" stroke-miterlimit="10" stroke-width=".03496"/>
 <path d="m84.659 350.73s0.15246 0.91379 0.45641 2.1296c0.22918 1.0672 1.2197 2.5889 1.2197 3.9572-0.38164 1.142-1.446 2.9686-2.0548 3.1221-0.76134 0.07575-1.2187-2.5889-1.0663-2.7394 0.07672-0.45932 1.7499 1.0653 2.0548 0.45642 0-0.98954-1.0663-3.8047-1.142-4.9458-0.23015-1.2954 0.22918-2.0568 0.53216-1.98z" fill-rule="evenodd" stroke="#000" stroke-miterlimit="10" stroke-width=".03496"/>
 <path d="m81.54 362.75c-0.22918-0.30492 2.1296 1.5984 3.5756 1.5984 0.99148-0.15246 4.0339-1.9801 4.1864-1.6751 0 0.07671-1.3702 2.6637-2.6618 2.8162-1.5256-0.07672-4.7962-2.6627-5.1002-2.7394z" fill-rule="evenodd" stroke="#000" stroke-miterlimit="10" stroke-width=".03496"/>
 <path d="m30.6327,335.43583c0-.2282.68559-.83805 1.75088-.99148 .91088-.3797 3.42212-.98857 4.63987-.91186 1.14103-.07574 1.98005.15247 2.20923.68559-.22918.22627-1.67707,1.21775-2.28401,1.75088-.68559.3797-.38164,1.29155-.83805,1.29155-.83805-.15052-1.52267-1.59841-2.35975-1.67416-.68268,0-1.52073.45641-1.90042.76134-.68559-.15247-1.29349-.76134-1.21775-.91186z" fill-rule="evenodd" stroke="#000" stroke-miterlimit="10" stroke-width=".03496"/>
 <path d="m40.75146,335.43583c0-.2282.68559-.83805 1.7499-.99148 .91477-.3797 3.42698-.98857 4.64278-.91186 1.142-.07574 1.98005.15247 2.20729.68559-.38067.22627-1.75088,1.21775-2.35781,1.75088-.76231.3797-.22918,1.29155-.76231,1.29155-.76133-.15052-1.67513-1.59841-2.43647-1.67416-.76036,0-1.36827.45641-1.82565.76134-.68462-.15247-1.29252-.76134-1.21775-.91186z" fill-rule="evenodd" stroke="#000" stroke-miterlimit="10" stroke-width=".03496"/>
 <path d="m39.306 338.1c0 0.07575 0.07575 0.98954 0.53216 2.4336 0.30492 0.99148 1.3702 3.3483 1.446 4.7185-0.30395 1.2954-1.9024 3.5008-2.4355 3.6513-0.76036-0.07284-1.4469-2.8142-1.2178-3.2716 0.07672-0.30298 2.1315 1.143 2.3598 0.53313 0.22724-0.91185-1.3712-4.4894-1.2935-5.7819-0.07769-1.3712 0.22821-2.5112 0.60887-2.283z" fill-rule="evenodd" stroke="#000" stroke-miterlimit="10" stroke-width=".03496"/>
 <path d="m33.448 348.14c-0.15343-0.53215 3.5756 3.3483 5.9343 3.425 2.2063-0.22918 6.6966-3.8814 6.9996-3.5775-0.22626 0.3797-4.4874 5.4022-6.618 5.6314-2.3617-0.07575-6.316-5.3245-6.316-5.4789z" fill-rule="evenodd" stroke="#000" stroke-miterlimit="10" stroke-width=".03496"/>
 <path d="m25.076 334.67c-0.76036-1.6751-0.83611-3.6542-0.53313-5.9343 0.30492-2.4365 0.61082-6.013 2.6647-7.7639 1.8266-1.6742 5.7071-2.1296 8.7505-2.586 3.0453-1.0653 6.011-2.284 8.903-1.2945 2.586 0.99149 4.6418 5.0225 6.4665 8.297 1.7509 3.2706 3.2745 6.619 4.2641 10.88 2.587-2.284 4.4126-4.4903 5.7828-6.6199 1.3692-2.4365 2.2811-5.2517 2.1306-6.3927-0.38261-1.0653-1.7509-1.0653-4.1106 0-0.60596-6.6966-1.2158-10.654-2.1296-12.175s-1.8247-0.60984-3.0424 3.0453c-6.8491-4.7952-10.959-7.4589-12.633-7.6881-1.6751-0.45641-0.60887 1.5236 2.8919 5.6314-10.121-2.586-15.905-3.6513-18.188-3.4988-2.284 0-0.60693 1.5207 5.0244 4.2612-6.317 1.0653-9.8935 1.7499-11.034 2.6627-1.0663 0.6079 0.30492 1.4469 4.4126 1.9024-4.1067 3.5008-6.2373 6.011-6.6966 7.2288-0.60693 1.142 0.76036 1.2945 3.8067 0.15246-3.7309 4.9467-5.1759 7.9124-4.6428 9.7391 0.45544 1.7499 3.1959 1.5207 7.9124 0.15246z" fill-rule="evenodd" stroke="#000" stroke-miterlimit="10" stroke-width=".03496"/>
 <path d="m100.87 399.35c0.45641 0.60985-0.68365 1.6742-0.15052 4.1106 0.4535 2.4355 1.3673 8.4456 2.4336 10.121 0.98954 1.2935 2.1296 1.5207 3.1192-1.3712 0.45835-3.1182 0.83902-10.348 1.1439-16.131 0.53216-5.7838 0.75939-11.873 0.9876-18.568-0.22724-6.9996-1.8256-17.197-1.5188-23.285 0.30298-6.4675 2.89-11.109 3.0424-14.534-0.30492-3.4241-2.284-4.1097-3.5756-6.4694-1.2177-2.5103-2.8152-6.6199-4.1864-8.5204-1.6742-2.2073-3.0424-2.3598-5.3255-3.6542-2.6647-1.3683-6.6209-4.87-9.5128-4.3369-2.9676 0.53215-3.8834 4.1864-7.7639 6.8491-4.1077 2.3598-12.935 5.1749-15.905 7.5328-3.1191 2.2063-3.1191 2.0558-2.3568 5.7071 0.53313 3.5008 4.3369 10.121 5.8576 15.447 1.2187 5.0234 2.5889 7.3813 2.0568 15.904-0.76231 8.7505-5.5585 29.524-5.5585 35.31-0.07283 5.174 4.4923-3.425 5.7858-2.8929 1.142 0.53216 1.445 3.4998 1.7489 6.5432 0 2.7414-1.142 8.6757-0.22529 10.73 0.68462 1.9033 4.032 2.1306 5.6314 0.98954 1.5974-1.2925 3.5746-3.2726 3.8805-8.2951-0.07672-5.4022-1.5227-12.403-2.8929-22.143-1.4469-9.8168-3.9572-27.014-4.871-35.461-0.9138-8.598-2.3607-10.957-0.22723-14.991 2.0529-4.3369 8.4456-8.903 12.099-9.8925 3.4998-1.0653 5.2497 0.98954 8.1426 4.4136 2.5103 3.3483 6.314 10.424 7.3055 15.903 0.60596 5.3284-0.38067 7.7639-2.0558 15.829-1.8256 7.9144-6.0887 23.362-7.8357 31.124-1.98 7.456-2.8938 11.794-2.4365 13.849 0.30395 1.6751 3.4221-0.98858 5.2497-2.7385 1.8266-2.0558 3.6532-6.7734 5.174-7.9911 1.2945-1.3683 2.2073 0.00195 2.7394 0.9138z" fill="#c2c200" fill-rule="evenodd" stroke="#000" stroke-miterlimit="10" stroke-width=".03496"/>
 <path d="m230.84 482.53c-0.91282-7.3055-1.5984-12.86-2.6637-16.667-1.2168-3.9543-0.99051-5.8576-3.4231-6.5432-2.6647-0.83611-9.3623 2.2063-11.568 1.8276-2.4345-0.83902-4.1854-2.5132-1.9771-5.0225 2.2063-2.8162 11.414-8.8272 15.599-10.122 3.9562-1.2177 7.5347-0.22917 8.9787 2.9686 1.142 2.8909-1.5974 11.337-0.83514 15.067 0.98954 3.5756 2.7394 5.4789 6.0868 6.0101 1.2935-7.5337 4.87-13.013 9.8925-17.047 4.9467-4.1844 14.23-6.6966 20.851-6.6966 6.4675-0.15052 14.076 2.5122 18.415 6.2402 4.1077 3.5008 4.9467 10.578 6.9239 15.372 1.9033 4.6399 3.5775 8.903 4.7176 12.783-3.5008-1.2187-5.4022-1.2187-6.316 0-0.75939 1.142 1.142 4.1854 1.2945 7.0763 0 2.588-0.2282 7.2288-1.5984 9.2079-1.9033 1.5984-6.317 2.2063-8.2174 1.8276-1.9033-0.3059-2.6647-1.6751-2.5889-3.8067-1.9771 1.446-3.8038 2.3588-5.7838 2.7394-2.283 0.22723-5.173 1.3692-6.315-0.98954-1.2168-2.6637-1.446-7.1531-0.68462-14.079l-13.317-1.141c-0.45641 4.9477-1.2178 8.4456-2.283 10.805-1.0653 1.98-2.6627 2.587-4.4903 2.7394-2.2054 0.15246-6.1635-0.53216-7.458-1.2187-1.445-1.0643-1.5984-2.1296-0.76036-4.03-1.5227 1.8247-3.1201 2.89-5.0972 3.1959-2.0558 0.3797-5.6314-0.30589-6.6219-1.7509-1.2935-1.8266-1.446-4.6408-0.76037-8.7486z" fill-rule="evenodd" stroke="#000" stroke-miterlimit="10" stroke-width=".03496"/>
 <path d="m240.5 471.8c-2.4355-0.45642-4.2631-1.7509-5.4818-3.5785-1.3683-1.9771-1.9004-5.477-1.9004-7.8367-0.07672-2.5093 1.445-4.9467 1.3683-6.9996-0.37969-2.284-1.9004-5.4789-3.4231-6.0878-1.7489-0.53216-3.9552 0-6.9248 1.9004-3.3483 1.5984-10.349 6.011-11.567 7.6862-1.0663 1.2178 2.283 1.2935 4.7185 1.3702 2.3588-0.22918 5.8596-0.91282 8.1436-0.60887 1.8237 0.37969 1.8237 0.53216 3.1949 3.4231 1.141 2.8929 2.8152 9.3604 3.8047 13.241 0.68462 3.5008 0.76133 6.2402 0.83708 8.5223-0.15246 2.1296-1.0672 3.3483-0.68462 4.87 0.22626 1.3712 1.6742 2.9696 2.8919 3.6542 0.91185 0.15246 1.9781-0.07575 3.4998-0.68462 1.5227-0.53313 3.1968-1.5984 5.3264-2.8929-0.30492 2.4355-0.07574 4.0329 1.2954 5.0992 0.91088 0.68462 4.5632 0.83708 6.0101 0.45544 1.444-0.22626 2.2053-0.68268 3.1949-2.283 0.76134-1.8256 1.5217-4.87 1.9771-8.8272-4.1834-1.5974-7.6085-3.3474-10.271-4.9458-2.8142-1.7489-4.7185-3.5765-6.0101-5.477z" fill="#008040" fill-rule="evenodd" stroke="#000" stroke-miterlimit="10" stroke-width=".03496"/>
 <path d="m273.83 482.83c-0.76133 3.425-0.98857 6.3927-0.38067 8.6 0.22627 2.1296 1.2925 4.4126 3.1959 4.7923 1.8276 0.22918 4.7185-0.76134 8.3698-2.9667 0.07672 1.9781 0.68462 3.4998 2.1306 3.9552 1.141 0.60887 4.5661 0.15246 5.8605-0.75939 1.3683-1.141 1.9771-3.1211 2.1296-5.6314 0-2.7385-0.45738-6.0101-1.6742-10.121-5.4022 0.68559-9.741 1.2187-13.013 1.5984s-5.477 0.45641-6.619 0.53216z" fill="#008040" fill-rule="evenodd" stroke="#000" stroke-miterlimit="10" stroke-width=".03496"/>
 <path d="m298.72 477.89c-1.2168 0.3797-3.5765 0.91089-7.9134 1.2935-4.5651 0.37969-11.338 0.75939-17.425 0.83611-6.317-0.15247-13.545-0.22724-18.721-1.445-5.172-1.5984-8.9787-3.6542-11.717-7.0025 1.7509-5.0215 3.8805-8.9797 6.3927-12.174 2.2054-3.1191 4.2612-5.3284 8.2164-6.9258 3.9582-2.1306 10.351-4.3369 15.068-4.2621 4.5651 0 8.6757 3.0463 11.718 5.0225 2.4355 1.6751 2.4355 1.6751 4.7176 5.8605 2.3598 4.1854 5.4779 10.349 9.6633 18.796z" fill="#0f0" fill-rule="evenodd" stroke="#000" stroke-miterlimit="10" stroke-width=".03496"/>
 <path d="m247.88 457.26 9.742 7.5328 1.2935 15.296 1.9771 0.07672-0.91088-13.85 11.109-8.2193 8.7505 8.5233 1.2935 13.621 2.6627 0.60888-1.3683-14.764 8.7505-5.0972-0.98954-2.4374-9.74 5.2517-7.6852-7.761 2.6618-8.1436-4.2602 0.15246-0.76231 7.0783-10.653 7.8367-9.0554-6.9248-2.8132 1.2178h-0.00291v0.00194z" fill-rule="evenodd" stroke="#000" stroke-miterlimit="10" stroke-width=".03496"/>
 <path d="m228.86 450.34c-0.98857-0.30395-5.0963 1.143-5.3255 1.9801-0.22821 0.53215 3.2726 1.5984 4.3379 1.445 0.76036-0.60887 1.6722-3.1182 0.9876-3.425z" fill-rule="evenodd" stroke="#000" stroke-miterlimit="10" stroke-width=".03496"/>
 <path d="m286.54 336.73c0.53216 0.07575 1.142 0.53216 1.8276 1.3702 0.45544 0.7594 1.3712 1.9014 1.9033 3.4241 2.1296-0.30492 4.4126-0.07575 6.5432 0.68365s4.1097 1.9024 6.2402 3.729c0.75939-1.2935 1.5984-1.9024 2.8162-2.4345 0.98857-0.60985 2.283-0.53313 3.8805-0.38067 0.45544 0.83611 0.07478 1.9771-0.5341 3.728-0.76133 1.5207-2.0558 3.6542-3.8805 6.0878 0.60888 4.1096 0.15149 7.0025-1.0643 8.9797-1.2945 1.8266-3.6542 2.7385-6.7734 2.4355-0.38261 3.2716-0.60887 5.7071-0.68559 8.1416-0.15246 2.1296-0.15246 3.5785-0.30395 5.4789-0.38261 1.9033-1.0682 3.4241-2.0568 5.4041 2.1315 6.1635 3.8805 10.805 5.2517 14.533 1.142 3.6532 1.6751 4.7166 2.2063 6.9996 0.45738 1.8276 0.7623 3.6542 0.91185 4.8729 1.9043 0.45641 2.9686 0.75842 3.8047 1.5207 0.60985 0.45641 0.99149 1.5984 0.30493 2.284-0.98955 0.76133-4.0329 1.142-5.3264 1.444-1.446 0-1.2935 1.141-2.4345-1.5207-1.2945-2.8162-3.5775-11.49-4.7952-15.447-1.5207-4.2631-2.3607-7.3822-3.3483-9.6643-0.98954-2.2063-1.8256-3.5765-2.5103-3.8038-1.3702 0.45545-2.1296 1.2916-2.5889 2.5103-0.68268 1.0643-1.0653 2.5122-0.30298 4.6418 0.60887 1.9771 3.9562 5.1749 4.7923 7.8377 0.68656 2.5103 1.5984 5.2507-0.14955 7.3822-2.0558 1.9014-7.9911 4.0329-10.426 4.0329-2.4345-0.45933-4.1854-3.8824-4.0349-5.0244-0.07283-1.0663 2.8162-1.5207 3.9582-1.3683 0.99149 0.15246 1.141 2.2054 2.5122 2.3598 0.91088 0 3.728-0.68559 4.3369-2.3598 0.30492-2.0539-0.22627-5.6314-1.2945-8.0678-1.1391-2.4336-4.2611-2.9667-4.6399-5.4022-0.45544-2.6627 0.45641-5.8605 2.4365-9.8925-1.6761 1.9014-4.4923 3.4998-9.0564 4.7933-4.6418 1.2954-10.502 2.284-17.883 2.9696 0.30395 0.98857 0 2.5093-0.60887 4.5651-0.83708 2.0538-3.9562 4.1844-3.8038 7.2288 0.14954 2.9667 2.3578 7.761 4.2611 9.9682 1.6751 1.9014 4.4894 1.142 5.7828 2.1306 0.91282 0.98857 1.9781 2.2063 0.83611 3.0444-1.141 0.45642-3.728 0.60888-7.761 0.15149-0.53216-0.68364-1.5984-1.9781-3.1959-3.5765-1.7509-1.9033-5.0982-3.8047-6.5452-6.8491-1.5207-3.1191-2.1296-6.9258-2.1296-11.718-1.6742 1.444-4.1844 2.586-6.9229 3.4241-3.0463 0.68462-7.8406 0-10.274 1.445-2.4365 1.5236-4.3369 4.3359-4.869 6.6966-0.60984 2.0548-0.68656 4.1097 0.60596 5.8605 1.9033 0.15246 2.9686 0.98857 3.5008 1.6732 0.30492 0.91283 0.07574 1.6761-0.98955 3.1192-3.0453 0.15246-5.0225-0.22627-6.2402-0.83514-1.3683-0.6079-0.98857-1.4469-0.91283-3.3474 0-2.284 0.68656-7.5347 1.2187-9.8935 0.45641-2.4345 0.45641-4.1077 1.748-5.0225 1.142-1.2158 3.5785-0.76037 5.5585-2.4336 1.8237-2.0558 4.7933-4.4903 6.0101-8.7534 0.98954-4.4894 1.5207-12.783 0.75939-16.664-1.0663-4.0329-1.2158-4.2602-5.4022-7.1521-4.3369-3.1191-14.763-7.153-18.948-10.655-4.2612-3.9562-5.5546-7.6085-6.2412-10.956-0.98857-3.5008 0.30589-7.9911 1.2187-9.0554 0.68462-1.142 2.0529-0.22918 3.5008 2.1296 1.141 1.9033 1.2168 7.9144 4.3369 11.034 2.8929 2.9686 9.5876 6.316 13.621 8.2931 3.6532 1.8276 6.7724 1.7509 9.3594 4.1873 2.587 2.3588 4.6408 6.011 6.1655 10.654 6.316 0.15246 11.641 0 16.285-0.45641s7.9134-1.2945 11.263-2.5122c3.1191-1.7509 5.0215-5.175 7.761-6.4675 2.4326-1.2945 5.0225-1.8266 7.456-1.2945-1.2925-1.7499-2.2063-3.2706-2.4336-4.869-0.30492-1.8266 0.07672-3.1988 0.83514-4.4146 0.68462-1.1401 1.9033-1.9791 3.6542-2.2054-0.22918-3.0453-0.15247-5.2516 0.22626-6.6219 0.15537-1.5217 0.99148-2.1306 1.6761-2.1306z" fill-rule="evenodd" stroke="#000" stroke-miterlimit="10" stroke-width=".03496"/>
 <path d="m303.05 347.08c0.30395-0.76134 1.2925-1.3712 2.1296-1.8276 0.76134-0.45642 2.2063-0.76134 3.5008-0.91186-0.30492 1.5207-0.76133 2.7394-1.3712 3.9582-0.60887 1.1401-1.8256 2.283-2.8142 3.1172 0.60888 3.1959 0.68462 5.7848 0.22918 7.7629-0.5341 1.7509-1.5984 2.585-2.8929 3.4231-1.2935 0.60985-3.1191 0.83708-5.174 0.68559 0 3.5756-0.15052 6.0878-0.15052 8.1416-0.30589 1.6742-0.38261 2.4355-0.5341 3.4998 0 1.0662-0.07477 1.9043-0.22723 3.425-0.38261 1.445-1.3702 3.0424-2.3598 5.0992 0.91185 1.5198 1.7509 3.727 2.8142 6.3131 0.98954 2.5889 2.1296 6.4694 3.122 9.2856 0.68365 2.4365 0.98857 3.6523 1.5207 5.7081 0.38067 1.748 0.83514 3.5756 1.3692 5.4789 1.141 0.15247 1.9781 0.3797 2.8142 0.98955 0.60985 0.53215 1.4469 1.141 1.6742 1.8256 0.15343 0.30395-0.22626 0.60984-0.83417 0.60984-0.68656-1.0653-1.0662-1.2187-1.142-1.2945-0.30589-0.07672 0.07575 0.38066 0.30298 1.3712-0.98857-0.99149-1.5984-1.0682-1.8247-1.0682s-0.07574 0.5341 0.45641 1.5994l-3.0444 0.07672c-0.91283-2.4365-1.6751-5.2507-2.587-8.4466-1.141-3.6542-2.0548-8.4475-3.0444-11.415-0.91282-3.1191-1.7509-4.4136-2.5103-6.2412-1.0653-1.7509-2.5122-3.3483-4.0339-4.4894-1.5207 0.22918-2.3598 0.9138-3.1211 1.7509-0.91185 0.76133-1.2916 1.9771-1.1391 3.3483 0 1.141 0.91185 3.0444 1.8247 4.4894 0.83709 1.2945 1.9033 2.3598 2.8919 4.3359 0.91477 1.8276 2.1306 4.9467 1.9033 7.0025-0.53216 1.7509-3.7309 2.9667-5.174 3.9572-1.8276 0.83611-3.5008 1.445-4.7195 1.5207-1.141 0.15246-1.8247-0.22918-2.3568-0.83708-0.7623-0.68365-1.4469-1.9024-2.0558-3.3483 0.45642 0.45835 0.83708 0.53215 1.141 0.53215 0.15247-0.14954 0.30493-0.68364 0.15247-1.2916 0.38066 0.53313 0.7623 0.68559 0.8361 0.7594 0.15247-0.07381 0-0.45642-0.14954-1.1401 0.53215-0.30493 0.98857-0.15247 1.3683 0.15051 0.38261 0.22918 0.30493 1.2187 0.99052 1.7509 0.45641 0.30492 1.0653 0.83708 2.1306 0.76134 0.98857-0.22821 3.3474-1.0653 4.1844-1.9024 0.60887-0.98954 0.38164-2.3598 0.15149-3.8057-0.30298-1.5984-0.76134-4.4894-1.3702-5.7828-0.75939-1.5207-2.2054-2.1306-2.89-2.9667-0.83708-0.99149-1.5984-1.7509-1.6742-2.8929-0.15246-1.5227 0.38067-3.1211 0.98955-4.7952 0.53215-1.7509 0.91088-3.0434 1.7509-4.7166-0.5341 0.30395-1.3712 0.30395-2.5122 0-1.2187-0.38261-2.7394-1.0653-4.567-2.0558 0.60887 0.76133 1.4479 1.7509 2.2063 2.1325 0.7623 0.6079 1.6742 0.6079 2.7394 0.83514-1.9772 0.98857-3.8805 1.9791-5.7061 2.6627-2.0548 0.68462-3.9572 1.2945-6.012 1.8266-2.2073 0.45641-4.1854 0.76134-6.8481 1.2187-3.1211 0.22627-7.9134 0.60887-10.273 0.83514-2.283 0.15246-3.1958 0.15246-3.0444 0.30492 1.0672-1.446 1.7509-2.9686 2.3598-4.87 0.53215-2.0548 0.83708-4.7952 0.6079-6.4684-0.75939-1.6751-3.2716-3.3483-3.4241-3.2726-0.14955-0.07574 2.2073 1.2954 2.6647 2.8929 0.15149 1.3692 0.07477 3.9572-0.53216 6.011-0.68462 1.8266-1.2935 3.5775-3.0444 5.5546-2.2073 1.9033-5.5556 4.5661-8.2951 6.2412-2.8142 1.3702-5.3264 1.8256-7.5347 2.5093-2.5093 0.30492-4.4126-0.14955-6.0101 0.38261-1.7509 0.15246-2.587 0.98954-3.4241 1.9004-1.0662 1.0692-1.8276 2.2092-2.283 4.0329-0.76036 1.5236-1.143 3.8057-1.143 5.4041 0 1.445 0.38261 2.3588 1.143 3.0434 0.98954 0.15246 1.9033 0.15246 2.4355 0.60887 0.45641 0.30395 0.75939 0.76134 0.91185 1.3712 0.15343 0.45545-0.30395 1.0643-0.53313 1.8237l-1.2935 0.22918c-0.07478-0.98954-0.30395-1.444-0.3797-1.3712-0.30395 0-0.45738 0.30686-0.7623 1.2187-0.15052-0.98954-0.15052-1.445-0.30396-1.3683s-0.45738 0.22724-0.60887 1.2916c-0.60985 0-1.142-0.07574-1.5984-0.22626-0.53312-0.22821-1.2945-0.15246-1.3702-1.2178-0.15052-1.2935-0.15052-3.728 0.30492-6.1645 0.45641-2.8152 0.75939-7.9134 1.7509-9.74 0.60888-1.8256 1.9004-0.98954 3.0424-1.2925 0.99149-0.38261 2.4365-1.0653 3.73-1.7509 1.142-0.9138 2.2073-1.4469 3.4998-3.9562 1.2178-2.8929 2.9686-8.9797 3.8057-12.708 0.38163-3.9572 0.15149-7.9134-0.38067-10.427-0.83611-2.586-0.98954-3.3474-3.6532-5.1749-2.8919-2.2054-9.1312-4.87-12.556-6.8462-3.5756-2.1315-6.0101-3.5785-8.1416-5.2517-2.1296-1.8276-3.5785-3.425-4.6418-5.4022-1.3712-2.3598-2.1296-5.175-2.283-7.3046-0.07671-2.2063 0.53216-5.4032 1.5207-5.1749 0.76133 0.30395 2.283 4.2611 3.3493 6.6199 0.83611 1.9033 0.53216 4.0329 2.3578 5.7838 1.5984 1.5974 4.872 3.2716 8.0678 5.0225 2.8919 1.7509 7.8367 3.4998 10.424 4.9467 2.5889 1.2168 3.6532 0.83708 5.2507 2.3588 1.3683 1.2177 2.0548 3.4241 3.1959 5.4022 0.98955 1.8266 1.9771 4.4894 2.6627 5.6314 0.45739 0.83708 0.53216 0.91088 0.22918-0.07672 5.3245 0.45641 9.9673 0.60888 14.303 0.38261s8.296-0.83902 11.415-1.8276c3.0463-1.0653 4.9467-2.9686 6.7734-4.3369 1.6751-1.4469 1.7509-3.1211 3.5756-4.0339 1.9033-0.83708 4.2631-1.2168 7.3055-1.141 0.2282 0.37969 0.6079 0.91185 1.142 1.6751 0.60887 0.76133 1.2935 2.0529 2.1296 2.7385 0.83708 0.68462 1.6761 1.142 2.7404 1.3692-0.68462-0.45738-1.3692-1.2168-2.2054-2.1306-0.83805-0.98954-2.0558-2.4345-2.7394-3.728-0.60887-1.3712-2.1315-2.8929-2.2073-4.2611-0.07478-1.3702-0.5341-3.5785 0.07574-4.9487s3.0444-1.445 4.4894-3.0424c-0.37969-0.22918-0.53215-2.2063-0.45641-3.1211s0.3797-2.1306 0.98857-3.6523c0.99148 0.91186 1.7509 1.6742 2.2073 2.4365 0.53216 0.75939 0.68462 1.444 0.68462 2.0529 1.98 0.38067 3.6532-0.37969 5.0215 0.07672 1.2954 0.45641 3.729 0.83611 4.7195 1.2945 0.83611 0.53216 2.8152 2.5093 3.5756 3.1192l0.30784-0.45447z" fill="#616161" fill-rule="evenodd" stroke="#000" stroke-miterlimit="10" stroke-width=".03496"/>
 <path d="m298.18177,351.18595c-.60693.83902-1.74894,1.142-2.43355.68559-.76134-.53313-.83806-1.67416-.22918-2.51027 .60887-.91379 1.67416-1.142 2.43549-.68559 .68656.53216.83611,1.67416.22724,2.51027z" fill-rule="evenodd" stroke="#000" stroke-miterlimit="10" stroke-width=".03496"/>
 <path d="m293.5419,349.51276c-.60985.91283-1.67416,1.14006-2.4355.68462-.68656-.5341-.83611-1.67416-.22723-2.51124s1.67416-1.14006 2.43355-.68462c.68559.53313.83805,1.67416.22918,2.51124z" fill-rule="evenodd" stroke="#000" stroke-miterlimit="10" stroke-width=".03496"/>
 <path d="m300.7707,355.75202c-.98954.83805-1.75088,1.90334-2.89288,2.35975-1.36827.68462-2.66273.76134-3.5775,1.06626-.98954-.15343-1.67222-.68656-2.05386-.98954-.53216-.53313-.91282-.91283-.83514-1.4479-.07768-.53216.14955-1.44304.68268-2.1296 .99051-.3797 1.59939-.68365 1.82662-.91088 0-.38067-.60887-.68657-.98954-.91283-.68462-.38261-1.21678-1.37118-1.59841-.9138-.22724.15344-.30396.9138.07768,2.28304-.53313.91282-.83902,1.21775-1.52364,1.5217-.60887,0-1.59841-.15149-2.1296-.45642-.91282-.45738-1.44498-.91185-1.59841-1.97811-.07672-1.37021.83805-4.48935.98954-4.94479 0-.45933-1.21872,1.36632-1.29447,2.5093-.30395.98954-.45641,2.43549-.15149,3.50078 .15149.68462.76037,1.21678 1.52267,1.59744 .76134.22918 1.90237.45642 3.4231.38067 .07671.45544.22917,1.06529.45738,1.52364 0,.45544.45544.83417.53216,1.14103-.45641.68268-.75939,1.29155-1.21872,1.52073-.60596.15246-1.29155.22724-1.74991-.07671-.45641-.60888-1.06528-2.81423-.98954-2.81423-.22723,0 0,2.4355.38261,3.19392 .30395.60985 1.29252.68656 2.05386.5341 .53216-.30395 1.52073-.83611 2.1296-1.90237 .9138.38067 1.75088.68657 2.81519.60985 .83805-.07575 2.43647-.45835 3.34832-1.142 .99052-.84097 1.67514-1.67611 2.3617-3.12303z" fill-rule="evenodd" stroke="#000" stroke-miterlimit="10" stroke-width=".03496"/>
 <path d="m288.44 352.33c-1.9791-2.0529-4.1087-3.9572-6.0868-5.7052-2.0548-1.7509-4.2631-3.6542-6.3179-5.0992 1.5984 1.2925 3.0453 2.8929 5.1759 4.7943 1.7509 1.6742 4.1844 3.6532 6.4665 5.9343 0.23015 0 0.45739 0 0.76231 0.07574z" fill-rule="evenodd" stroke="#000" stroke-miterlimit="10" stroke-width=".03496"/>
 <path d="m287.83 352.79c-2.283-1.7499-4.4136-3.2726-6.6966-4.8729-2.3598-1.5965-4.6418-3.0414-6.8491-4.3359 1.5984 1.2178 3.4998 2.5103 5.7081 4.1864 2.1296 1.5217 4.4126 3.1959 7.1521 5.0225h0.68559z" fill-rule="evenodd" stroke="#000" stroke-miterlimit="10" stroke-width=".03496"/>
 <path d="m287.83 353.47c-2.8929-1.2935-5.7071-2.3578-8.4466-3.4998-2.8919-1.141-5.6314-2.1315-8.5223-2.9686 2.0558 0.76134 4.5651 1.9771 7.2288 3.0434 2.7404 1.0672 5.6314 2.283 8.9777 3.6542 0.22918-0.07671 0.45933-0.15246 0.76231-0.22917z" fill-rule="evenodd" stroke="#000" stroke-miterlimit="10" stroke-width=".03496"/>
 <path d="m295.9 356.74c2.587 0.99148 5.0225 2.2092 7.6085 3.3512 2.4355 1.1391 4.7176 2.5093 7.1521 3.8038-1.9771-0.83708-4.1068-1.6742-6.3898-2.8152-2.5132-1.141-5.1759-2.284-7.9911-3.73-0.07768-0.15052-0.23014-0.37969-0.37969-0.60984z" fill-rule="evenodd" stroke="#000" stroke-miterlimit="10" stroke-width=".03496"/>
 <path d="m295.75 357.43c2.4336 1.2935 4.7933 2.8142 7.0754 4.2631 2.284 1.444 4.4894 3.1191 6.6199 4.7146-1.6742-1.141-3.9562-2.3578-6.011-3.6513-2.4355-1.446-4.6418-2.8919-7.457-4.6418l-0.22723-0.68462z" fill-rule="evenodd" stroke="#000" stroke-miterlimit="10" stroke-width=".03496"/>
 <path d="m295.06 357.73c2.3598 1.9771 4.3369 4.1068 6.5442 6.3898 2.0548 2.1306 3.9562 4.4903 6.012 6.7734-1.5227-1.6742-3.6532-3.5008-5.5556-5.4789-2.1315-2.1296-4.4156-4.3369-6.8491-6.9258 9.7e-4 -0.22627-0.07478-0.45642-0.15149-0.75843z" fill-rule="evenodd" stroke="#000" stroke-miterlimit="10" stroke-width=".03496"/>
 <path d="m255.11 389.01c0.3797 0.75842 0.45544 1.5974 0.22626 2.8152-0.37969 1.0653-1.0653 2.283-1.7499 3.6513-0.83611 0.98954-2.1306 2.3607-2.4345 3.8038-0.45835 1.2187 0 3.1988 0.53216 4.7195 0.3797 1.5984 1.2158 3.1958 1.9024 4.4894 0.45544 0.98954 0.76133 1.8266 1.5227 2.5122 0.60693 0.53313 1.9004 0.98954 2.9667 1.3683 0.83708 0 2.1296 0.45738 2.9676 0.76133 0.76134 0.38067 1.142 1.0653 1.445 2.0539l-1.5207 0.68559c-0.53313-1.2187-0.98857-1.8276-1.0653-1.8276-0.22918-0.15246-0.30492 0.53216-0.22918 1.7509-0.30395-1.142-0.98857-1.5984-1.2148-1.6742-0.45933-0.07672-0.83805 0.45544-1.144 1.5984l-1.8256-0.15344c-1.0653-1.0643-2.2063-2.5103-3.728-4.03-1.6761-1.9033-4.1097-4.2631-5.2517-5.8605-1.2178-1.6742-1.141-1.9781-1.5198-3.8814-0.53313-2.2054-0.60984-4.9448-0.83902-8.5223 1.98-0.75939 3.6532-1.5984 4.7195-2.2053 1.0643-0.76134 1.5207-1.3692 1.6732-1.8276l4.567-0.22723z" fill="#616161" fill-rule="evenodd" stroke="#000" stroke-miterlimit="10" stroke-width=".03496"/>
</svg>
