<?xml version="1.0" encoding="UTF-8"?>
<svg viewBox="0 0 405 617" xmlns="http://www.w3.org/2000/svg">
 <defs>
  <filter id="a">
   <feGaussianBlur stdDeviation="12.00982"/>
  </filter>
  <linearGradient id="d" x2="0" y1="588.06" y2="13.507" gradientUnits="userSpaceOnUse">
   <stop stop-color="#1c832b" offset="0"/>
   <stop stop-color="#b8e296" offset="1"/>
  </linearGradient>
  <linearGradient id="c" x1="366.53" x2="312.15" y1="123.2" y2="29.01" gradientUnits="userSpaceOnUse">
   <stop stop-color="#1c832b" offset="0"/>
   <stop stop-color="#add920" offset="1"/>
  </linearGradient>
  <linearGradient id="b" x1="217.85" x2="143.22" y1="591.96" y2="462.71" gradientUnits="userSpaceOnUse">
   <stop stop-color="#1c832b" offset="0"/>
   <stop stop-color="#add920" offset="1"/>
  </linearGradient>
 </defs>
 <path d="m393.46 15.354v150.4c-93.662 89.605-141.22 222.27-141.22 397.21 0 11.336 0 24.538 1.438 38.674h-168.5v-14.136c0-141.48 51.856-260.95 152.7-360.28 10.055-9.601 20.105-19.335 30.16-29.068 6.221-6.133 12.445-12.267 18.829-18.399 4.307-3.467 8.613-7.868 17.231-14.002h-164.19v78.137h-120.95v-228.54l374.49-1e-3z" fill-rule="evenodd" filter="url(#a)" opacity=".5"/>
 <path d="m382.78 8.707v150.4c-93.662 89.605-141.22 222.27-141.22 397.21 0 11.336 0 24.538 1.438 38.674h-168.5v-14.136c0-141.48 51.856-260.95 152.7-360.28 10.055-9.601 20.105-19.335 30.16-29.068 6.221-6.133 12.445-12.267 18.829-18.399 4.307-3.467 8.613-7.868 17.231-14.002h-164.19v78.137h-120.95v-228.54l374.49-1e-3z" fill-rule="evenodd"/>
 <path d="m372.56 15.507c-0.316 47.602-0.797 95.338-1.273 143.07-93.666 89.605-145.04 215.88-145.04 390.82 0 11.466 0 24.668 1.437 38.666-47.389-0.268-94.78-0.666-142.33-1.063v-14.005c0-141.47 62.229-259.88 163.07-359.21 10.055-9.602 20.105-19.201 30.16-28.935 6.22-6.134 12.443-12.267 18.668-18.534 4.467-3.467 8.773-7.867 17.392-14.001-65.103-0.799-130.2-1.601-195.3-2.534v78.271l-102.12 2c-0.959-72.136-2.076-144.27-3.192-216.54l358.53 2.001z" fill="url(#d)" fill-rule="evenodd"/>
 <path d="m118.702,497.926c1.755-.804 3.829-1.469 6.222-1.469 2.076-.397 5.586-.795 8.138.405 2.394,1.193 5.904,3.067 6.86,5.599 .32,1.73-.639,5.202-2.233,6.801-1.755,1.599-4.307,2.265-6.382,2.532-2.394.13-5.105-1.201-7.499-2.532-2.872-1.736-5.426-4.138-8.297-7.205 .955-1.331 2.074-2.662 3.191-4.131z" fill-rule="evenodd" stroke="#000" stroke-miterlimit="10" stroke-width=".036"/>
 <path d="m120.297,498.193c3.032-.803 6.062-1.071 8.456-.803 2.235.138 4.469.803 6.064,2.004 1.437.934 3.51,2.662 3.67,4.666-.32,1.599-2.554,4.536-4.148,5.729-2.076.672-4.467.672-6.542,0-2.712-.934-5.904-3.733-7.659-4.797-1.755-1.331-2.712-2.401-2.872-3.197 .955-1.2 1.914-2.4 3.031-3.602z" fill="#ff0080" fill-rule="evenodd" stroke="#000" stroke-miterlimit="10" stroke-width=".036"/>
 <path d="m109.127,493.795c-1.277-1.338-2.233-2.937-2.872-4.803-1.437-1.997-1.595-4.797-1.117-6.8 .479-2.93 2.872-5.332 5.266-6.67 1.913-1.064 5.904-.528 8.297.534 2.074.536 3.511,2.8 4.307,4.667 .32,1.735-.158,4.138-1.435,6.67-1.755,2.401-3.51,4.933-7.021,8.13-1.754-.527-3.509-1.062-5.425-1.728z" fill-rule="evenodd" stroke="#000" stroke-miterlimit="10" stroke-width=".036"/>
 <path d="m109.127,492.326c-1.595-2.669-2.233-4.535-2.554-6.67-.318-2.264.32-3.863 1.277-5.331 .957-1.996 2.554-3.465 4.787-3.87 1.916-.398 5.583.803 7.339,2.134 1.277,1.339 1.755,2.938 1.437,5.339-.798,1.729-3.032,5.332-4.149,7.198-1.117,1.599-2.394,2.799-3.19,3.066-1.596-.534-3.191-1.199-4.947-1.866z" fill="#ff0080" fill-rule="evenodd" stroke="#000" stroke-miterlimit="10" stroke-width=".036"/>
 <path d="m108.649,497.658c-1.595.804-3.831,1.599-6.064,1.866-2.554.536-6.064.405-8.137.138-3.192-1.2-6.222-3.067-7.339-5.071-.958-2.134 0-5.461 1.595-6.93 1.277-1.599 3.51-3.067 6.062-2.938 2.235,0 4.787.138 7.659,1.866 2.872,1.606 5.426,3.335 8.936,6.67-.797,1.47-1.755,2.93-2.712,4.399z" fill-rule="evenodd" stroke="#000" stroke-miterlimit="10" stroke-width=".036"/>
 <path d="m107.054,497.391c-3.192.803-6.224,1.469-8.458,1.469-2.394-.268-4.627-.804-6.064-1.599-1.913-1.331-4.307-2.8-4.148-4.399-.158-2.271 1.597-4.933 3.51-6.004 1.277-1.201 3.989-1.201 6.382-.535 2.394.535 5.746,2.808 8.137,4.269 1.757,1.338 2.874,2.003 3.353,3.067-.799,1.199-1.755,2.401-2.712,3.732z" fill="#ff0080" fill-rule="evenodd" stroke="#000" stroke-miterlimit="10" stroke-width=".036"/>
 <path d="m109.926,502.461c0,1.6-.32,3.596-.959,5.462-.796,1.867-2.394,4.001-4.149,5.867-2.233,1.606-6.382,2.539-8.775,2.808-3.19-.139-5.105-3.336-6.382-4.537-1.117-2.003-1.117-4.138 0-5.866 .638-1.866 3.192-3.603 5.904-4.666 2.712-1.338 6.703-2.531 11.33-3.066 .956,1.329 1.912,2.66 3.031,3.998z" fill-rule="evenodd" stroke="#000" stroke-miterlimit="10" stroke-width=".036"/>
 <path d="m108.967,503.662c-.478,2.532-1.595,4.935-2.712,6.663-1.437,1.735-3.032,2.8-4.787,3.733-2.554.802-4.787,1.2-6.702.665-2.552-1.064-3.989-3.733-4.307-5.462-.16-1.736.318-3.732 2.712-4.934 2.075-1.469 5.744-3.205 8.458-3.733 2.233-.803 3.829-1.07 4.785-.803 .798,1.202 1.597,2.533 2.553,3.871z" fill="#ff0080" fill-rule="evenodd" stroke="#000" stroke-miterlimit="10" stroke-width=".036"/>
 <path d="m115.51,502.193c1.755.934 3.192,1.599 4.947,3.466 1.595,1.736 3.19,3.197 4.149,5.867 .318,2.532-.16,5.469-1.437,7.732-2.073,1.47-5.584,2.271-7.978,2.402-2.554-.268-4.787-1.599-6.064-2.938-1.437-1.866-2.073-3.863-1.915-6.532 0-2.8.798-6.265 2.394-9.867 1.915.001 3.831.001 5.904-.13z" fill-rule="evenodd" stroke="#000" stroke-miterlimit="10" stroke-width=".036"/>
 <path d="m116.148,503.525c2.712,1.468 4.149,3.732 5.584,5.331 1.119,1.605 1.597,3.335 1.437,5.202-.479,1.605-1.117,4-2.554,5.2-2.394.804-5.584.934-7.817.398-2.075-.934-3.352-2.395-3.831-4.398-.638-2.532-.318-5.867.32-8.001 0-1.997.957-3.466 1.595-3.863 1.756.001 3.511.001 5.266.131z" fill="#ff0080" fill-rule="evenodd" stroke="#000" stroke-miterlimit="10" stroke-width=".036"/>
 <path d="m115.828,494.858c-.158-1.865.32-3.465 1.437-5.331 .639-2.272 2.074-4.398 4.309-5.867 2.233-1.867 6.062-2.669 8.936-2.401 2.712.13 4.785,2.937 6.222,4.804 .478,1.729.957,3.862-.32,5.866-1.435,1.599-2.872,3.067-6.062,4.398-2.714,1.063-7.181,2.135-11.648,2.67-.959-1.339-1.915-2.67-2.874-4.139z" fill-rule="evenodd" stroke="#000" stroke-miterlimit="10" stroke-width=".036"/>
 <path d="m116.947,493.658c.638-2.8 1.435-4.796 3.03-6.533 1.277-1.866 2.714-3.067 4.947-3.602 2.076-.797 4.309-1.599 6.703-.398 1.755.933 3.35,3.465 4.146,5.599 .16,1.737-1.435,3.336-3.03,4.804-2.233,1.331-6.542,2.662-8.618,3.465-2.394.536-3.989.934-4.787.666-.796-1.332-1.595-2.663-2.391-4.001z" fill="#ff0080" fill-rule="evenodd" stroke="#000" stroke-miterlimit="10" stroke-width=".036"/>
 <path d="m112.69 492.34c4.668 0 8.456 2.627 8.456 5.867s-3.788 5.867-8.456 5.867-8.458-2.627-8.458-5.867 3.79-5.867 8.458-5.867" fill-rule="evenodd" stroke="#000" stroke-miterlimit="10" stroke-width=".036"/>
 <path d="m112.16 493.23c3.698 0 6.7 2.033 6.7 4.537s-3.002 4.528-6.7 4.528-6.703-2.033-6.703-4.528c0-2.503 3.004-4.537 6.703-4.537" fill="#ff0" fill-rule="evenodd" stroke="#000" stroke-miterlimit="10" stroke-width=".036"/>
 <path d="m119.658,541.663c2.074-1.338 4.309-1.468 7.341-1.866 3.19-.405 6.222-.665 9.732.666 3.032,1.063 6.7,3.731 7.977,6.531 .479,2.135-.796,5.998-2.552,8.001-2.075,1.997-4.787,2.532-7.501,3.067-2.872-.268-6.062-1.07-8.934-2.937-3.192-1.997-6.703-5.063-9.895-8.667l3.832-4.795z" fill-rule="evenodd" stroke="#000" stroke-miterlimit="10" stroke-width=".036"/>
 <path d="m121.574,541.931c3.668-.934 7.021-1.07 10.053-.934 3.03.131 4.785.934 7.021,2.396 1.755.933 3.989,3.472 4.307,5.606-.478,2.126-2.872,5.194-4.787,6.662-2.394.803-4.945,1.2-7.657.138-2.874-1.201-7.341-4.138-9.096-5.736-1.915-1.6-3.67-3.068-3.51-3.871 1.115-1.332 2.392-2.799 3.669-4.261z" fill="#ff0080" fill-rule="evenodd" stroke="#000" stroke-miterlimit="10" stroke-width=".036"/>
 <path d="m108.329,536.729c-1.755-1.338-2.712-3.733-3.511-5.736-1.117-2.402-2.073-5.6-1.117-8.001 .799-3.067 3.032-6.533 6.064-7.863 2.711-1.339 7.021-.666 9.892.535 2.394.795 4.309,3.197 5.105,5.599 .479,2.396-.318,4.528-1.755,7.864-1.913,2.937-4.627,6.004-8.138,9.737-2.071-.666-4.305-1.339-6.54-2.135z" fill-rule="evenodd" stroke="#000" stroke-miterlimit="10" stroke-width=".036"/>
 <path d="m108.329,534.993c-1.595-2.93-3.032-5.599-3.032-8.001-.318-2.401.16-4.665 1.437-6.264 1.117-2.005 3.032-4.399 5.744-4.667 2.076,0 7.021.536 8.776,2.662 1.597,1.605 1.916,3.335 1.597,6.272-.798,2.661-3.67,6.265-4.947,8.666-1.595,1.866-2.872,3.067-3.829,3.595-1.915-.664-3.831-1.46-5.746-2.263z" fill="#ff0080" fill-rule="evenodd" stroke="#000" stroke-miterlimit="10" stroke-width=".036"/>
 <path d="m107.851,541.258c-2.073.934-4.467,1.867-7.181,2.271-3.03.397-6.861.796-9.732.131-3.51-1.469-7.659-3.465-8.776-5.997-.957-2.532-.32-6.272 1.916-8.139 1.595-2.265 3.988-3.466 7.178-3.596 2.714-.138 5.746.268 9.096,2.265 3.032,1.599 7.021,4.268 10.691,8.001-.959,1.599-2.076,3.335-3.192,5.064z" fill-rule="evenodd" stroke="#000" stroke-miterlimit="10" stroke-width=".036"/>
 <path d="m105.777,540.997c-3.67.934-7.181,1.866-9.895,1.729-3.03-.268-5.264-.535-7.339-1.866-2.394-1.201-4.787-3.466-4.787-5.332-.318-2.401 1.915-5.736 4.148-6.938 1.916-1.331 4.467-1.729 7.659-.665 2.554.803 7.181,3.335 9.574,5.07 2.074,1.331 3.351,2.532 3.829,3.596-.955,1.47-2.072,2.938-3.189,4.406z" fill="#ff0080" fill-rule="evenodd" stroke="#000" stroke-miterlimit="10" stroke-width=".036"/>
 <path d="m109.288,547.124c.158,1.875-.48,4.14-1.277,6.272-1.437,2.265-2.394,4.796-4.787,7.067-3.192,1.462-7.341,3.597-10.531,3.328-3.51-.665-6.224-3.328-7.499-5.461-1.277-2.532-1.277-4.667 0-6.938 1.274-2.135 3.35-4.131 6.86-5.462 3.51-1.737 7.819-2.807 13.563-3.74 1.117,1.607 2.394,3.206 3.671,4.934z" fill-rule="evenodd" stroke="#000" stroke-miterlimit="10" stroke-width=".036"/>
 <path d="m108.171,548.463c-.799,3.335-1.916,5.6-3.353,7.863-1.435,2.005-3.51,3.473-5.583,4.405-2.714.934-5.586,1.194-7.979.797-2.711-1.469-4.627-4.131-5.105-6.402s.798-4.398 3.192-5.867c1.755-1.729 7.339-3.863 10.051-4.398 2.554-.796 4.469-1.331 5.746-1.063 .955,1.461 1.914,3.066 3.031,4.665z" fill="#ff0080" fill-rule="evenodd" stroke="#000" stroke-miterlimit="10" stroke-width=".036"/>
 <path d="m115.828,546.597c2.076.934 3.831,2.135 5.904,4.131 1.755,1.866 3.991,4 4.947,6.938 .478,2.395-.32,7.197-1.755,9.332-2.073,1.866-6.86,2.8-9.414,2.8-3.032,0-5.904-2.005-7.339-3.466-1.757-2.271-2.236-4.535-2.076-7.87s1.117-7.197 2.872-11.597c2.234-.001 4.47-.138 6.861-.268z" fill-rule="evenodd" stroke="#000" stroke-miterlimit="10" stroke-width=".036"/>
 <path d="m116.626,548.195c3.032,1.997 5.266,4.131 6.703,6.402 1.435,1.729 1.755,4.261 1.595,6.134-.318,1.73-1.117,4.797-3.032,6.128-2.234,1.07-7.181,1.07-9.254.535-2.554-1.063-3.831-2.8-4.467-5.201-.639-2.662-.32-7.198.318-9.462 .318-2.669.957-3.732 1.915-4.674 2.074.001 4.149.001 6.222.138z" fill="#ff0080" fill-rule="evenodd" stroke="#000" stroke-miterlimit="10" stroke-width=".036"/>
 <path d="m116.308,537.931c0-2.005.318-4.269 1.595-6.272 .957-2.531 2.073-5.331 5.105-6.931 2.554-2.003 7.341-3.465 10.691-2.937 3.032.405 5.426,3.335 7.181,5.736 .957,1.997.639,4.804-.32,6.931-1.277,1.866-3.668,3.603-7.178,5.201-3.511,1.338-8.298,2.402-13.724,3.204-1.116-1.605-2.233-3.204-3.35-4.932z" fill-rule="evenodd" stroke="#000" stroke-miterlimit="10" stroke-width=".036"/>
 <path d="m117.585,536.592c.636-3.465 2.073-5.729 3.668-7.863 1.277-1.866 3.192-3.603 5.746-4.138 2.073-1.063 5.744-1.599 7.977-.528 1.916,1.201 4.307,4.131 4.787,6.663-.32,2.003-1.277,3.732-3.51,5.736-2.554,1.201-7.819,3.197-10.213,4.001-2.711.795-4.627,1.063-5.744.795-.797-1.461-1.754-3.06-2.711-4.666z" fill="#ff0080" fill-rule="evenodd" stroke="#000" stroke-miterlimit="10" stroke-width=".036"/>
 <path d="m112.16 534.83c5.549 0 10.053 3.104 10.053 6.931s-4.504 6.937-10.053 6.937-10.053-3.11-10.053-6.937 4.503-6.931 10.053-6.931" fill-rule="evenodd" stroke="#000" stroke-miterlimit="10" stroke-width=".036"/>
 <path d="m112.16 536.3c4.315 0 7.819 2.453 7.819 5.47s-3.503 5.469-7.819 5.469-7.819-2.452-7.819-5.469 3.503-5.47 7.819-5.47" fill="#ff0" fill-rule="evenodd" stroke="#000" stroke-miterlimit="10" stroke-width=".036"/>
 <path d="m125.563,102.71c-.957-2.399-2.076-5.065-3.989-6.532-2.075-1.868-4.787-3.734-7.499-4-3.032-.667-6.384-.667-8.778.534-3.35.933-5.423,4-6.86,6.133-1.435,2 .478,4.4-.479,6.134-.957,1.199-3.032,1.732-5.586,1.599-.796-5.065-1.595-9.466-3.03-13.2-1.755-3.599-2.394-7.066-5.585-9.867-3.351-3.599-11.33-9.866-14.042-10.533-3.35-.934-2.872,2.533-3.51,5.199-.639,2.4-.318,5.333.318,9.334-3.03-1.867-6.86-4-10.21-4.934-3.51-1.065-7.819-2.399-11.648-2.532-1.915,5.999-2.394,10.933-2.075,15.866-.158,4.667-1.275,7.467 3.989,12.535 4.947,4.666 13.883,9.599 26.808,15.333-2.075,3.067-6.703,5.067-13.883,6.534-7.339,1.201-17.071,1.333-29.838.933 2.076,3.333 5.108,5.202 8.458,7.068 3.35,1.467 7.021,2.266 11.647,2.399-3.51,2.534-4.945,4.4-3.032,5.599 1.755,1.067 5.585,1.467 12.764,1.201-3.03,3.467-3.668,6.135-2.552,7.467s3.989,1.732 9.254,1.199l12.446-18c9.574-.134 16.435-1.601 22.339-4.934 5.105-3.601 7.021-10.935 10.691-14.801 3.35-4 6.86-6.532 10.531-8.133 2.551.134 4.787,0 6.7.134 1.437-.134 2.714-.401 3.192-.801-.798-1.732-1.755-3.333-2.872-4.267-1.116-1.2-2.553-2.265-3.669-2.667z" fill-rule="evenodd" stroke="#000" stroke-miterlimit="10" stroke-width=".036"/>
 <path d="m122.851,102.978c-.638.534-1.597,1.333-1.597,2.399-.158,1.067-.638,1.867-.158,3.467-3.671,1.467-6.385,3.732-8.778,5.733-2.233,2-3.668,4.134-4.945,6.933-1.755,2.4-3.51,6.133-5.904,8.667-3.192,2.399-7.181,3.734-11.33,5.067-3.988.934-9.254,1.333-14.041,1.201l-11.966,17.867c-2.554.399-3.991-.266-4.309-.934-.478-1.201-.798-2.533.799-4.534 1.117-2.267 7.021-6.934 6.7-7.334-.799-.533-7.819,3.601-10.531,4.668-3.67.666-6.86-.134-7.659-.933-.479-1.201.798-3.067 4.469-5.601-3.032.134-5.107.667-7.501.134-2.552-.534-4.149-1.067-6.062-2.134-1.597-1.067-3.51-2.666-4.469-4.267 12.446.132 21.86-.667 28.881-2.4 6.703-2 11.009-4.8 12.286-8.934-5.744-2.266-10.053-3.866-13.563-5.333-3.67-1.734-6.86-2.667-7.181-3.867-.796-1.467.638-2.667 3.67-4.134-4.627-.534-7.499-1.333-8.616-2.4-1.437-1.066-1.117-3.199.957-4.934-3.35-1.732-5.265-4.4-6.382-7.467-1.117-3.2-1.117-7.334 0-11.866 7.181,1.199 13.245,3.333 18.828,6.398 5.105,2.934 8.936,6.667 13.245,10.668 3.828,3.199 8.137,8.932 11.647,10.533 3.19,1.333 8.138-.132 9.893-1.333 1.595-1.601-.16-4.934.957-6.934 .32-2.266 2.076-4.934 3.989-6 2.075-1.733 4.787-1.867 8.137-1.867 2.714.134 5.268,1.333 7.659,3.067 1.598,1.47 2.554,3.603 2.875,6.404z" fill="#b87800" fill-rule="evenodd" stroke="#000" stroke-miterlimit="10" stroke-width=".036"/>
 <path d="m71.152,89.51c-1.437-1.599-2.554-3.467-2.714-5.599-.957-2.934-.639-8.001.958-8.535 1.595-.533 6.222,3.333 9.572,6.534 3.353,3.333 5.426,6.8 7.979,11.466 1.277,4 2.552,8.269 2.073,12.8-2.394-3.333-5.583-6.532-8.297-9.066-3.028-2.8-6.221-5.332-9.571-7.6z" fill="#b87800" fill-rule="evenodd" stroke="#000" stroke-miterlimit="10" stroke-width=".036"/>
 <path d="m112.16,98.281c1.409,0 2.551.955 2.551,2.134s-1.143,2.132-2.551,2.132-2.554-.955-2.554-2.132 1.144-2.134 2.554-2.134" fill-rule="evenodd" stroke="#000" stroke-miterlimit="10" stroke-width=".036"/>
 <path d="m123.967,103.911c1.275,0 2.233.667 3.51,1.466 .796.799 1.913,1.733 2.712,3.333-.639.268-2.073.4-3.032.4-1.117-.132-3.032-.4-4.467-.8-.16-1.333-.638-2.534-.16-3.067 .16-.932.639-1.198 1.437-1.332z" fill="#ff0" fill-rule="evenodd" stroke="#000" stroke-miterlimit="10" stroke-width=".036"/>
 <path d="m374.479,19.374c-24.411-1.333-41.646-1.333-52.338.534-10.848,1.734-12.604,4.8-11.964,9.733 0,4.801 4.467,10.001 13.401,17.601-12.926-2.4-22.34-2.532-28.243-.934-5.744,1.467-7.657,6.535-7.657,10.535-.957,3.733-1.758,9.468 3.189,12.533 4.788,2.667 12.605,4.934 24.732,5.333-15.953,2.933-25.213,5.601-30.155,9.468-4.627,3.467.636,7.733 2.233,11.733 1.117,3.467-2.394,9.2 3.67,10.001 5.584.266 15.158-1.466 29.359-6.668-11.331,7.333-18.668,13.602-21.381,18.801-3.351,5.333-2.234,10.667 3.986,11.868 6.063.933 17.395-1.467 33.35-6.668 2.073,2.401 2.554,6.269 1.438,12.135-1.117,5.733-3.991,15.601-7.978,22.401-4.472,6.534-10.531,11.6-18.192,16.268 9.734-5.601 16.275-8.135 20.266-8.135 3.029-.132-4.627,8.935 2.233,8.135 6.86-.933 20.426-5.733 40.05-13.868 0-6.001.32-15.6.32-30.268-.16-15.067-.16-38.002 0-56.536 .001-18.533-.319-36.534-.319-54.002z" fill-rule="evenodd" stroke="#000" stroke-miterlimit="10" stroke-width=".036"/>
 <path d="m371.289,120.445c-.16-3.867-.48-9.867-.32-18-.16-8.267-.16-22.134 0-31.334-.16-9.333.16-16.401.32-24.269 0-8.4-.32-15.6-.32-23.601-20.746-.933-34.787-.933-43.4,0-8.457.402-8.777.935-7.661,5.201 .32,4.4 3.831,10.935 10.53,20.668-14.201-1.601-24.092-1.734-30.315-.399-6.224.799-6.7,4.532-7.021,7.599-.797,3.067-2.074,6.534 2.874,9.867 4.627,2.934 12.765,5.599 25.048,8.001-1.116,1.599-4.943,3.333-9.73,5.733-5.428,1.732-18.191,4.666-21.062,7.333-3.194,2.8 2.55,6.934 3.667,9.867 .641,2.534-4.783,5.867.96,5.867 5.424-.134 15.474-2.933 30.792-7.334-1.116,3.333-2.709,6.934-5.423,10.267-3.19,2.934-7.978,6.267-10.051,9.468-2.077,3.199-3.194,8.399-1.437,9.999 1.276.933 4.307.134 9.734-1.866 5.264-2 12.283-4.934 21.697-9.333-.48,8.4 2.234,12.934 7.502,14.133 5.104,1.067 12.765-1.733 23.616-7.867z" fill="url(#c)" fill-rule="evenodd" stroke="#000" stroke-miterlimit="10" stroke-width=".036"/>
 <path d="m342.086,131.111c0,1.734 2.077,2.134 6.865,1.201 4.627-.933 11.326-3.333 20.74-6.667-.16,6.401.16,12.134-.32,17.733-.16,5.467-1.115,9.867-1.596,14.267-14.998,7.334-24.889,11.2-29.676,12.136-4.627.533 1.437-6.135.956-7.202-.956-1.333-4.146-1.067-7.817.268 3.351-5.867 5.424-11.602 7.497-16.667 1.757-5.334 2.874-10.535 3.351-15.069z" fill="#ad4200" fill-rule="evenodd" stroke="#000" stroke-miterlimit="10" stroke-width=".036"/>
 <path d="m210.131,297.918c-.797-4.934-1.277-8.532-2.074-10.801-.801-2.666-1.116-3.866-2.713-4.132-2.074-.667-7.5,1.466-8.937,1.199-2.073-.8-3.19-1.733-1.435-3.333 1.913-2 8.137-5.867 11.968-6.535 2.71-.799 6.06-.131 7.021,2 .477,1.735-.961,7.203-.641,9.734 .48,2.4 2.233,3.335 4.627,3.867 .957-4.801 3.511-8.668 7.662-11.066 3.826-2.666 10.846-4.267 16.113-4.267 4.948-.399 10.531,1.601 14.202,4 2.87,2.267 3.831,6.8 5.423,9.999 1.438,3.067 2.875,5.602 3.671,8.135-2.394-.934-4.627-.934-4.947,0-.956,1.065.801,2.267.956,4.666-.476,1.734.16,4.404-1.116,5.865-1.753.934-5.103,1.339-6.38,1.201-1.277-.268-2.394-1.063-2.073-2.402-1.597.674-2.874,1.736-4.472,1.736-2.232-.268-3.826,1.063-4.783-.665-.801-1.866-1.437-4.534-.641-9.068l-10.21-.802c-.16,3.068-.956,5.602-1.757,7.068-.957,1.064-1.914,1.471-3.511,1.73-2.073,0-4.627-.26-5.743-.795-1.277-.536-1.277-1.601-.637-2.668-1.438,1.199-2.555,1.732-3.991,2.132-1.753.134-4.467-.266-5.107-1.198-.956-1.2-1.116-3.067-.475-5.6z" fill-rule="evenodd" stroke="#000" stroke-miterlimit="10" stroke-width=".036"/>
 <path d="m217.471,290.984c-2.232-.266-3.033-1.199-4.15-2.266-1.117-1.602-1.593-3.468-1.438-5.068-.315-1.732.801-3.066.961-4.531-.16-1.602-1.597-3.602-2.553-3.869-1.117-.533-3.511-.132-5.428,1.201-2.395.934-8.456,3.601-8.934,4.934-.799.799 1.437.399 3.67.799 1.277-.533 4.627-.266 6.38-.266 .961-.134 1.757.4 2.394,2.133 .641,1.6 2.233,6 2.874,8.534 .32,2.134.32,4 .636,5.601-.476,1.334-.636,2-.476,3.065 .16.933 1.116,1.735 2.233,2.402 .797,0 1.277-.134 2.714-.401 1.276-.266 2.233-1.068 4.147-1.867-.48,1.333-.16,2.4.956,3.201 .801.399 3.194.531 4.627.399 .956-.268 1.597-.801 2.554-1.601 .641-1.332 1.117-3.199 1.438-5.601-2.875-1.199-6.064-2.267-7.817-3.198-2.238-1.333-3.831-2.534-4.788-3.601z" fill="#008040" fill-rule="evenodd" stroke="#000" stroke-miterlimit="10" stroke-width=".036"/>
 <path d="m243.32,298.186c-.961,2.4-.48,3.732-.32,5.468 0,1.198.797,2.802 2.395,3.198 1.592,0 3.35-.665 6.539-2-.315,1.335.801,2 1.598,2.536 1.277.13 3.029,0 4.627-.405 .637-.934 1.753-1.997 1.598-3.73-.32-1.867-.16-3.867-1.277-6.533-4.15.266-7.501.8-10.055,1.065-2.555.267-4.468.401-5.105.401z" fill="#008040" fill-rule="evenodd" stroke="#000" stroke-miterlimit="10" stroke-width=".036"/>
 <path d="m262.625,294.984c-.957.134-3.029.4-6.225.801-3.666.267-8.773.267-13.4.532-5.107-.132-10.531-.266-14.521-.933-4.146-.799-7.181-2.666-9.094-4.533 1.117-3.467 3.189-5.734 4.947-7.866 1.593-2.401 3.51-3.201 6.38-4.4 2.874-1.467 7.981-2.934 11.647-2.802 3.195,0 6.865,1.602 9.099,3.201 1.433.8 2.073,1.067 3.671,3.867 1.752,2.4 4.467,6.8 7.496,12.133z" fill="#0f0" fill-rule="evenodd" stroke="#000" stroke-miterlimit="10" stroke-width=".036"/>
 <path d="m223.215,281.65 7.497,4.802 1.116,9.865 1.438.134-.637-8.934 8.613-5.334 6.705,5.468 .957,8.8 2.073.4-.956-9.467 6.699-3.334-.796-1.6-7.501,3.467-5.904-5.066 2.078-5.334-3.355.134-.636,4.532-8.138,5.201-7.02-4.533-2.233.799z" fill-rule="evenodd" stroke="#000" stroke-miterlimit="10" stroke-width=".036"/>
 <path d="m208.533,277.118c-.957-.268-3.986.665-4.146,1.333-.16.266 2.394.934 3.35.934 .159-.668 1.437-2.135.796-2.267z" fill-rule="evenodd" stroke="#000" stroke-miterlimit="10" stroke-width=".036"/>
 <path d="m229.436,402.855c7.66.268 13.244,1.469 16.755,4.131 3.19,2.271 3.511,1.736 3.351,10.8-.797,8.667-4.467,34.139-7.338,42.002-3.354,7.335-6.864,8.406-11.171,3.204l-2.233,42.001-46.911-3.197 7.339-38.269c-5.424,3.068-9.572,2.93-11.806-.933-2.235-4.268-1.757-14.005-2.235-22.006-1.117-8.666-5.584-20.936-2.234-27.063 3.193-6.004 10.053-8.934 21.223-8.804-7.339-19.467-9.574-33.465-6.703-42.536 3.193-9.201 15.959-11.733 24.097-11.733 7.657-.397 16.751,4.933 20.581,10.271 2.875,5.064-.796,12.798-1.116,20.134-.639,7.198-.959,13.997-1.599,21.998z" fill-rule="evenodd" stroke="#000" stroke-miterlimit="10" stroke-width=".036"/>
 <path d="m225.449,408.325 10.53.527c-1.116,6.272-2.073,12.002-2.874,17.738-.957,5.6-1.753,10.532-2.394,16.269-.956,5.462-2.233,10.664-3.19,16.133-2.232,21.602-3.67,35.2-4.307,42.804-.801,7.061-.801,7.198 0,.397l-36.86-2.799 6.702-40.135c-4.309,2.401-6.702,3.335-8.936,2.799-1.915-.802-2.394.797-3.35-6.531-1.916-7.871-8.298-30.405-5.586-38.269 2.713-8.001 10.373-10.801 22.977-8.934-3.67-14.267-4.945-25.603-4.467-34.001 .16-9.071 2.552-14.67 7.817-17.34 5.268-2.532 18.829-2.265 23.456,2.807 3.67,4.666.16,17.999.48,26.129-.158,8.002-.158,15.469.002,22.406z" fill="#ffc080" fill-rule="evenodd" stroke="#000" stroke-miterlimit="10" stroke-width=".036"/>
 <path d="m174.068,413.525c7.659.262 13.245,1.461 16.756,4.131 3.189,2.265 3.51,1.737 3.35,10.801-1.117,8.666-4.148,34.138-7.181,42.001-3.351,7.604-6.86,8.537-11.169,3.335l-2.234,42.001-46.911-3.334 7.181-38.27c-5.586,3.067-9.254,2.938-11.647-.933-2.236-4.001-1.755-13.868-2.236-21.868-1.117-8.269-5.583-21.066-2.233-27.063 3.192-6.271 10.053-9.071 21.222-8.934-6.861-19.604-9.094-33.067-6.703-42.537 2.394-9.07 14.362-11.198 20.583-12.536 5.426-2.134 9.735-1.201 12.925,2.8 2.871,4 4.469,13.867 6.063,22.403 1.117,8.269 2.076,17.601 2.234,28.003z" fill-rule="evenodd" stroke="#000" stroke-miterlimit="10" stroke-width=".036"/>
 <path d="m170.24,419.125c8.775-1.339 14.52-.665 17.869,1.461 2.715,2.135 1.438,4.269 1.117,11.604-.479,6.938-.957,24.399-3.35,30.802-3.033,5.997-7.5,7.864-14.042,5.6-2.073,21.999-3.351,36.134-3.829,43.868-.798,7.067-.798,7.732 0,.534l-36.86-2.799 6.703-40.135c-4.309,2.401-6.703,3.334-8.936,2.799-1.913-.803-2.394.797-3.35-6.532-1.916-8.139-8.298-30.535-5.586-38.405 3.032-8.001 10.053-10.931 22.819-8.797-3.67-14.403-4.947-25.602-4.469-34.138 .16-9.064 2.554-14.801 7.819-17.203 5.266-2.531 18.829-2.264 23.456,2.8 3.51,4.674.639,18.006.639,26.137-.16,8.001-.16,15.467 0,22.404z" fill="#ffc080" fill-rule="evenodd" stroke="#000" stroke-miterlimit="10" stroke-width=".036"/>
 <path d="m143.913,355.118c-3.831.673-8.776-.528-11.169,1.468-2.872,1.737-1.916,7.199-3.831,10.266-2.394,2.67-7.659,3.472-8.456,7.473-.48,4.001 2.872,9.463 3.989,15.865 0,5.866-.799,12.398-1.117,19.597-.799,6.808-1.437,14.272-.639,22.404 .318,7.87 3.19,22.266 5.583,25.73 1.916,3.206 7.341-4.261 8.936-6.531 1.117-2.532-.318-8.269.639-8.398 .638-.536 2.711,3.869 5.583,6.004 2.872,1.865 11.49,11.993 11.65,5.194-.959-7.467-9.734-36.533-12.767-48.137s-4.627-15.329-2.872-21.463c1.755-6.938 8.298-15.467 13.403-16.806 4.788-1.192 12.287,3.604 14.522,9.34 1.595,5.201-1.597,15.995-2.714,23.734-1.277,7.467-2.394,12.399-3.35,21.999-1.595,9.47-4.627,27.331-2.872,34.131 1.755,6.004 11.169,5.201 14.042,3.205 2.554-2.402.798-14.403 2.712-15.872 1.755-1.866 7.021,13.202 7.818,6.135 0-7.465-6.382-35.997-5.583-49.068 1.116-13.463 11.647-23.598 10.688-29.863-2.232-6.67-14.041-5.866-20.104-8.934-6.063-3.87-11.329-10.005-15.16-11.205-3.826-1.462-6.219,2.669-8.931,3.732z" fill-rule="evenodd" stroke="#000" stroke-miterlimit="10" stroke-width=".036"/>
 <path d="m238.213,460.858c-1.758-3.197-3.67-5.063-6.385-4.536-2.549,0-5.743,6.67-9.569,6.136-4.628-.666-12.608-10.403-16.595-9.73-4.312.665-7.023,4.666-8.141,13.064-4.627-3.603-8.936-5.469-12.285-5.064-3.511.261-6.861,3.466-8.298,6.533-1.755,2.662-2.073,6.134-1.595,9.867-2.395-7.871-5.904-12.667-10.531-14.403-4.947-1.997-10.531-.933-17.392,3.197 1.755-3.327.318-4.795-2.554-4.934-4.149,0-14.359,1.606-17.073,4.269-2.073,2.401-1.595,5.867 3.192,10.402-3.988-1.735-7.021-1.599-9.734-.137-2.872,1.468-5.744,4.405-6.222,8.803-.478,4.131-.32,9.333 2.233,16.133-7.659,2.937-11.808,5.866-11.169,8.269 0,2.402 4.788,4.535 13.085,6.402-5.266,3.067-7.979,6.662-6.382,11.328 1.435,4.536 14.042,10.402 13.721,15.068-1.117,3.87-17.231,7.206-18.19,10.533-.957,3.473 2.554,6.67 11.808,10.135-4.467,1.736-6.382,4.138-5.744,7.206 .16,3.066 3.032,6.661 7.977,11.328 .959-2.8 3.192-3.198 6.703-2.265 3.35.804 7.819,4 14.041,8.536 2.074-5.606 4.948-8.139 9.254-7.067 4.469.933 8.936,4.934 15.796,12.529l60.795-1.866c3.029-43.201 6.064-86.403 9.254-129.736z" fill-rule="evenodd" stroke="#000" stroke-miterlimit="10" stroke-width=".036"/>
 <path d="m223.215,510.86 3.986-46.002c-2.072,3.198-5.423,4.131-8.297,3.336-3.511-1.071-7.817-9.737-11.168-9.072-3.51.536-6.224,4.405-8.775,12.139-5.105-2.937-9.574-4.268-11.647-4.535-2.554-.398-2.394,1.201-3.192,3.335-1.277,1.996-2.712,5.063-4.309,9.202l-12.127,1.063c.957-7.863-.638-12.131-4.148-13.332s-9.572,1.063-17.552,6.8c-3.19-6.938-5.583-9.6-7.181-8.536-1.755.933-2.712,6.135-2.872,15.068-7.499-1.599-11.647-.665-13.721,2.8-2.076,3.465-1.277,9.201 1.755,17.737-5.586,1.331-8.618,3.329-8.458,5.462-.16,2.005 2.233,4.666 7.819,7.466-3.353,1.736-4.948,3.205-4.788,5.469 .16,1.736 2.712,3.603 5.266,6.67 1.595,2.8 7.021,7.864 7.021,11.597-.16,3.603-4.627,7.603-6.542,10.402-2.554,2.265-6.222,2.265-6.064,4.666 .639,2.134 2.875,4.934 8.458,8.398-5.105,2.402-6.861,4.269-5.904,6.135 .957,1.201 9.574,2.532 12.286,4.001 2.075,1.468.798,4.268 3.032,4.803 2.073,0 5.426-1.469 10.053-4.398 3.67-.672 6.7-.137 9.732,1.063 2.872,1.064 5.744,3.335 7.979,6.265l9.572,10.006h49.785c.001-26.009.001-52.009.001-78.008z" fill="url(#b)" fill-rule="evenodd" stroke="#000" stroke-miterlimit="10" stroke-width=".036"/>
 <path d="m199.918,505.391c-1.117-3.464-4.467-5.729-8.298-7.335-4.307-1.599-9.893-2.264-16.753-1.996-1.916,4.131-2.233,7.863.797,10.67 2.234,2.8 7.818,5.064 15,6.8-4.787-2.937-7.82-5.736-9.097-7.87-1.595-2.401-.796-4.131 1.118-5.729 2.713.528 5.266,1.462 8.296,2.264 2.714.795 5.905,1.866 8.937,3.196z" fill-rule="evenodd" stroke="#000" stroke-miterlimit="10" stroke-width=".036"/>
 <path d="m169.92,512.46c.32-3.198-.639-5.73-2.872-8.132-2.712-2.532-5.904-4.934-11.33-6.67-3.35,2.402-4.945,5.071-4.146,8.001 .636,2.938 3.03,6.004 7.817,9.737-2.233-3.473-3.032-6.8-3.032-8.536 0-2.402 1.119-3.198 3.352-3.87 1.913,1.201 3.032,2.807 5.105,4.268 1.915,1.469 3.032,3.204 5.106,5.202z" fill-rule="evenodd" stroke="#000" stroke-miterlimit="10" stroke-width=".036"/>
 <path d="m162.103,510.86c-2.554-2.134-5.904-3.335-9.414-3.067-3.831-.13-8.458,1.201-13.245,3.466 0,3.465 1.916,6.531 5.107,7.732 3.19,1.599 7.657,1.338 14.042.666-4.947-.934-8.297-1.997-10.053-3.198-1.755-1.2-2.872-2.93-1.595-4.665 2.073-.268 4.627-.665 7.021-.665 2.391-.139 5.105-.4 8.137-.269z" fill-rule="evenodd" stroke="#000" stroke-miterlimit="10" stroke-width=".036"/>
 <path d="m159.867,516.191c-3.668,0-6.541.934-9.254,3.336-2.872,2.4-5.105,5.33-6.7,10.265 3.35,2.539 6.542,3.204 10.21,2.539 3.353-1.07 6.863-3.473 10.531-7.74-4.149,1.866-7.659,3.205-9.893,3.473-2.712.13-4.149-.804-4.945-2.272 1.435-1.461 2.712-3.197 4.467-4.665 1.595-1.73 3.671-3.199 5.584-4.936z" fill-rule="evenodd" stroke="#000" stroke-miterlimit="10" stroke-width=".036"/>
 <path d="m190.346,542.191c-1.438-3.327-4.469-5.997-8.458-7.466-4.31-1.729-9.893-2.395-16.755-1.997-1.914,4.131-2.234,7.864.799,10.664 2.232,2.799 7.818,5.07 15,6.8-4.947-2.93-7.502-5.729-8.937-7.864-1.437-2.401-1.116-4.13.956-5.736 2.713.535 5.266,1.339 8.298,2.402 2.712.803 5.744,1.866 9.097,3.197z" fill-rule="evenodd" stroke="#000" stroke-miterlimit="10" stroke-width=".036"/>
 <path d="m178.38 543c-3.83-1.332-8.457-0.804-12.128 1.069-3.828 1.599-8.455 5.064-12.126 9.86 2.394 3.87 5.904 5.874 10.531 6.005 4.148-0.268 9.574-1.737 15.639-5.867-5.904 1.33-10.213 1.736-12.925 1.2-3.192-0.535-4.787-2.134-4.787-4.268 2.073-1.469 4.467-2.8 7.181-4.001 2.551-1.468 5.424-2.799 8.615-3.998z" fill-rule="evenodd" stroke="#000" stroke-miterlimit="10" stroke-width=".036"/>
 <path d="m165.133,385.92c-.158-.13-1.117-.933-2.234-.933-1.435-.397-4.307-1.063-5.583-.934-1.755,0-2.872.268-2.714.804-.158.528 1.755.933 2.714,1.729 .318.405.479,1.201 1.117,1.339 .639-.268 1.595-1.866 2.872-1.736 .638-.269 1.595.665 2.233.803 .478-.268 1.437-.804 1.595-1.072z" fill-rule="evenodd" stroke="#000" stroke-miterlimit="10" stroke-width=".036"/>
 <path d="m152.688,385.92c-.32-.13-.799-.933-2.076-.933-1.277-.397-4.627-1.063-5.744-.934-1.755,0-2.872.268-2.712.804-.32.528 2.073.933 2.872,1.729 .479.405 0,1.201.957,1.339 .639-.268 1.595-1.866 2.872-1.736 .638-.269 1.437.665 2.394.803 .639-.268 1.117-.804 1.437-1.072z" fill-rule="evenodd" stroke="#000" stroke-miterlimit="10" stroke-width=".036"/>
 <path d="m154.762,388.72c-.318-.13-.479.934-.479,2.135-.798.934-1.915,2.669-1.595,4.138-.16,1.193 1.913,2.8 2.551,3.197 .639,0 1.277-2.8 1.277-2.8-.478-.803-2.551,1.201-2.551.398-.32-.934.796-4 1.435-5.064 0-1.338-.798-2.004-.638-2.004z" fill-rule="evenodd" stroke="#000" stroke-miterlimit="10" stroke-width=".036"/>
 <path d="m158.592,400.989c-.32-.131-2.554,1.468-4.309,1.736-2.075-.269-4.627-1.867-5.105-1.736-.16.269 1.117,2.401 3.19,2.799 1.755-.397 5.266-2.53 6.224-2.799z" fill-rule="evenodd" stroke="#000" stroke-miterlimit="10" stroke-width=".036"/>
 <path d="m220.982,372.986c-.16-.131-1.117-.934-2.234-.934-1.438-.397-4.311-1.063-5.588-.933-1.753-.268-2.869.137-2.709.665-.32.137 2.072,1.07 2.869,1.736 .48.268 0,1.469.957,1.469 .641-.269 1.597-1.867 2.873-1.736 .637-.268 1.598.666 2.234.803 .481-.267 1.438-.802 1.598-1.07z" fill-rule="evenodd" stroke="#000" stroke-miterlimit="10" stroke-width=".036"/>
 <path d="m208.533,372.986c-.32-.131-.797-.934-2.073-.934-1.276-.397-4.627-1.063-5.743-.933-1.756-.268-2.873.137-2.715.665-.318.137 2.076,1.07 2.875,1.736 .476.268 0,1.469.956,1.469 .48-.269 1.913-1.867 3.03-1.736 .641-.268 1.597.666 2.232.803 .641-.267 1.118-.802 1.438-1.07z" fill-rule="evenodd" stroke="#000" stroke-miterlimit="10" stroke-width=".036"/>
 <path d="m210.291,375.785c0-.397-.801,1.469-.641,2.54-.637,1.331-2.234,2.93-1.754,4.796 0,.933 2.234,3.87 3.03,3.732 .32-.13 1.597-2.93 1.437-3.334-.796-.261-2.553.933-2.873.534-.477-1.063 1.276-4.933 1.597-5.996-.16-1.866-.636-2.134-.796-2.272z" fill-rule="evenodd" stroke="#000" stroke-miterlimit="10" stroke-width=".036"/>
 <path d="m217.471,386.059c-.641-.536-4.471,3.197-7.18,3.465-3.035-.138-8.778-4.269-8.618-3.604 0,.269 4.787,5.6 8.138,5.737 2.392-.137 7.179-5.598 7.66-5.598z" fill-rule="evenodd" stroke="#000" stroke-miterlimit="10" stroke-width=".036"/>
 <path d="m227.842,372.19c.797-1.736.797-3.732.637-6.005-.16-2.662-1.438-6.134-3.189-7.862-2.715-1.599-7.342-2.532-10.852-2.8-3.986-.934-7.817-2.539-10.852-1.201-3.508,1.331-5.584,4.666-7.977,8.399-2.393,3.196-4.147,6.93-5.264,11.198-3.353-2.396-5.268-4.667-7.023-6.801-1.913-2.401-3.189-5.599-2.551-6.532 .317-1.063 1.754-1.063 4.945,0 .638-6.801 1.754-10.931 2.713-12.399s2.395-.803 3.668,3.068c8.459-4.935 13.406-7.734 15.479-7.871 1.914-.397.957,1.338-3.51,5.736 12.128-2.67 19.309-3.87 22.179-3.604 2.714,0 .48,1.469-6.063,4.406 7.5.796 11.967,1.866 13.404,2.662 1.277.803-.48,1.469-5.268,2.004 4.787,3.596 7.501,6.265 8.137,7.465 .32,1.064-.796,1.064-4.627,0 4.151,5.064 6.225,8.269 5.588,10.136-.641,1.463-3.83,1.463-9.574.001z" fill-rule="evenodd" stroke="#000" stroke-miterlimit="10" stroke-width=".036"/>
 <path d="m134.977,438.454c-.798.804.479,1.737.16,4.269-.638,2.532-2.075,8.398-3.032,10.402-1.595,1.469-2.872,1.331-3.831-1.468-.957-3.197-.957-10.932-1.274-16.53-.799-6.004-1.437-12.139-1.277-18.939 0-7.465 1.595-17.332 1.755-23.865-.798-6.67-3.67-11.465-3.67-14.931-.32-3.739 2.552-4.269 4.309-6.669 1.435-2.938 3.19-6.67 5.266-8.668 1.595-2.133 3.51-2.53 6.382-3.731 2.872-1.737 7.978-4.935 11.648-4.537 3.35.536 4.307,4.269 9.574,7.068 4.946,2.265 15.316,5.331 19.465,7.733 3.67,1.866 3.191,2.265 2.871,5.866-1.116,3.198-5.584,10.533-7.178,15.865-2.076,4.934-2.873,7.603-2.395,16.269 .639,8.805 6.543,30.268 6.701,36.135-.318,5.331-5.744-3.862-7.021-2.93-1.755.528-2.072,3.596-2.232,6.662-.16,3.205.798,8.406.32,10.938-1.438,2.135-4.948,1.996-6.863,1.063-1.913-1.063-4.945-3.733-4.787-8.529-.158-5.201 1.597-12.935 3.51-22.672 1.755-9.729 4.628-28.003 6.064-36.265 1.277-8.803 2.233-11.335.32-15.336-2.394-4.398-11.011-9.47-14.84-10.135-4.467-1.201-7.021.803-10.053,4.398-3.35,3.603-7.977,10.402-8.936,16.27-1.117,5.201.16,8.269 2.554,16.399 1.916,8.269 7.181,23.467 9.575,31.735 1.913,7.734 3.35,12.002 3.03,14.267-.796,1.338-4.627-.796-6.541-2.8-2.235-2.265-4.947-6.93-6.224-8.269-1.755-1.329-2.872.002-3.35.935z" fill="#c2c200" fill-rule="evenodd" stroke="#000" stroke-miterlimit="10" stroke-width=".036"/>
 <path d="m200.557,55.642c.32-4.133 0-9.334-.318-15.067-.48-6.001-3.831-17.735-2.076-20.267 1.596-2.801 8.298,4.666 11.488,4.398 2.393-1.199 4.467-7.999 6.224-7.999 1.276.132 1.437,9.2 4.788,9.2 3.83-.4 13.721-12.001 16.754-11.2 2.074,0-4.311,10.133-1.917,13.466 1.917,3.201 14.202,3.601 15.318,6.802 .48,2.666-7.657,4.4-8.935,11.866-1.276,7.333-.801,18.002 1.438,32.536 5.424-1.333 10.051-.799 13.881,1.6 3.511,2 6.221,4.533 8.138,12.268 1.116,7.867.956,22.4.796,33.334 0,10.401-.636,20.266-1.276,29.6h-94.46c0,0-3.991-1.066-3.032-20.8 .796-19.868 6.86-15.867 6.86-15.867l-18.35-2.4-2.394-8c-3.829-1.199-7.499-2.4-11.009-4.666-3.829-2.268-9.574-6.267-10.531-8.401-.957-3.067.957-5.2 3.829-5.867 2.076-.399 7.659,3.467 9.895,3.867 1.435-.134.957-4.666 2.233-3.867 1.595.266 4.627,5.867 7.181,7.467 1.913,1.599 3.829,2.266 5.105,2l17.073-4.668c-.479-5.733 1.755-9.467 6.7-12.667 4.947-2.799 12.606-5.067 22.979-5.333-2.076-7.068-4.15-14.134-6.382-21.335z" fill-rule="evenodd" stroke="#000" stroke-miterlimit="10" stroke-width=".036"/>
 <path d="m207.256,63.908c2.715,6.135 5.744,10.401 9.099,13.868 3.19,3.067 6.7,6.534 10.531,5.201 3.826-1.868 7.337-6.534 11.808-15.069-.801,9.202-.801,14.535 0,17.468 .316,2.4 4.146-3.601 4.627-1.6 .477,2.134-3.034,10.133-1.918,12.667 .48,1.735 7.021-3.599 6.701-1.6-.637,1.734-8.453,8-8.613,11.602-.32,2.666 9.414,4.934 7.021,6.267-3.351.933-20.266-.134-24.252,2.4-3.511,2.799 1.593,12.935 1.116,13.468-1.757-.667-4.787-11.203-7.821-13.069-2.71-1.732-7.817,4.269-8.613,3.601-1.116-1.467 3.826-7.733 1.913-9.6-2.714-2.134-13.881,1.065-14.998-1.201-1.277-2.8 8.773-10.401 8.613-13.468-.796-3.2-9.891-4.133-10.051-5.867 .318-2.4 6.223-5.2 9.735-6.8 2.71-1.866 5.423-3.065 7.497-3.599-.797-4.668-1.117-8.4-1.594-10.669-.321-2.665-.801-4-.801-4z" fill="#a1a1a1" fill-rule="evenodd" stroke="#000" stroke-miterlimit="10" stroke-width=".036"/>
 <path d="m209.174,60.709c-1.758-4.934-1.598-9.6-.801-13.468 .641-4.267 2.554-9.2 6.385-10.667 3.67-1.599 12.128-1.333 16.114.801 2.874,1.467 5.268,3.867 5.903,8.667 1.277,4.534.801,11.066.32,19.067-4.787,9.334-9.734,13.2-14.201,12.667-4.626-.933-9.414-6.266-13.72-17.067z" fill="#ffc080" fill-rule="evenodd" stroke="#000" stroke-miterlimit="10" stroke-width=".036"/>
 <path d="m211.407,45.776c0-.668.636-.534 1.913-1.067 1.117-.667 3.189-1.201 4.947-1.067 1.117-.268 1.914,0 2.395.799-.16.4-2.234,1.201-2.555,1.866-.32.268-.797,1.467-.797,1.467-.641-.132-2.072-2.132-2.553-1.866-.957-.132-1.438.533-2.074.933-.48-.265-1.916-.799-1.276-1.065z" fill-rule="evenodd" stroke="#000" stroke-miterlimit="10" stroke-width=".036"/>
 <path d="m222.734,45.375c0-.132.641-.934 1.918-.934 1.272-.399 3.029-1.067 4.627-.933 1.117-.266 1.913.134 2.394.667-.48.4-1.917,1.199-2.394,1.866-.641.399-.32,1.199-.801,1.333-.637-.266-2.073-1.867-2.554-1.733-.796-.267-1.433.666-1.913.799-.48-.264-1.912-.798-1.277-1.065z" fill-rule="evenodd" stroke="#000" stroke-miterlimit="10" stroke-width=".036"/>
 <path d="m221.618,48.442c-.16-.266 0,1.067.48,2.4 .16,1.201 1.276,2.667 1.433,4.4-.477,1.067-1.913,3.467-2.394,3.601-.636-.399-1.593-2.668-1.116-3.201-.316-.934 2.077,1.466 2.237.533 0-.933-1.437-4.666-1.276-5.599-.32-1.6.316-2.134.636-2.134z" fill-rule="evenodd" stroke="#000" stroke-miterlimit="10" stroke-width=".036"/>
 <path d="m216.51,62.975c-.315-.266 3.672,2.268 5.904,2.534 2.238-.132 6.385-3.065 6.865-2.666-.16.4-4.627,3.732-6.545,4.266-2.232-.267-6.38-3.866-6.224-4.134z" fill-rule="evenodd" stroke="#000" stroke-miterlimit="10" stroke-width=".036"/>
 <path d="m205.344,53.242 3.51,16.667-5.904-11.466v-8.8c-.636-6.934-.956-12.801-1.597-17.069-1.274-4.799-3.351-8.8-1.913-9.465 1.598-.934 8.457,6.001 11.327,5.867 2.077-.534 2.233-6.534 3.511-6.668 .961-.132.641,6.269 3.99,6.269 3.03-.801 11.969-8.001 14.521-8.267 1.594-.133-3.99,4.932-1.917,7.466 1.917,2.134 12.925,4.534 14.522,7.201 1.276,2.4-.48,5.2-5.904,7.867-.957-4.534-4.151-7.735-8.298-9.068-5.268-1.867-13.882-3.733-18.509-.399-4.47,3.331-6.704,9.598-7.339,19.865z" fill="#a1a1a1" fill-rule="evenodd"/>
 <path d="m190.981,85.777c2.714-3.067 10.211-6.4 10.211-6.4s-6.22-.134-11.007,2.266c-4.787,2.534-6.383,4.934-8.298,7.334-1.755,2.533-2.714,4.934-2.872,7.601l-19.307,5.867c-1.437,1.333-2.075,3.333-1.915,5.467-.16,2 .478,4.534 1.915,7.599l15.797,2c6.382-5.066 10.053-7.467 11.009-7.2 .479.266-6.542,6.8-6.382,8.8-.32,1.333 6.062-.134 5.584,1.201-.639,1.065-3.989,3.333-9.415,6.267l-2.872,23.867 83.771-.534c3.19-9.467 5.264-18.668 6.221-27.602 .961-9.599.801-19.866-.477-26.667-1.598-6.8-4.467-11.467-7.341-13.468-3.19-2.266-6.54-2.266-10.69,0-.957,4-.797,6.934.48,8.8 1.437,1.467 5.263-.933 5.903,1.467-.801,2.268-6.224,8.134-6.384,12.001 .32,3.333 7.34,6.267 7.5,8.267-.956,1.601-5.268,2-9.895,2.799-4.943.268-14.998-1.067-17.23,1.601s3.189,11.2 2.713,14.268c-1.116,2.4-6.864,2.666-8.617.799-2.074-2.266-1.914-12.133-3.831-13.066-2.554-1.067-8.613,7.333-10.21,6.666-2.074-1.332.48-10.533-1.598-12.667-2.554-2.399-10.85-.534-12.604-1.601-1.915-1.598-.796-3.867.799-6.266 .956-2.666 5.426-7.733 5.426-9.6-.16-2.134-3.032-3.601-7.341-3.866 .001.001-1.915-2.933.957-6z" fill="#fff" fill-rule="evenodd" stroke="#000" stroke-miterlimit="10" stroke-width=".036"/>
 <path d="m153.485,106.045c-3.19-1.067-6.222-2.399-9.094-4-3.192-2.268-7.499-4.934-8.618-6.4-.796-1.6-.318-2.268 2.076-2 1.915-.134 6.542,2.534 8.936,2.799 1.117-.533 0-3.067 1.595-2.399s3.989,3.067 7.819,7.2c-.799,1.599-1.756,3.2-2.714,4.8z" fill="#ffc080" fill-rule="evenodd" stroke="#000" stroke-miterlimit="10" stroke-width=".036"/>
 <path d="m12.434,60.843 23.456,10.133-6.703-25.334 42.284,10.801-16.596-20.268 54.252,3.201-26.327-13.868 34.785-13.868-105.79-1.333 .639,50.536z" fill-rule="evenodd" stroke="#000" stroke-miterlimit="10" stroke-width=".036"/>
 <path d="m17.061,57.642 9.094,4.4-3.828-22.666 35.423,9.466-11.33-15.201 41.646,1.334-13.563-9.468 23.295-10.133-83.77-.667 3.033,42.935z" fill="#ff0" fill-rule="evenodd" stroke="#000" stroke-miterlimit="10" stroke-width=".036"/>
 <path d="m291.508,229.383c1.434-.799 3.667-1.467 6.061-1.467 2.394-.534 5.268-.534 7.981.533 2.39.934 5.423,3.067 6.54,5.333 .48,1.733-.797,4.934-2.073,6.534-1.437,1.599-4.312,2.267-6.224,2.534-2.234-.134-4.627-.935-7.182-2.401-2.553-1.867-5.264-3.733-8.137-7.066 .957-1.333 1.913-2.667 3.034-4z" fill-rule="evenodd" stroke="#000" stroke-miterlimit="10" stroke-width=".036"/>
 <path d="m293.262,229.648c3.029-.799 5.744-1.065 8.137-.799 2.395.134 4.151.799 5.904,2 1.598.799 3.189,2.8 3.51,4.534-.48,1.333-2.232,4.533-3.99,5.467-2.233.532-4.146,1.065-6.38.132-2.714-1.066-5.743-3.333-7.341-4.666-1.754-1.333-2.715-2.4-2.87-3.201 .956-1.065 1.913-2.266 3.03-3.467z" fill="#ff0080" fill-rule="evenodd" stroke="#000" stroke-miterlimit="10" stroke-width=".036"/>
 <path d="m282.41,225.382c-1.277-1.199-2.233-2.933-2.869-4.666-1.117-1.868-1.438-4.934-.957-6.667 .316-2.666 2.549-5.333 4.943-6.401 1.917-1.067 6.063-.533 8.137.534 1.758.667 3.511,2.534 3.991,4.534 .48,1.601-.16,3.732-1.276,6.4-1.438,2.399-3.672,5.067-6.701,8-1.758-.533-3.51-1.067-5.268-1.734z" fill-rule="evenodd" stroke="#000" stroke-miterlimit="10" stroke-width=".036"/>
 <path d="m282.41,224.049c-1.593-2.534-2.233-4.934-2.554-6.668-.155-1.998 0-3.866 1.116-5.065 .801-1.467 2.395-3.734 4.787-3.734 2.078-.4 5.107.801 7.182,2.134 1.117,1.067 1.758,2.934 1.277,5.067-.957,1.733-2.711,5.467-3.987,7.066-1.116,1.735-2.394,2.534-3.194,2.933-1.433-.533-3.029-1.067-4.627-1.733z" fill="#ff0080" fill-rule="evenodd" stroke="#000" stroke-miterlimit="10" stroke-width=".036"/>
 <path d="m281.934,229.117c-1.757.799-3.51,1.599-5.903,1.866-2.233.132-5.903.666-7.981,0-2.87-.933-6.221-3.067-7.021-4.8-.796-2.134-.315-5.067 1.438-6.667 .641-1.601 3.83-3.068 5.904-2.934 2.394,0 4.467.134 7.501,1.867 2.554,1.201 5.423,3.333 8.618,6.4-.802,1.334-1.599,2.799-2.556,4.268z" fill-rule="evenodd" stroke="#000" stroke-miterlimit="10" stroke-width=".036"/>
 <path d="m280.177,228.983c-3.03.933-5.903,1.199-7.978,1.333-2.393-.266-4.627-.799-6.064-1.601-2.072-1.067-3.986-2.666-3.986-4.266 0-2.135 1.117-4.534 3.351-5.733 1.276-1.201 3.987-1.201 6.38-.533 2.074.134 5.904,3.067 7.822,4.132 1.752.934 3.029,2.269 3.189,2.934-.797,1.2-1.758,2.399-2.714,3.734z" fill="#ff0080" fill-rule="evenodd" stroke="#000" stroke-miterlimit="10" stroke-width=".036"/>
 <path d="m283.211,233.917c.316,1.466-.641,3.333-1.117,5.066-.641,1.868-2.553,4-3.99,5.867-2.394,1.466-6.225,2.534-8.457,2.667-2.715-.4-5.424-3.067-6.225-4.4-1.117-1.601-1.117-4.534 0-5.733 1.121-2 2.393-3.335 5.588-4.534 2.394-1.467 6.7-2.268 11.167-2.934 .956,1.333 1.917,2.666 3.034,4.001z" fill-rule="evenodd" stroke="#000" stroke-miterlimit="10" stroke-width=".036"/>
 <path d="m282.094,234.983c-.48,2.666-1.597,4.666-2.713,6.532-1.277,1.467-2.555,2.668-4.467,3.601-2.234.799-4.627,1.199-6.545.667-2.234-1.067-3.826-3.868-4.146-5.334-.16-1.867.476-3.465 2.553-4.8 1.754-1.732 5.744-2.933 8.299-3.599 1.912-.802 3.666-1.067 4.627-.802 .795,1.202 1.591,2.401 2.392,3.735z" fill="#ff0080" fill-rule="evenodd" stroke="#000" stroke-miterlimit="10" stroke-width=".036"/>
 <path d="m288.475,233.517c1.757.399 3.189,1.999 4.947,3.333 1.437,1.199 3.35,3.6 3.99,5.733 .637,2.266-.48,5.333-1.597,7.601-1.757,1.467-5.744,2.4-7.661,2.266-2.55-.4-4.943-1.333-5.904-2.799-1.593-1.601-1.753-3.735-1.753-6.4s.796-5.867 2.394-9.602c1.753,0 3.67,0 5.584-.132z" fill-rule="evenodd" stroke="#000" stroke-miterlimit="10" stroke-width=".036"/>
 <path d="m289.115,234.85c2.393,1.866 3.986,3.067 5.424,5.066 1.116,1.6 1.597,3.335 1.437,5.201-.48,2-1.117,3.467-2.554,4.934-2.074.933-5.584.933-7.502.533-1.752-.933-3.189-2.399-3.67-4.4-.957-2.667.16-5.601.32-7.735s.641-3.2 1.438-3.733c1.596,0 3.349,0 5.107.134z" fill="#ff0080" fill-rule="evenodd" stroke="#000" stroke-miterlimit="10" stroke-width=".036"/>
 <path d="m288.795,226.315c-.16-1.6.32-3.467 1.437-5.065 .796-2.134 1.753-4.534 4.147-5.734 1.912-1.601 6.063-2.534 8.777-2.266 2.394.266 4.783,2.799 5.904,4.534 .476,1.599.956,3.999-.32,5.733-1.277,1.601-3.035,3.199-5.904,4.266-3.034,1.067-6.545,2.134-11.172,2.667-.957-1.333-1.913-2.668-2.869-4.135z" fill-rule="evenodd" stroke="#000" stroke-miterlimit="10" stroke-width=".036"/>
 <path d="m289.911,225.249c.636-2.666 1.437-4.8 3.03-6.401 1.277-1.599 2.874-2.934 4.787-3.465 1.758-.801 4.467-1.601 6.385-.401 1.912.801 3.029,3.335 3.986,5.467-.16,1.466-1.117,3.201-2.87,4.667-2.394,1.067-6.224,2.532-8.458,3.333-2.072.534-3.83.934-4.627.667-.636-1.2-1.437-2.533-2.233-3.867z" fill="#ff0080" fill-rule="evenodd" stroke="#000" stroke-miterlimit="10" stroke-width=".036"/>
 <path d="m285.55 224.15c4.492 0 8.137 2.508 8.137 5.601s-3.645 5.599-8.137 5.599-8.138-2.508-8.138-5.599 3.649-5.601 8.138-5.601" fill-rule="evenodd" stroke="#000" stroke-miterlimit="10" stroke-width=".036"/>
 <path d="m285.02 224.46c3.523 0 6.385 1.971 6.385 4.4s-2.861 4.4-6.385 4.4-6.38-1.971-6.38-4.4 2.856-4.4 6.38-4.4" fill="#ff0" fill-rule="evenodd" stroke="#000" stroke-miterlimit="10" stroke-width=".036"/>
</svg>
