<?xml version="1.0" encoding="UTF-8"?>
<svg viewBox="0 0 306 617" xmlns="http://www.w3.org/2000/svg">
 <defs>
  <filter id="a">
   <feGaussianBlur stdDeviation="10.7609"/>
  </filter>
  <linearGradient id="f" x2="0" y1="387.26" y2="17.24" gradientUnits="userSpaceOnUse">
   <stop stop-color="#7ffcff" offset="0"/>
   <stop stop-color="#7fd3ff" offset="1"/>
  </linearGradient>
  <linearGradient id="e" x2="0" y1="583.85" y2="361.13" gradientUnits="userSpaceOnUse">
   <stop stop-color="#10007f" offset="0"/>
   <stop stop-color="#009f5d" offset="1"/>
  </linearGradient>
  <linearGradient id="d" x2="0" y1="87.985" y2="36.173" gradientUnits="userSpaceOnUse">
   <stop stop-color="#d3d3d3" offset="0"/>
   <stop stop-color="#eaeaea" offset="1"/>
  </linearGradient>
  <linearGradient id="c" x2="0" y1="205.88" y2="138.75" gradientUnits="userSpaceOnUse">
   <stop stop-color="#d3d3d3" offset="0"/>
   <stop stop-color="#eaeaea" offset="1"/>
  </linearGradient>
  <linearGradient id="b" x2="0" y1="195.06" y2="144.78" gradientUnits="userSpaceOnUse">
   <stop stop-color="#d3d3d3" offset="0"/>
   <stop stop-color="#eaeaea" offset="1"/>
  </linearGradient>
 </defs>
 <g transform="translate(13.021 6.714)" filter="url(#a)" opacity=".5">
  <path d="m8.416,591.06c.538-72.93 2.076-125.102 5.15-157.32 3.612-32.215 8.686-57.543 16.371-75.975 8.148-19.955 22.521-36.787 41.967-52.175 19.908-14.584 56.186-32.936 109.912-55.216v-138.887h-70.558c-.461,39.589-.999,79.261-1.539,118.931-32.357-.722-64.717-1.522-97.152-2.324-.538-11.54-1.076-22.2-1.076-30.695-.461-9.216-.461-16.108-.461-22.2 0-26.126 1.537-45.279 5.073-57.622 3.612-12.261 10.224-26.047 19.446-41.433 14.834-23.001 31.206-40.632 49.652-51.372 18.909-10.74 40.889-16.108 66.947-16.108 41.427,0 73.632,16.108 96.615,49.127 23.059,32.938 34.281,79.742 34.281,139.608 0,43.759-7.148,79.021-21.445,105.869-14.373,26.85-38.891,49.928-74.172,69.885-16.91,9.938-34.28,18.354-52.188,26.045-17.91,8.414-27.056,12.262-28.131,13.063-1.001,1.525-2,3.047-2.998,6.09-.538,3.127-1.076,9.219-1.076,18.436v5.371 11.539 8.414c5.149.799 11.297.799 18.446.799h31.667c27.131,0 51.112-.799 71.635-2.32 20.445-1.523 38.354-3.85 53.188-7.697-1.074,16.914-2.074,33.74-3.074,50.65-.539,16.914-1.076,33.824-1.076,49.85v16.91c.537,6.174.537,14.588 1.076,24.605-40.43-3.127-71.635-5.369-93.617-6.975-22.521-.717-41.89-1.521-59.337-1.521-16.295,0-34.203,0-52.651.805-18.908,1.521-39.353,2.322-60.875,3.843z" fill-rule="evenodd"/>
 </g>
 <path d="m8.416,591.06c.538-72.93 2.076-125.102 5.15-157.32 3.612-32.215 8.686-57.543 16.371-75.975 8.148-19.955 22.521-36.787 41.967-52.175 19.908-14.584 56.186-32.936 109.912-55.216v-138.887h-70.558c-.461,39.589-.999,79.261-1.539,118.931-32.357-.722-64.717-1.522-97.152-2.324-.538-11.54-1.076-22.2-1.076-30.695-.461-9.216-.461-16.108-.461-22.2 0-26.126 1.537-45.279 5.073-57.622 3.612-12.261 10.224-26.047 19.446-41.433 14.834-23.001 31.206-40.632 49.652-51.372 18.909-10.74 40.889-16.108 66.947-16.108 41.427,0 73.632,16.108 96.615,49.127 23.059,32.938 34.281,79.742 34.281,139.608 0,43.759-7.148,79.021-21.445,105.869-14.373,26.85-38.891,49.928-74.172,69.885-16.91,9.938-34.28,18.354-52.188,26.045-17.91,8.414-27.056,12.262-28.131,13.063-1.001,1.525-2,3.047-2.998,6.09-.538,3.127-1.076,9.219-1.076,18.436v5.371 11.539 8.414c5.149.799 11.297.799 18.446.799h31.667c27.131,0 51.112-.799 71.635-2.32 20.445-1.523 38.354-3.85 53.188-7.697-1.074,16.914-2.074,33.74-3.074,50.65-.539,16.914-1.076,33.824-1.076,49.85v16.91c.537,6.174.537,14.588 1.076,24.605-40.43-3.127-71.635-5.369-93.617-6.975-22.521-.717-41.89-1.521-59.337-1.521-16.295,0-34.203,0-52.651.805-18.908,1.521-39.353,2.322-60.875,3.843z" fill-rule="evenodd"/>
 <path d="m160.449,378.119 31.053-16.988c35.281-19.955 52.574-46.563 66.871-73.41 14.371-26.848 15.678-42.556 15.678-86.314 0-59.866-11.297-106.67-34.279-139.608-23.061-33.019-42.043-44.559-83.473-44.559-26.055,0-46.346.481-65.255,11.22-18.447,10.738-34.818,28.369-49.576,51.37-9.225,15.388-15.913,29.172-19.447,41.434-3.613,12.262-5.149,31.497-5.149,57.543 0,6.17 0,13.064.537,22.28 0,8.414-.152,7.773.385,19.314h83.318c.461-39.992.999-80.063 1.537-120.134 29.209,2.083 58.416,4.167 87.701,6.331-.846,49.128-1.77,98.255-2.691,147.463-53.649,22.199-90.005,40.632-109.911,55.216-19.449,15.311-35.357,41.676-43.506,61.633l-.154,16.35 126.361-9.141z" fill="url(#f)" fill-rule="evenodd"/>
 <path d="m191.501,361.13c-9.07,4.729-16.604,8.254-22.598,10.26-6.227,1.924-10.223,3.285-13.76,1.924-3.611-1.441-6.071-4.891-7.684-10.338-10.452,10.178-18.292,15.143-24.752,15.549-6.226.238-10.759-4.41-12.989-13.949-.613,4.008-3.148,7.297-7.302,9.539-4.379,2.006-12.527,4.889-17.906,4.004-5.459-1.039-9.762-4.004-13.761-9.535-3.841,4.488-7.454,7.775-11.451,9.535-3.997,1.766-8.071,2.166-12.223,1.205-4.304-1.283-8.377-4.086-12.835-8.414-7.686,18.432-9.3,36.303-12.913,68.521-3.075,32.297-9.223,67.32-9.685,140.166 21.446-1.521 41.89-2.32 60.874-3.842 18.371-.723 36.279-.723 52.651-.723 17.372,0 36.817.723 59.262,1.521 22.057,1.521 42.963,4.248 83.395,7.291-.539-9.934-4.229-12.178-4.689-18.352 0-6.088 2.307-31.332 2.307-36.701 0-16.109 1.844-16.109 2.383-33.02 .998-16.914 3.613-13.705 4.689-30.613-14.836,3.842-24.137,1.037-44.658,2.561-20.445,1.525-44.426,2.326-71.559,2.326h-31.667c-7.225,0-24.211,2.004-29.361,1.199 0-2.322-1.151-12.822-1.151-15.867 0-2.324-1.077-18.113-1.077-22.762v-5.369c0-9.213 2.921-11.617 3.382-14.744 1.077-3.049-.999-4.57 0-6.092 1.077-.721 17.295-3.848 35.203-12.262 17.908-7.693 43.043-23.08 59.875-33.018z" fill="url(#e)" fill-rule="evenodd"/>
 <path d="m82,37.514c6.532-2.244 3.201-1.281 8.196-.16 4.919.882 9.377,3.606 12.759,7.854 4.153-2.245 8.686-3.206 13.913-2.886 5.302.161 12.989,1.443 17.141,4.167 3.92,2.645 5.995,8.174 5.918,11.622-.229,3.286-2.845,5.69-7.531,7.854 4.841-.642 7.686.081 9.145,2.485 1.308,2.404 2.383,9.776-1.23,11.62-3.919,1.683-14.295.722-21.059-1.602-6.764-2.566-13.144-6.894-19.14-13.305-1.306,9.698-3.688,16.109-7.147,19.875-3.766,3.367-8.991,3.928-13.912,1.684-4.995-2.324-10.068-7.453-15.524-15.387-2.386,6.251-4.996,10.258-8.764,11.7-3.688,1.283-8.226.321-13.296-3.206 4.612-8.575 9.528-16.349 14.758-23.001 5.146-6.891 15.006-13.651 20.773-18.619l5-.695z" fill="url(#d)" fill-rule="evenodd"/>
 <path d="m269.667,140.044c-4.996-2.164-5.225-1.229-9.145-.188-3.92.882-7.455,3.607-10.299,7.855-4.381-1.684-9.299-2.324-14.758-1.603-5.766.561-12.836,1.843-18.293,5.37-5.457,3.366-9.992,8.335-13.912,14.906l-13.988-2.884-.385,33.58c5.227,3.526 9.914,5.129 14.373,4.167 4.305-1.042 8.377-4.007 11.914-9.538 2.92,3.928 6.918,6.012 12.297,6.251 5.227.161 11.836-1.763 19.523-5.449-.615,6.652 1.383,10.579 5.994,12.102 4.535,1.443 11.736,2.375 21.344-1.312l-.283-1.895c1.076-4.648-.717-12.498-.717-22.435 .001-10.098-2.588-23.379-3.665-38.927z" fill="url(#c)" fill-rule="evenodd"/>
 <path d="m16.871,152.761c2.689-4.088 5.765-6.893 9.222-7.534 3.536-1.122 7.842-.081 11.146,2.485 2.998,2.484 5.15,7.132 6.764,13.304 8.687-7.294 14.912-10.099 19.524-8.736 4.378,1.282 6.764,6.812 7.147,16.59 7.225-1.924 11.376-1.604 12.758,1.282 1.153,2.646-1.92,12.182-4.764,15.308-3.153,2.964-8.764,4.007-12.377,2.484-3.534-1.844-6.685-6.251-9.145-13.224-2.231,9.137-4.996,13.864-8.303,14.506-3.457.561-7.456-3.286-11.989-11.22 .613,8.094-.617,13.464-3.999,15.788s-8.606,1.684-15.985-1.922c-.077-2.084-.077-6.732 0-13.064-.076-6.814-.076-14.988.001-26.047z" fill="url(#b)" fill-rule="evenodd"/>
</svg>
