<?xml version="1.0" encoding="UTF-8"?>
<svg enable-background="new 0 0 273 617" viewBox="0 0 273 617" xmlns="http://www.w3.org/2000/svg">
 <defs>
  <linearGradient id="d" x2="0" y1="20.009" y2="584.99" gradientUnits="userSpaceOnUse">
   <stop stop-color="#fcffdf" offset="0"/>
   <stop offset="1"/>
  </linearGradient>
  <linearGradient id="c" x2="0" y1="185.17" y2="409.58" gradientUnits="userSpaceOnUse">
   <stop stop-color="#f6ff3f" offset="0"/>
   <stop stop-color="#363f00" offset="1"/>
  </linearGradient>
  <linearGradient id="b" x2="0" y1="132.25" y2="418.38" gradientUnits="userSpaceOnUse">
   <stop stop-color="#f6ff3f" offset="0"/>
   <stop stop-color="#363f00" offset="1"/>
  </linearGradient>
  <linearGradient id="a" x2="0" y1="163.88" y2="437.52" gradientUnits="userSpaceOnUse">
   <stop stop-color="#f6ff3f" offset="0"/>
   <stop stop-color="#363f00" offset="1"/>
  </linearGradient>
 </defs>
 <switch opacity=".75"/>
 <path d="m63.662 584.83c7.526-90.31 15.052-180.62 22.578-270.92 2.001-61.087 4.083-122.17 6.165-183.26-27.941-1.762-55.882-3.604-83.824-5.444 3.363-30.262 6.726-60.525 10.088-90.788 53.56-3.923 99.355-7.765 137.38-11.688 38.829-4.643 69.891-9.288 93.989-14.731-6.243 41.15-10.887 88.545-14.731 140.5-3.122 52.039-4.643 107.2-4.643 166.12v33.462c0.722 82.223 1.521 164.52 2.321 246.82l-169.32-10.086z" fill-rule="evenodd"/>
 <path d="m92.564 323.03 128.5 7.284c-0.158 10.968-0.319 21.939-0.399 32.906 1.28 73.975 2.482 147.87 3.683 221.76-49.956-4.321-99.835-8.643-149.71-12.887 6.003-83.021 12.007-166.04 17.932-249.06zm128.5 7.284c0-59.003 1.603-114.16 4.724-166.12 3.845-52.039 4.884-103.12 11.05-144.19-24.02 5.364-35.547 7.206-74.376 11.849-38.028 3.924-83.823 7.767-137.38 11.688-2.321 24.418-4.643 48.837-6.965 73.255 27.06 0.88 54.121 1.761 81.181 2.722-2.242 67.812-4.483 135.62-6.725 203.51l128.49 7.284z" fill="url(#d)" fill-rule="evenodd"/>
 <path d="m74.63 572.1 149.71 12.887 0.238-121.93c-33.222 4.004-59.964 11.771-81.418 23.298-21.696 11.527-35.067 31.064-46.596 45.634-11.527 14.41-18.733 27.379-21.935 40.111z" fill-rule="evenodd" stroke="#000" stroke-miterlimit="10" stroke-width=".036"/>
 <path d="m202 389.32c1.682-26.261 3.923-55.002 6.725-88.067 2.563-33.145 5.686-68.531 9.366-108.32l-36.826-7.766c4.164 27.14 7.445 53.08 9.848 78.778 2.163 25.22 3.442 49.798 4.162 74.056 0.48 24.416 0.399 47.875-0.561 71.573 2.402-6.723 4.803-13.451 7.286-20.253z" fill="url(#c)" fill-rule="evenodd"/>
 <path d="m183.83 400.21c-1.28-27.139-3.043-55.241-6.165-85.502-3.281-30.422-7.364-65.809-11.93-95.351-4.483-29.782-9.605-56.681-15.051-81.901l-37.309-5.204c10.409 24.418 19.294 50.277 26.979 78.778 7.528 28.422 13.131 55.882 18.656 90.708 5.523 34.986 10.246 72.936 14.489 116.64 3.445-6.003 6.888-12.088 10.331-18.173z" fill="url(#b)" fill-rule="evenodd"/>
 <path d="m161.1 404.94c-6.164-46.037-14.252-88.064-24.899-128.58-10.647-40.671-23.217-77.337-38.348-112.48l-3.682 98.474c16.572 42.99 28.902 78.22 37.307 107.84 8.407 29.384 12.251 51.318 12.489 67.334 5.685-10.812 11.368-21.698 17.133-32.586z" fill="url(#a)" fill-rule="evenodd"/>
</svg>
