<?xml version="1.0" encoding="UTF-8"?>
<svg enable-background="new 0 0 375 618" viewBox="0 0 375 618" xmlns="http://www.w3.org/2000/svg">
 <defs>
  <linearGradient id="e" x2="0" y1="326.59" y2="13.502" gradientUnits="userSpaceOnUse">
   <stop stop-color="#1fb2ff" offset="0"/>
   <stop stop-color="#dff0ff" offset="1"/>
  </linearGradient>
  <linearGradient id="d" x2="0" y1="583.93" y2="286.82" gradientUnits="userSpaceOnUse">
   <stop stop-color="#00233f" offset="0"/>
   <stop stop-color="#00bf69" offset="1"/>
  </linearGradient>
  <linearGradient id="c" x2="0" y1="581.08" y2="488.26" gradientUnits="userSpaceOnUse">
   <stop stop-color="#095f00" offset="0"/>
   <stop stop-color="#3fff42" offset="1"/>
  </linearGradient>
  <linearGradient id="b" x2="0" y1="583.22" y2="478.22" gradientUnits="userSpaceOnUse">
   <stop stop-color="#095f00" offset="0"/>
   <stop stop-color="#3fff42" offset="1"/>
  </linearGradient>
  <linearGradient id="a" x2="0" y1="583.37" y2="488.9" gradientUnits="userSpaceOnUse">
   <stop stop-color="#095f00" offset="0"/>
   <stop stop-color="#3fff42" offset="1"/>
  </linearGradient>
 </defs>
 <switch opacity=".75"/>
 <path d="m8,418.533c42.377-2.688 84.833-5.454 127.289-8.221-.554,14.545-1.106,29.172-1.739,43.799 3.558,0 28.858,1.897 32.415,1.897 24.351,0 11.859,1.266 35.578-5.691-.475-35.025-.948-70.129-1.422-105.231l-91.316-6.642c-1.504,8.143-3.005,16.286-4.586,24.509-29.807-2.213-59.692-4.506-89.579-6.798 .791-24.51 1.583-49.02 2.372-73.607 .554-23.324 1.819-46.567 3.007-70.681 0-4.507.554-8.223.554-9.013 3.555-64.594 7.114-129.187 10.75-193.859 46.962,3.479 94.004,6.958 141.045,10.516 45.54-3.479 91.158-6.958 136.777-10.516-2.926,26.327-5.377,50.361-7.116,71.392-1.818,20.319-2.451,39.057-3.005,55.581-11.937.791-20.951,1.502-26.879,2.292-6.01.711-11.939.711-17.316.711-14.389,0-38.266-.711-71.154-3.004-32.812-2.214-58.507-3.716-76.453-3.716-1.184,38.029-2.372,76.136-3.556,114.244 14.309-13.6 29.251-22.612 44.193-28.621s32.258-9.013 51.944-9.013c46.014,0 83.093,17.315 110.527,51.153 28.147,33.759 41.903,78.114 41.903,132.981 0,56.371-16.128,103.729-49.019,143.576-32.256,39.769-72.894,59.296-121.913,59.296-53.763,0-95.584-15.733-126.655-48.068-31.071-32.256-46.646-75.109-46.646-129.266z" fill-rule="evenodd"/>
 <path d="m24.128 286.82 4.664 17.076 21.189 8.935 270.63 13.758 7.434-26.961c-10.674-21.979-10.041-22.69-32.416-44.749-32.021-31.704-59.453-37.712-105.47-37.712-19.768 0-33.285 8.064-48.228 14.072s-29.886 15.022-44.197 28.542l0.159-137.33c17.869 0 43.563 1.502 76.453 3.717s56.766 3.003 71.077 3.003c5.374 0 11.384 0 17.313-0.79 6.01-0.711 14.942-1.502 26.882-2.213 0.631-16.524 2.528-20.952 4.268-41.27 1.819-21.031 4.191-45.065 7.195-71.394l-125.15 11.703-137.88-9.963-10.356 191.88c0 0.79-0.554 4.507-0.554 9.013-1.187 24.034-2.452 47.358-3.005 70.681z" fill="url(#e)" fill-rule="evenodd" stroke="#4794ff" stroke-miterlimit="10" stroke-width=".036"/>
 <path d="m328.042,299.625c-5.773,10.357-12.413,15.416-19.924,15.181-7.669-.475-16.207-5.931-25.616-16.999-8.696,10.121-16.286,15.021-22.77,14.389-6.563-.554-12.017-6.64-16.366-17.946-8.223,8.459-15.495,12.017-23.006,11.542-7.432-.789-14.389-5.612-21.189-15.338-9.409,13.678-18.58,20.32-27.83,20.794-9.485.159-18.262-5.851-27.514-18.896-8.064,7.668-15.021,10.988-20.872,10.278-6.01-.791-10.91-5.93-14.704-15.102-16.684,10.595-28.146,15.733-35.263,16.365-7.116.317-9.25-4.269-6.72-13.757-12.016,6.01-21.504,8.776-28.462,8.303-7.195-.633-11.542-4.507-13.679-11.622l-3.24,65.306 74.002,1.501 5.692-25.616 112.268,9.962-5.615,119.461c-29.251,8.54 4.19,5.694-41.27,5.694-3.557,0-36.211-1.503-39.768-1.503l-2.925-39.767-105.154,5.691v18.5c0,54.078 21.508,71.472 52.577,103.807 31.07,32.259 61.431,34.077 115.193,34.077 49.019,0 77.163-11.386 109.422-51.152 32.889-39.849 48.384-84.438 48.384-140.81 .001-54.789-1.659-47.752-15.651-92.343z" fill="url(#d)" fill-rule="evenodd"/>
 <path d="m227.712,362.795c-.474,7.116-.791,13.835-.633,20.795 0,6.799.317,13.438.948,20.239 4.27-6.643 10.041-11.228 17.316-13.44 7.272-2.531 15.495-1.819 25.616-.318 9.959,1.504 22.058,8.144 33.283,9.251 10.991.791 26.961.712 32.02-4.189 4.35-5.218 1.662-20.557-3.479-25.933-5.139-5.613-14.625-8.459-26.326-6.404-12.019,1.978-30.913,18.025-44.195,18.264-13.361-.24-24.588-5.931-34.55-18.265z" fill-rule="evenodd" stroke="#000" stroke-miterlimit="10" stroke-width=".036"/>
 <path d="m263.605,383.984c3.717-.238 8.935-1.739 15.654-4.506 6.801-3.164 16.763-10.279 24.351-12.493 7.195-2.055 14.312-2.372 19.529-.315 5.218,1.816 9.25,6.878 11.228,11.226 1.66,4.032 1.343,9.014-.95,14.073-2.846.395-5.298-.315-7.352-1.266-2.214-1.186-4.032-3.004-5.457-5.453 .238,2.767 1.187,4.9 2.531,6.719 1.422,1.581 3.24,2.846 5.771,3.479-7.984,1.266-15.339,1.504-22.059.712-6.798-.95-11.463-3.479-18.579-5.456-7.43-2.135-15.337-4.268-24.667-6.72z" fill="#df9800" fill-rule="evenodd" stroke="#000" stroke-miterlimit="10" stroke-width=".036"/>
 <path d="m253.64 383.27c-4.742-1.027-9.407-2.608-13.123-4.744-3.795-2.134-7.511-4.821-10.277-8.064l0.632 23.086c3.715-3.003 7.353-5.454 11.226-7.037 3.715-1.74 7.669-2.923 11.542-3.241z" fill="#df9800" fill-rule="evenodd" stroke="#000" stroke-miterlimit="10" stroke-width=".036"/>
 <path d="m311.912,373.074c-.395.948 6.878,5.928 9.015,6.087 1.896-.315 3.558-4.586 2.213-5.771-1.661-1.107-10.99-1.424-11.228-.316z" fill-rule="evenodd" stroke="#000" stroke-miterlimit="10" stroke-width=".036"/>
 <path d="m135.805,495.238c.235,5.535.712,10.989.553,16.365 .08,5.377-.474,10.675-.789,15.893-3.479-5.218-7.907-8.855-13.6-10.595-5.93-1.898-12.334-1.66-20.162-.238-7.825,1.109-17.788,6.483-26.246,7.274-8.699.633-21.585.554-25.222-3.24-3.715-4.111-1.345-16.209 2.846-20.478 3.717-4.35 11.305-6.722 20.634-4.981 9.33,1.424 24.194,14.231 34.789,14.311 10.436-.079 19.291-4.743 27.197-14.311z" fill-rule="evenodd" stroke="#000" stroke-miterlimit="10" stroke-width=".036"/>
 <path d="m107.58,511.842c-3.242-.158-6.957-1.345-12.334-3.558-5.456-2.451-13.363-8.144-19.133-9.804-5.93-1.66-11.386-1.739-15.418-.238-4.188,1.581-7.431,5.139-8.776,8.855-1.344,3.399-1.105,6.878.713,11.069 2.134.079 4.19-.159 5.851-1.027 1.581-.871 3.005-2.293 4.271-4.271-.238,2.214-1.03,3.873-2.058,5.298-1.187,1.265-2.687,2.292-4.506,2.767 6.245.95 11.938,1.106 17.394.474 5.297-.868 8.855-2.688 14.627-4.268 5.611-1.66 12.174-3.322 19.369-5.297z" fill="#ffeb3f" fill-rule="evenodd" stroke="#000" stroke-miterlimit="10" stroke-width=".036"/>
 <path d="m115.72 511.05c3.875-0.948 7.195-2.214 10.279-3.794 3.005-1.739 5.692-3.717 8.064-6.248l-0.475 18.105c-3.005-2.451-5.851-4.188-8.855-5.533-3.082-1.345-6.088-2.292-9.013-2.53z" fill="#ffeb3f" fill-rule="evenodd" stroke="#000" stroke-miterlimit="10" stroke-width=".036"/>
 <path d="m69.551,503.302c.079.556-5.533,4.665-7.036,4.744-1.581-.156-3.006-3.794-1.819-4.506 1.027-.948 8.46-1.027 8.855-.238z" fill-rule="evenodd" stroke="#000" stroke-miterlimit="10" stroke-width=".036"/>
 <path d="m240.835,461.78c2.372,3.559 4.191,7.195 5.773,10.91 1.502,3.399 3.874,6.404 3.162,11.148-.948,4.664-3.715,10.436-8.303,17.313 5.218-7.432 10.121-11.463 14.391-11.226 4.269,0 5.06,10.04 11.226,11.543 5.93,1.422 18.817.475 24.351-3.796 5.298-4.665 8.461-15.733 7.037-23.718-1.896-8.459-10.672-23.798-16.603-24.983-5.851-.948-11.939,16.445-18.579,18.896-6.799,1.978-14.389.158-22.455-6.087z" fill-rule="evenodd" stroke="#000" stroke-miterlimit="10" stroke-width=".036"/>
 <path d="m245.659,466.604c2.057,1.581 4.506,2.847 7.354,3.794 2.767.95 6.245,2.61 9.565,1.66 3.084-1.343 6.799-6.483 9.329-9.329 2.293-3.161 3.005-7.353 5.139-8.617 1.978-1.502 4.427-1.502 7.037.633 2.688,1.897 6.483,7.59 8.935,11.859 1.976,4.427 3.479,9.725 3.873,13.441 .395,3.24-.238,5.374-1.58,6.403-1.66-3.005-3.164-4.508-4.509-4.19-1.58.236-3.479,3.082-3.873,5.454-.395,2.215.474,5.377 1.345,7.036 .554,1.187 1.501,1.898 2.528,1.266-4.585,2.057-8.458,3.243-12.49,3.559-4.271.158-8.223-.159-11.228-1.898-2.767-2.055-4.268-7.59-5.771-9.329-1.739-1.739-3.24-1.739-4.821-1.266-1.897.079-3.796,1.029-6.009,2.53 1.422-2.925 2.055-5.691 2.213-8.302-.079-2.688-.712-5.139-1.898-7.667-1.187-2.611-3.005-4.745-5.139-7.037z" fill="#ff471f" fill-rule="evenodd" stroke="#000" stroke-miterlimit="10" stroke-width=".036"/>
 <path d="m282.69 463.26c2.793 0 5.06 2.304 5.06 5.139s-2.267 5.139-5.06 5.139-5.06-2.301-5.06-5.139 2.268-5.139 5.06-5.139" fill-rule="evenodd" stroke="#000" stroke-miterlimit="10" stroke-width=".036"/>
 <path d="m207.709,584.01c1.741-5.062 1.741-9.646 0-14.391-2.055-4.662-11.385-9.171-10.593-13.518 .947-4.744 15.336-9.015 15.416-13.759-.475-5.138-17.314-10.751-16.999-15.336 .079-4.665 19.686-7.195 18.579-12.176-1.501-5.062-24.586-10.833-25.616-17.946-1.027-7.511 17.078-24.589 19.845-25.301 2.372-.633-9.803,14.627-4.506,21.425 5.298,6.722 31.705,12.493 35.894,18.265 3.796,5.454-12.57,10.595-11.857,15.101 .395,4.506 15.969,6.324 15.653,11.857-.553,5.377-16.366,12.809-17.552,20.163-1.027,7.036 2.293,14.703 10.831,22.69-9.646.949-19.369,1.896-29.095,2.926z" fill-rule="evenodd" stroke="#000" stroke-miterlimit="10" stroke-width=".036"/>
 <path d="m211.505,581.085c1.978,0 4.664-.317 7.431-.633 2.688-.474 6.089-1.106 9.567-1.898-7.748-8.696-10.832-15.969-9.567-22.452 1.345-6.404 16.841-11.622 16.92-15.972-.633-4.585-17.788-7.511-18.579-11.543-.554-4.27 15.971-9.25 14.785-13.44-1.662-4.427-17.79-7.669-23.403-12.176-5.535-4.743-8.854-9.25-9.646-14.706-4.347,3.085-5.928,5.852-5.06,8.62 .871,2.607 5.692,4.032 10.2,7.352 4.188,3.241 15.337,7.511 15.101,11.543-.87,3.558-16.604,7.195-17.315,11.228-.475,4.111 12.651,9.091 14.391,12.808 1.422,3.241-2.531,4.98-4.823,7.67-2.531,2.687-9.171,6.166-9.567,8.617-.633,2.055 4.349.71 6.089,4.821 1.498,4.268 2.764,10.673 3.476,20.161z" fill="url(#c)" fill-rule="evenodd" stroke="#000" stroke-miterlimit="10" stroke-width=".036"/>
 <path d="m171.656,585.667c2.61-5.375 3.243-10.593 1.898-15.97-1.502-5.612-11.543-11.463-9.962-16.366 1.424-4.979 18.5-7.984 18.896-13.282 .158-5.535-17.867-14.309-16.92-19.291 1.107-5.139 22.453-5.377 22.217-11.068-.949-5.771-26.013-15.337-26.09-23.244-.158-8.303 22.215-25.143 25.378-25.537 2.688-.158-12.729,14.706-7.825,23.244 4.979,8.064 33.441,18.026 37.474,24.983 3.479,6.643-15.18,9.962-15.101,15.181 .235,4.902 16.602,9.25 15.892,15.18-1.186,5.691-20.082,12.175-22.217,20.08-2.372,7.908.948,16.604 9.092,26.724-10.909-.158-21.82-.397-32.732-.634z" fill-rule="evenodd" stroke="#000" stroke-miterlimit="10" stroke-width=".036"/>
 <path d="m176.323,582.979c2.213.238 4.979.317 8.3.238 3.084-.08 6.722-.475 10.91-.871-7.352-10.516-10.039-19.133-7.747-26.169 2.214-7.037 20.476-10.516 20.952-15.575 .235-5.377-19.054-10.436-19.133-15.18-.159-4.901 18.895-8.144 18.104-13.044-1.264-5.219-18.736-10.833-24.352-16.525-5.612-5.771-8.538-11.542-8.775-17.631-5.298,2.925-7.272,5.694-6.799,8.935 .554,2.846 5.93,5.297 10.358,9.488 4.427,3.952 15.811,10.515 15.258,14.783-1.106,4.032-19.687,5.691-20.714,10.2-1.029,4.347 12.729,11.857 14.389,16.128 .948,3.794-3.084,5.218-6.324,7.905-3.32,2.846-10.831,5.614-11.86,8.302-1.106,2.372 4.903,1.187 6.168,6.166 1.107,4.824 1.737,12.335 1.265,22.85z" fill="url(#b)" fill-rule="evenodd" stroke="#000" stroke-miterlimit="10" stroke-width=".036"/>
 <path d="m140.113,583.82c2.767-4.585 3.797-9.17 3.085-14.071-.871-5.218-9.171-11.068-7.511-15.418 1.739-4.27 16.84-5.533 17.867-10.197 .474-4.903-14.548-14.232-13.361-18.58 1.186-4.429 20.792-3.163 20.715-8.065-.396-5.534-21.822-15.496-21.269-22.848 .712-7.511 21.74-20.478 24.666-20.637 2.61-.079-12.727,12.414-8.854,20.083 3.874,7.59 28.225,18.895 31.229,25.378 2.53,6.089-14.469,7.749-14.706,12.255-.315,4.348 13.914,9.725 12.808,14.863-1.739,5.062-18.736,9.093-21.426,16.051-2.687,6.798-.632,14.862 5.851,24.509-9.645-1.107-19.369-2.215-29.094-3.323z" fill-rule="evenodd" stroke="#000" stroke-miterlimit="10" stroke-width=".036"/>
 <path d="m145.54,582.346c1.898.474 4.429.553 7.275.868 2.846.238 6.009.079 9.803.159-5.612-10.198-7.272-17.788-4.664-23.956 2.689-6.008 18.895-7.905 19.924-12.097 .554-4.664-15.97-11.147-15.733-15.18 .235-4.427 17.473-5.533 17.234-10.041-.789-4.586-15.811-11.305-20.318-16.761-4.427-5.613-6.64-10.989-6.325-16.443-4.823,2.055-7.195,4.506-6.798,7.352 .156,2.846 4.9,5.139 8.46,9.329 3.479,3.794 13.28,10.752 12.332,14.469-1.342,3.479-18.025,3.399-19.291,7.352-1.501,3.953 10.516,11.466 11.386,15.497 .712,3.32-3.401,4.586-6.245,6.562-3.084,2.057-10.279,4.19-11.228,6.403-1.027,1.819 3.953,1.583 4.9,6.01 .633,4.426.395,11.147-.712,20.477z" fill="url(#a)" fill-rule="evenodd" stroke="#000" stroke-miterlimit="10" stroke-width=".036"/>
 <path d="m73.662,503.54c1.739,1.897 2.528,3.638 2.057,5.535-.396,1.66-2.057,3.479-4.667,5.139 4.509-1.106 6.722-2.53 7.275-4.27 .395-1.819-1.265-3.953-4.665-6.404z" fill-rule="evenodd" stroke="#000" stroke-miterlimit="10" stroke-width=".036"/>
 <path d="m307.089,375.841c-.948,1.187-1.343,2.767-.869,4.744 .238,1.976 1.346,4.268 3.005,7.193-4.823-2.528-7.274-4.9-7.669-6.799-.318-1.977 1.423-3.793 5.533-5.138z" fill-rule="evenodd" stroke="#000" stroke-miterlimit="10" stroke-width=".036"/>
 <path d="m272.54,474.351c-.871,2.451-.871,5.062 0,8.144 .712,3.004 2.531,6.403 5.139,10.2-4.032-1.504-6.563-3.876-7.272-6.799-.872-3.084-.16-7.038 2.133-11.545z" fill-rule="evenodd" stroke="#000" stroke-miterlimit="10" stroke-width=".036"/>
 <path d="m265.741,474.826c-1.029,2.608-1.739,5.06-1.265,7.668 .079,2.372 1.345,4.902 2.925,7.274-3.558-2.372-5.297-4.902-5.535-7.274-.315-2.608.87-5.059 3.875-7.668z" fill-rule="evenodd" stroke="#000" stroke-miterlimit="10" stroke-width=".036"/>
 <path d="m221.546,92.483c-7.116.238-13.284-.791-18.817-3.083-5.692-2.293-10.198-6.562-14.389-10.673-4.19-4.428-7.749-9.093-10.674-14.864 1.978-2.056 4.823-3.479 8.54-3.954 3.635-.474 8.141-.315 13.518.792 .317-4.428 1.424-7.669 3.322-10.042 1.737-2.292 4.663-4.111 7.588-3.953 2.531-.159 6.957,1.107 8.699,3.479 1.816,2.372.553,7.669 1.975,10.356 1.107,2.292 2.847,3.795 5.219,4.191 2.689-8.618 7.195-15.417 13.52-20.398 6.245-5.059 14.31-8.223 24.192-9.803-.869,13.282-2.767,23.007-5.692,30.359-3.005,7.037-6.957,11.228-12.175,12.255 3.558,3.4 8.143,6.088 14.073,9.013 5.691,2.609 12.729,5.14 20.793,7.273-2.214,4.27-4.507,6.958-7.196,8.934-2.925,1.898-5.612,2.214-9.012,1.818 1.819,3.479 2.134,5.851.948,7.116-1.266,1.106-3.953,1.264-8.38.158 2.608,3.637 3.082,6.009 1.107,7.432-2.214,1.423-6.089,1.581-12.809.791-1.818-7.116-3.637-12.65-5.771-16.603-2.057-4.191-3.796-5.455-6.721-7.194-3.161-1.897-7.114-2.925-11.858-3.4z" fill-rule="evenodd" stroke="#000" stroke-miterlimit="10" stroke-width=".036"/>
 <path d="m200.989,61.096c.079-2.529.791-4.585 1.818-6.482 1.027-2.135 2.372-3.875 4.348-4.902 1.739-1.106 4.508-1.582 6.483-1.106 1.66.315 3.558,1.106 4.506,3.32 .871,2.056-.236,6.404 1.266,9.092 1.345,2.372 3.875,4.348 7.274,5.929 4.032-9.091 8.144-15.574 12.649-20.318 4.506-4.665 9.804-6.246 13.756-7.748 3.796-1.502 6.248-2.452 8.223-1.977 1.266,2.767 1.504,5.218.712,7.352-.87,1.978-2.687,3.637-5.771,4.981 2.768,1.898 3.717,3.954 3.164,6.167-.712,2.056-3.243,4.348-7.275,6.563 3.164.711 4.271,2.371 3.32,4.664-1.186,2.214-4.032,5.376-9.406,9.171-5.298-2.768-7.907-3.953-7.828-3.242-.159.554 3.479,3.953 7.828,6.878 4.347,2.688 12.096,7.037 17.708,9.725 5.219,2.609 9.883,4.111 13.994,5.376-2.687,4.507-5.376,6.958-8.935,7.669-3.558.632-7.352-.791-11.701-3.953 4.665,3.715 7.116,6.325 7.669,8.459 .238,2.055-2.607,3.716-4.9,3.479-2.293-.633-5.062-2.452-8.619-6.326 2.925,5.14 4.823,8.46 5.377,10.832 .396,2.056-.633,1.818-2.135,2.292-1.58.475-3.873.633-7.195.475-2.134-8.145-4.585-13.916-7.036-18.185-2.529-4.19-5.375-4.981-8.221-6.641-3.243-1.977-6.722-1.266-9.488-4.269-2.61-3.162-4.111-10.595-6.642-14.073-2.926-3.558-6.166-6.325-10.04-7.669-.87-1.581-1.818-2.688-2.53-3.636-.872-.948-1.661-1.581-2.373-1.897z" fill="#b87800" fill-rule="evenodd" stroke="#000" stroke-miterlimit="10" stroke-width=".036"/>
 <path d="m208.262,57.143c.477,1.028 1.741,1.423 2.769.949 1.107-.475 1.581-1.739 1.107-2.768s-1.74-1.423-2.847-.948c-1.029.475-1.503,1.74-1.029,2.767z" fill-rule="evenodd" stroke="#000" stroke-miterlimit="10" stroke-width=".036"/>
 <path d="m200.91,62.757c-1.343,1.186-1.976,2.372-2.531,3.242-.553.948-.71,1.581-.474,2.213 1.424.079 2.53-.158 3.638-.396 1.027-.316 2.057-.948 2.767-1.581-.554-.949-.948-1.818-1.502-2.292-.553-.712-1.186-1.108-1.898-1.186z" fill="#ff0" fill-rule="evenodd" stroke="#000" stroke-miterlimit="10" stroke-width=".036"/>
 <path d="m199.091,62.835c-3.558-.948-7.036-1.501-10.118-1.343-3.322,0-6.247.632-9.094,1.898 .395,3.003 2.214,5.455 4.586,7.668 2.294,2.214 6.009,3.874 10.279,5.297-1.504,1.186-1.978,2.451-1.424,3.795 .474,1.265 2.134,3.162 4.111,3.874 1.739.711 4.031.315 6.878-.316-.71.948-.633,2.056.553,3.003 1.029.712 2.926,1.978 5.694,2.531 2.767.395 5.851.711 10.118.633-1.422-1.978-2.451-4.27-3.398-6.563-1.027-2.529-.315-4.822-2.135-7.511-2.136-2.609-5.218-5.297-9.882-8.064-2.847,1.186-5.062,1.74-6.643,1.977-1.739.078-2.608-.159-2.926-1.028-.079-1.107.554-2.134 1.027-3.083 .478-.949 1.267-1.977 2.374-2.768z" fill="#b87800" fill-rule="evenodd" stroke="#000" stroke-miterlimit="10" stroke-width=".036"/>
 <path d="m128.729,60.068c-.556-2.767-1.978-4.981-3.401-6.641-1.818-1.977-4.032-3.4-6.325-3.954-2.451-.631-5.376-.79-7.511.475-2.213.949-4.981,4.032-5.851,6.246-1.106,2.135.397,4.507-.395,6.167-1.027,1.186-2.292,1.818-4.664,1.582-.554-5.06-1.425-9.409-2.61-13.361-1.187-3.875-2.293-6.8-4.823-9.962-2.926-3.716-9.407-9.725-11.858-10.752-2.61-1.027-2.61,2.767-3.005,5.297-.553,2.372-.474,5.534.236,9.487-2.685-2.056-5.533-3.795-8.536-4.901-3.163-1.266-6.485-2.135-9.964-2.609-1.422,5.771-1.976,11.227-1.66,16.05 .238,4.665-1.184,7.985 3.32,12.729 4.429,4.744 11.782,9.803 22.69,15.496-1.66,3.083-5.454,5.296-11.699,6.641-6.248,1.106-14.706,1.739-25.378,1.027 1.896,3.162 4.427,5.534 7.272,7.116 2.767,1.581 6.166,2.292 9.883,2.45-3.164,2.531-4.032,4.428-2.609,5.693 1.424,1.027 4.822,1.423 10.832,1.186-2.451,3.399-3.164,6.008-2.134,7.511 1.024,1.344 3.319,1.897 7.746,1.344l10.595-18.264c7.905.08 14.232-1.898 18.975-5.06 4.587-3.795 5.851-11.068 9.014-15.101 3.084-3.953 5.771-6.562 8.935-8.143 2.449.159 4.269.316 5.77.159 1.424-.159 2.213-.475 2.689-.949-.633-1.739-1.66-3.162-2.451-4.269-.952-1.266-1.977-2.057-3.083-2.69z" fill-rule="evenodd" stroke="#000" stroke-miterlimit="10" stroke-width=".036"/>
 <path d="m126.356,60.306c-.712.633-1.029,1.345-1.266,2.451-.238.87-.396,2.056-.158,3.557-3.005,1.74-5.615,3.558-7.511,5.772-2.055,1.976-2.849,4.426-4.19,7.036-1.502,2.61-2.768,6.246-4.98,8.776-2.689,2.292-6.01,4.032-9.646,5.218-3.638,1.028-7.511,1.423-11.938,1.186l-10.041,18.105c-1.819.396-3.32,0-3.638-.87-.554-1.028-.554-2.688.633-4.665 1.026-2.372 6.089-6.878 5.694-7.433-.794-.553-6.327,4.111-8.936,4.824-2.689.553-6.168,0-6.482-1.027-.475-1.108.791-3.005 3.793-5.693-2.449.237-4.585.475-6.404.08-2.133-.475-3.555-.949-5.139-2.056-1.58-1.028-2.846-2.609-3.795-4.428 10.518.316 18.581-.711 24.509-2.45 5.933-2.056 9.094-4.823 10.359-8.935-4.903-2.134-8.382-3.953-11.384-5.455-3.164-1.582-5.615-2.767-6.09-3.875-.553-1.344.475-2.767 3.082-4.269-4.031-.474-6.166-1.186-7.352-2.45-1.107-1.186-.948-2.925.791-4.903-2.688-1.897-4.587-4.348-5.377-7.668-1.027-3.4-1.027-7.432 0-12.097 6.087,1.424 11.307,3.479 15.97,6.483 4.508,3.005 7.434,6.958 11.228,10.91 3.638,3.479 6.643,8.935 9.883,10.595 3.084,1.423 6.563.08 8.302-1.265 1.424-1.501.079-4.822.871-6.958 .63-2.292 1.66-4.822 3.397-6.088 1.741-1.423 4.429-2.292 6.88-1.976 2.134,0 4.902,1.423 6.481,3.084 1.504,1.661 2.216,3.717 2.454,6.484z" fill="#b87800" fill-rule="evenodd" stroke="#000" stroke-miterlimit="10" stroke-width=".036"/>
 <path d="m82.556,46.707c-1.345-1.502-2.134-3.399-2.372-5.692-.474-2.61-.712-8.459.791-8.697 1.502-.316 5.454,3.32 8.223,6.641 2.449,2.846 5.296,7.431 6.72,11.622 1.501,4.189 1.898,8.222 1.816,12.966-2.29-3.479-4.662-6.246-7.114-9.171-2.61-2.925-5.298-5.376-8.064-7.669z" fill="#b87800" fill-rule="evenodd" stroke="#000" stroke-miterlimit="10" stroke-width=".036"/>
 <path d="m117.447,55.667c1.223,0 2.214.957 2.214,2.134s-.991,2.135-2.214,2.135-2.213-.957-2.213-2.135 .991-2.134 2.213-2.134" fill-rule="evenodd" stroke="#000" stroke-miterlimit="10" stroke-width=".036"/>
 <path d="m127.225,61.334c1.187.078 1.976.553 3.005,1.423 .869.87 1.66,1.897 2.372,3.399-.712.237-1.583.474-2.61.396-1.106-.159-2.371-.316-3.794-.791-.317-1.344-.237-2.371-.079-3.083 .078-.711.553-1.266 1.106-1.344z" fill="#ff0" fill-rule="evenodd" stroke="#000" stroke-miterlimit="10" stroke-width=".036"/>
 <path d="m181.224,256.142c-.315-2.372-.238-4.665.554-6.563 .791-2.372 1.978-4.191 3.873-5.455 1.739-1.345 3.876-2.451 6.404-2.135 2.136.079 5.141,1.739 6.88,3.162 1.343,1.266 1.343,3.954 2.449,4.981 1.187.712 2.531.712 4.35-.316-1.345-4.348-2.134-8.301-2.372-11.859-.554-3.795-.474-6.167.554-9.883 .947-4.111 4.347-11.148 6.245-12.887 1.58-1.818 3.005,1.424 4.27,3.321 1.027,1.897 2.293,4.428 2.926,7.907 1.422-2.688 3.24-4.902 5.456-6.958 2.055-2.135 4.506-3.954 7.352-5.456 3.084,4.428 5.456,8.539 6.799,12.65 1.266,4.189 3.479,5.929 1.504,11.622-2.137,5.297-6.404,12.255-13.441,20.556 2.372,1.898 6.325,2.609 11.858,1.502 5.614-1.186 12.413-3.558 21.348-7.748-.633,3.162-1.818,5.929-3.558,8.301-1.898,2.372-4.35,3.875-7.354,5.377 3.322,1.106 4.982,2.371 4.111,3.795-.633,1.264-3.794,2.925-8.617,4.665 3.164,1.977 4.506,3.794 4.35,5.455-.477,1.423-2.136,2.767-5.93,3.716l-14.942-11.464c-6.642,2.688-12.334,3.321-17.396,2.214-5.06-1.502-8.933-6.958-12.57-9.33-3.794-2.372-7.272-3.321-10.118-3.716-2.057.87-3.401,1.66-4.667,2.056-1.343.237-1.976.395-2.528.158 0-1.739.079-3.083.553-4.348 .235-1.266.788-2.372 1.657-3.32z" fill-rule="evenodd" stroke="#000" stroke-miterlimit="10" stroke-width=".036"/>
 <path d="m183.201,255.587c.71.238 1.343.87 1.896,1.582 .397.633.95,1.581 1.345,2.846 3.164.474 5.771,1.028 8.144,2.292 2.293.949 3.638,2.609 5.851,4.349 2.055,1.582 4.111,4.348 7.116,5.534 2.846,1.028 6.166,1.266 9.645,1.028 3.399-.316 6.722-1.423 10.277-3.004l14.469,11.542h.002c1.66-.474 2.449-1.027 2.688-1.977 .079-1.027-.633-2.45-2.135-3.636-1.818-1.345-7.354-3.874-7.195-4.19 .08-.553 6.643,1.186 9.012.949 2.216-.632 4.903-1.976 4.982-3.084 .079-1.186-1.897-2.213-5.06-3.399 2.055-.632 3.715-1.027 5.298-2.056 1.501-1.106 2.607-1.976 3.635-3.479 .95-1.581 1.266-2.925 1.581-4.902-8.694,3.795-15.495,5.771-21.028,6.246-5.456.316-9.33-.869-11.622-3.874 3.319-3.399 5.454-6.087 7.59-8.38 1.896-2.293 3.635-4.032 3.715-5.218-.08-1.186-1.422-2.294-4.032-2.451 3.005-1.582 4.665-3.321 5.297-4.585 .475-1.423-.314-2.688-2.372-3.795 1.504-2.372 2.214-5.061 1.819-8.064-.475-3.005-1.819-6.326-4.032-9.962-4.665,3.32-8.223,6.799-10.989,10.752-2.61,3.875-4.271,8.46-5.612,12.808-1.662,4.111-2.849,9.566-4.509,12.096-2.134,2.214-5.691,2.292-7.352,1.739-1.898-.791-1.898-3.953-3.084-5.535-1.266-1.817-3.161-3.32-4.821-3.873-2.057-.553-4.588-.316-6.327.711-1.975.949-3.635,2.846-4.347,4.823-.795,1.741-.636,3.796.155,6.167z" fill="#b87800" fill-rule="evenodd" stroke="#000" stroke-miterlimit="10" stroke-width=".036"/>
 <path d="m214.745,229.498c.554-1.66.554-3.479 0-5.455-.789-2.372-2.293-7.037-3.558-6.958-1.422.08-3.636,4.744-4.506,8.223-1.187,3.479-1.819,7.668-1.581,11.938 .159,3.954 1.106,7.512 2.846,11.307 .633-3.637 1.66-6.879 2.767-10.042 1.027-3.4 2.372-6.088 4.032-9.013z" fill="#b87800" fill-rule="evenodd" stroke="#000" stroke-miterlimit="10" stroke-width=".036"/>
 <path d="m187.786,251.161c.396.948 1.581,1.423 2.608.948 1.027-.395 1.503-1.502 1.106-2.53-.395-.949-1.501-1.423-2.528-.949-1.106.396-1.582,1.502-1.186,2.531z" fill-rule="evenodd" stroke="#000" stroke-miterlimit="10" stroke-width=".036"/>
 <path d="m182.805,256.773c-.948.396-1.502,1.106-1.978,2.135-.554.87-.71,2.056-.789,3.558 .633.158 1.501-.316 2.292-.553 .792-.475 1.739-1.107 2.847-1.898-.236-1.265-.554-2.135-.948-2.609-.395-.474-.872-.79-1.424-.633z" fill="#ff0" fill-rule="evenodd" stroke="#000" stroke-miterlimit="10" stroke-width=".036"/>
</svg>
