<?xml version="1.0" encoding="UTF-8"?>
<svg enable-background="new 0 0 377 613" viewBox="0 0 377 613" xmlns="http://www.w3.org/2000/svg">
 <defs>
  <linearGradient id="d" x1="199.59" x2="163.05" y1="16.667" y2="223.91" gradientUnits="userSpaceOnUse">
   <stop stop-color="#5fe5ff" offset="0"/>
   <stop stop-color="#007f6f" offset="1"/>
  </linearGradient>
  <linearGradient id="c" x2="0" y1="583.15" y2="179.24" gradientUnits="userSpaceOnUse">
   <stop stop-color="#009f2f" offset="0"/>
   <stop stop-color="#9fffb1" offset="1"/>
  </linearGradient>
  <linearGradient id="b" x1="266.31" x2="333.18" y1="120.46" y2="187.34" gradientUnits="userSpaceOnUse">
   <stop stop-color="#00ff0c" offset="0"/>
   <stop stop-color="#007f33" offset="1"/>
  </linearGradient>
  <linearGradient id="a" x1="145.1" x2="203.89" y1="235.11" y2="293.89" gradientUnits="userSpaceOnUse">
   <stop stop-color="#00ff0c" offset="0"/>
   <stop stop-color="#007f33" offset="1"/>
  </linearGradient>
 </defs>
 <switch opacity=".75"/>
 <path d="m9.578 404.19c43.623 1.174 87.245 2.347 130.87 3.599-1.621 15.798-3.242 31.678-4.863 47.556h89.871c-1.545-24.639-3.091-49.355-4.712-74.071-31.73-3.364-63.465-6.727-95.275-10.169 1.469-44.349 3.012-88.698 4.558-133.12h73.036c1.932-21.51 3.862-43.019 5.869-64.529-28.488-3.128-57.057-6.258-85.624-9.387 0.232 18.225 0.54 36.449 0.851 54.752-37.989-3.833-75.974-7.744-113.96-11.655 0.62-63.981 15.057-112.71 44.01-146.89s69.952-51.623 123.69-51.623c50.033 0 88.638 14.548 116.36 44.349 27.793 29.801 41.611 72.038 41.611 125.77 0 29.097-6.019 52.406-18.066 69.848-11.427 16.738-32.58 31.991-62.149 45.053 32.581 8.76 57.366 24.715 73.577 46.539 16.29 22.526 24.785 50.92 24.785 85.804 0 49.434-16.29 89.403-48.256 119.2-31.965 30.584-75.433 45.131-129.09 45.131-58.527 0-100.76-12.357-127.86-38.562-27.178-25.418-40.456-65.388-40.456-119.98v-10.167c0-3.599 0.616-9.465 1.235-17.444z" fill-rule="evenodd"/>
 <path d="m323.89 179.24c0-53.813-15.826-94.173-43.543-123.97s-58.372-39.422-108.4-39.422c-53.659 0-81.146 16.269-110.1 50.45s-42.001 68.284-42.542 132.26c32.043 2.738 64.085 5.554 96.126 8.37v-51.389c33.896 3.989 67.788 7.979 101.76 11.967-0.771 12.749-1.542 25.499-2.317 38.248l21.389 9.542 64.625-11.732 23.005-24.325z" fill="url(#d)" fill-rule="evenodd"/>
 <path d="m112.729,112.13c15.75,3.52 29.108,4.536 40.07,3.91 10.887-.704 19.303-3.91 25.557-8.76 .926,5.475 4.478,8.291 10.656,8.76 6.099.157 14.669-1.563 26.017-6.336 2.551,2.895 5.869,4.537 10.581,4.928 4.554.392 10.191-.704 16.906-2.972-7.104,5.163-12.894,8.212-17.371,8.838-4.633.626-7.645-1.017-9.651-4.928-11.737,4.224-20.692,6.415-27.487,6.883-6.794.313-11.041-1.173-13.048-4.458-10.347,3.911-20.538,5.397-30.884,4.458-10.501-1.015-20.845-4.457-31.346-10.323z" fill-rule="evenodd"/>
 <path d="m171.639,82.016c11.734,2.502 21.851,3.598 30.036,2.972 8.336-.704 14.359-2.816 19.223-6.648 .774,4.146 3.321,6.258 7.954,6.648 4.633.234 11.038-1.25 19.533-4.771 1.851,2.112 4.633,3.441 8.029,3.676 3.397.157 7.721-.469 12.663-2.19-5.403,3.911-9.651,6.1-13.048,6.571-3.478.468-5.794-.861-7.26-3.676-8.88,3.05-15.439,4.771-20.613,5.162-5.173.234-8.34-.86-9.806-3.286-7.875,2.894-15.29,3.989-23.165,3.286-7.794-.783-15.749-3.364-23.546-7.744z" fill-rule="evenodd"/>
 <path d="m134.423,56.361c6.254,1.173 11.196,1.876 15.675,1.486 4.168-.47 7.489-1.408 9.961-3.442 .308,2.034 1.696,3.285 4.168,3.442 2.316.156 5.791-.783 10.116-2.504 .848,1.173 2.236,1.721 4.167,1.957 1.699,0 4.016-.392 6.64-1.173-2.856,1.955-5.019,3.207-6.794,3.441-1.852.234-3.012-.392-3.783-1.878-4.633,1.643-8.104,2.425-10.731,2.66-2.702.079-4.402-.391-5.096-1.721-4.093,1.33-8.107,2.19-12.045,1.721-4.169-.469-8.262-1.799-12.278-3.989z" fill-rule="evenodd"/>
 <path d="m214.87 205.76-5.943 39.421h-72.961c-0.695 39.578-1.467 79.156-2.239 118.81 31.732 3.363 63.467 6.727 95.277 10.168 1.541 28.63 3.087 57.257 4.708 85.962l-106.09-1.174c1.392-15.408 2.782-30.816 4.248-46.305-38.219-0.782-76.436-1.643-114.66-2.502-0.617 8.056-1.233 13.845-1.233 17.44v10.248c0 54.518 14.282 81.659 41.461 107.08 27.098 26.204 60.608 38.249 119.06 38.249 53.659 0 89.481-8.525 121.45-39.108 31.965-29.801 48.255-69.77 48.255-119.2 0-34.964-9.881-56.864-26.172-79.391-16.29-21.822-49.876-40.204-82.457-48.964 29.569-13.062 56.821-30.739 68.249-47.478 12.047-17.443 18.066-40.673 18.066-69.77-7.256 5.71-14.435 8.917-22.004 9.621-7.641 0.704-15.44-6.258-23.16-5.319-7.8 1.017-16.445 9.464-23.164 11.186-6.715 1.72-10.112-2.739-16.906-0.939-6.875 1.878-14.675 5.79-23.786 11.968z" fill="url(#c)" fill-rule="evenodd"/>
 <path d="m17.221,409.902 67.173,1.799c-1.389,10.639-4.17,20.259-8.958,29.175-4.938,8.76-10.267,17.364-19.532,24.015-9.342,6.411-21.233,11.573-35.979,15.172-2.009-10.245-3.707-19.865-4.247-29.174-.773-9.542-.386-19.869 0-26.751 .154-7.038.77-11.498 1.543-14.236z" fill="#ede9b0" fill-rule="evenodd"/>
 <path d="m19.615,479.204c-.541,2.347.463,6.882 3.012,13.608 2.471,6.647 7.257,18.381 11.967,26.437 4.554,7.9 10.347,14.393 15.905,20.417 5.326,5.709 11.04,10.167 16.831,13.688 3.012.859 5.714.233 8.415-1.878 2.547-2.269 7.721-5.319 7.18-10.951-1.08-5.709-5.094-14.002-11.734-23.073-6.717-9.387-20.384-24.249-27.565-31.601-7.255-7.352-12.353-10.481-15.285-11.81-3.242-1.487-2.161,2.423-3.321,2.973-1.312.469-2.702.391-4.168-.235-.387.783-.774,1.563-1.237,2.425z" fill="#c080ff" fill-rule="evenodd"/>
 <path d="m49.031 467c-0.308 2.972 1.003 6.725 5.405 15.486 4.323 8.683 10.347 26.984 20.999 35.588 10.579 8.135 33.511 17.521 42.312 14.002 8.57-3.91 13.434-25.733 9.266-35.902-4.478-10.403-24.245-19.085-35.132-25.186-11.192-6.415-24.476-10.168-30.574-11.263-6.175-1.097-4.4 3.128-6.329 4.536-2.163 1.096-5.947-0.313-5.947 2.739z" fill="#c080ff" fill-rule="evenodd"/>
 <path d="m67.716,444.631c1.158,2.815 3.707,5.943 11.196,11.889 7.489,6.024 20.383,20.571 33.432,23.778 13.123,3.206 26.559,2.659 38.68-2.66s9.883-18.536 9.883-18.536c-11.039-.157-22.158-.393-33.278-.626 .775-9.075 1.546-18.147 2.396-27.298l-25.48-.313c-12.584-1.018-22.39.47-28.568,2.033-6.02,1.487-2.547,4.771-3.938,6.727s-5.481,2.19-4.323,5.006z" fill="#c080ff" fill-rule="evenodd"/>
 <path d="m58.22,456.909c.617,2.818 2.392,6.415 8.88,13.769 6.484,7.195 16.058,23.777 28.719,29.564 12.122,5.478 36.753,8.84 44.397,3.442 7.489-6.101 7.103-27.923.616-37.074-7.025-8.917-27.718-12.985-39.993-16.112-12.355-3.365-26.02-4.067-32.351-3.599-6.177.39-3.705,4.067-5.096,5.945-1.853,1.564-5.944,1.017-5.172,4.065z" fill="#c080ff" fill-rule="evenodd"/>
 <path d="m33.126,470.207c-1.158,2.582-.849,7.119 1.235,16.349 1.854,9.463 3.01,28.784 10.965,39.891 8.03,10.794 27.64,25.891 37.136,24.794 9.266-1.485 19.535-21.04 18.299-32.069-1.698-11.184-18.221-24.949-27.254-33.711-9.344-8.996-20.771-16.348-26.56-19.007-5.559-2.582-5.096,1.722-7.26,2.659-2.316.314-5.789-1.642-6.561,1.094z" fill="#c080ff" fill-rule="evenodd"/>
 <path d="m74.279,426.72c1.544,2.658 4.554,5.318 12.815,10.089 8.338,4.771 5.946,4.303 16.213,8.603s20.383,1.566 25.481-.858l1.852-12.515 .85-20.022-37.138-.627c-12.584.938-7.798,0-13.664,2.502-5.714,2.425-1.776,5.084-2.857,7.275-1.08,2.11-5.098,2.971-3.552,5.553z" fill="#c080ff" fill-rule="evenodd"/>
 <path d="m131.181,419.601c-5.481.314-10.962.235-16.753.626-5.946.078-16.523,0-17.989.626s3.317,1.643 9.266,2.736c5.711.862 14.129,1.566 25.246,2.426 .074-2.111.154-4.222.23-6.414z" fill="#6121a1" fill-rule="evenodd"/>
 <path d="m130.024,434.229c-6.409-.235-12.508-.548-17.991-1.253-5.789-.704-15.439-3.831-15.595-3.051-.232.704 9.031,4.772 14.669,6.729 5.559,1.643 11.658,2.737 18.607,3.284 .078-1.878.155-3.755.31-5.709z" fill="#6121a1" fill-rule="evenodd"/>
 <path d="m129.1 475.53c-5.019-2.58-14.207-5.319-22.159-8.213-8.183-2.972-27.795-10.325-25.788-8.526 2.008 1.722 28.492 15.645 37.756 19.477 9.188 3.363 14.901 3.287 16.833 2.738 1.54-0.547-1.777-3.364-6.642-5.476z" fill="#6121a1" fill-rule="evenodd"/>
 <path d="m80.224,468.253c.54,1.407 17.681,17.364 24.012,21.587 6.332,3.834 13.512,4.146 13.201,2.737-.771-1.722-10.651-7.195-16.83-11.263-6.485-4.3-20.924-14.392-20.383-13.061z" fill="#6121a1" fill-rule="evenodd"/>
 <path d="m54.127 486.79c5.096 4.613 30.884 28.234 35.672 34.648 4.398 5.867-3.632 5.867-8.649 1.487-5.404-4.536-17.682-21.589-22.234-27.611-4.789-6.255-9.963-12.906-4.789-8.524z" fill="#6121a1" fill-rule="evenodd"/>
 <path d="m43.625 490.7c2.396 5.71 16.525 35.589 19.768 40.437 3.087 4.382 1.776-7.431-0.618-13.062-2.624-5.71-10.887-16.503-14.051-20.961-3.243-4.771-7.721-12.047-5.099-6.414z" fill="#6121a1" fill-rule="evenodd"/>
 <path d="m27.412,424.763c-.848.235-.54,4.46.618,5.162 .926.393 5.096-1.016 5.096-1.797-.308-.94-4.786-3.677-5.714-3.365z" fill="#e6d46b" fill-rule="evenodd"/>
 <path d="m39.072,417.802c-.851.235-.541,4.46.615,5.162 .928.471 5.099-1.171 5.099-1.876-.31-.94-4.788-3.755-5.714-3.286z" fill="#e6d46b" fill-rule="evenodd"/>
 <path d="m50.189,426.015c-.851.235-.541,4.458.617,5.163 .929.469 5.097-1.174 5.097-1.878-.31-.939-4.788-3.754-5.714-3.285z" fill="#e6d46b" fill-rule="evenodd"/>
 <path d="m49.571,442.675c-.848.235-.54,4.458.618,5.163 .926.393 5.096-1.018 5.096-1.8-.307-.938-4.786-3.676-5.714-3.363z" fill="#e6d46b" fill-rule="evenodd"/>
 <path d="m34.902,444.864c-.849.235-.541,4.46.617,5.162 .926.472 5.096-1.173 5.096-1.875-.307-.94-4.785-3.755-5.713-3.287z" fill="#e6d46b" fill-rule="evenodd"/>
 <path d="m25.946,457.614c-.928.236-.463,4.457.54,5.162 .849.469 4.941-1.174 5.096-1.875-.31-.939-4.863-3.755-5.636-3.287z" fill="#e6d46b" fill-rule="evenodd"/>
 <path d="m22.935,442.988c-.928.234-.463,4.458.54,5.163 1.004.391 5.021-1.019 5.174-1.8-.309-.94-4.787-3.676-5.714-3.363z" fill="#e6d46b" fill-rule="evenodd"/>
 <path d="m61.616,417.178c-.851.233-.54,4.458.618,5.162 .926.391 5.096-1.019 5.096-1.8-.309-.939-4.788-3.676-5.714-3.362z" fill="#e6d46b" fill-rule="evenodd"/>
 <path d="m22.935,412.016c-.928.233-.463,4.457.54,5.162 1.004.391 5.021-1.019 5.174-1.8-.309-.94-4.787-3.677-5.714-3.362z" fill="#e6d46b" fill-rule="evenodd"/>
 <path d="m78.68,431.491c4.556,3.596 8.956,6.335 13.511,9.072 4.248,2.581 6.564,5.32 12.894,6.414 6.409.78 14.517.469 24.94-.939l.308-3.676c-7.489,2.033-13.896,3.049-18.917,3.049-5.018-.154-6.562-.78-11.734-3.049-5.406-2.346-12.509-5.866-21.002-10.871z" fill-rule="evenodd"/>
 <path d="m75.976,444.864c1.236-.155 17.296,2.974 24.94,4.851 7.335,1.721 13.819,3.832 20.073,6.021 6.254,1.878 12.663,3.52 17.141,6.414 3.938,2.661 6.64,6.024 8.107,11.265 1.389,5.396 1.774,15.094 1.158,20.649-.618,5.005-.54,8.446-5.096,10.636-5.021,2.192-16.293,2.895-23.702,2.426-7.49-.548-14.284-2.269-20.693-5.475-6.64-3.44-12.045-6.807-18.297-14.001-6.719-7.588-18.068-26.048-20.385-29.722-2.239-3.521 1.854,2.111 6.872,8.135 4.863,5.71 13.666,20.179 21.618,26.514 7.72,5.867 16.136,8.604 24.32,10.325 7.8,1.564 17.371,1.644 22.469.549 4.786-.94 5.404-2.347 6.949-6.649 1.467-4.458 2.857-14.549 1.774-20.023-1.389-5.632-1.313-8.918-9.573-13.141-8.493-4.536-30.652-10.013-40.226-13.063-9.65-3.207-18.838-5.711-17.449-5.711z" fill-rule="evenodd"/>
 <path d="m46.329,468.564c3.86,1.331 8.263,3.756 13.512,7.588 5.25,3.754 11.427,9.308 17.371,14.861 5.713,5.476 13.127,11.654 16.832,17.364 3.32,5.24 4.711,9.698 4.479,15.175-.308,5.396-2.704,12.671-5.714,16.972-3.165,3.911-7.952,7.666-12.585,7.666-4.788-.235-10.191-3.677-15.596-7.354-5.559-3.596-12.973-7.116-17.141-13.92-4.556-7.04-6.563-18.069-8.956-27.378-2.394-9.541-4.402-19.161-5.713-29.174-.851,5.397-.851,11.576 0,18.538 .771,6.962 2.472,15.564 4.788,22.76 1.929,6.65 4.63,12.829 8.723,18.227 4.17,5.553 11.04,10.324 16.754,14.313 5.713,3.753 11.736,7.509 16.83,8.211 4.713.235 8.495-1.484 12.277-5.474 3.628-4.38 8.03-12.671 9.651-18.539 1.621-5.631 2.702-10.088-.618-16.112-3.938-6.726-14.129-15.33-21.311-22.213-7.255-6.805-15.75-14.471-21.309-17.911-5.634-3.678-9.725-4.772-12.274-3.6z" fill-rule="evenodd"/>
 <path d="m100.606,528.089c5.483,1.722 10.191,2.423 13.821,1.8 3.475-.626 5.48-2.113 7.797-5.713 2.239-3.831 3.938-9.932 5.403-17.676l3.013-.859c-1.776,8.29-3.473,14.547-5.094,19.086-1.856,4.3-3.167,6.257-5.406,7.663-2.472,1.095-5.173,1.095-8.726.861-3.55-.156-7.642-.547-12.275-1.486 .464-1.174.926-2.423 1.467-3.676z" fill-rule="evenodd"/>
 <path d="m145.619,481.314c3.628,0 6.717-1.095 9.266-2.426 2.547-1.563 4.168-3.205 6.021-6.725 1.544-3.833 2.857-8.604 3.63-15.176l-6.023.313c.232,3.911.232,7.354-.616,10.012-1.005,2.425-2.008,4.46-4.172,6.102-2.161,1.721-5.171,3.127-8.723,4.223 .154,1.174.387,2.426.617,3.677z" fill-rule="evenodd"/>
 <path d="m78.987,549.364c-1.003,1.954-2.006,3.362-3.859,4.536-1.93,1.173-3.86,1.8-6.64,2.19l-3.012-2.19c2.316-.392 4.325-1.095 6.021-1.799 1.7-.861 3.012-1.878 4.247-3.051 .541.156 1.236.156 1.776.313 .542-.077.927-.077 1.467.001z" fill-rule="evenodd"/>
 <path d="m306.445,92.418c-7.18-1.485-12.508-1.095-17.141.547-4.478,1.721-10.346,5.085-9.881,9.777 .154,4.537 3.857,10.403 11.117,17.599-10.887-2.268-18.302-2.581-23.395-.938-4.943,1.485-5.869,6.726-6.33,10.638-.774,3.91-1.16,9.385 2.702,12.514 3.938,2.815 10.422,4.928 20.383,5.475-12.817,2.815-21.003,5.631-24.86,9.385-3.938,3.599.926,7.979 1.775,11.89 .691,3.676-1.775,9.23 3.008,10.012 4.713.392 12.433-1.564 24.32-6.726-9.416,7.43-15.439,13.609-17.756,18.85-2.547,5.083-1.852,10.95 3.321,11.889 5.324.86 14.129-1.486 27.638-6.727 1.621,2.502 2.011,6.18 1.16,12.202-.926,5.553-3.012,15.956-6.563,22.449-3.707,6.57-8.726,11.732-15.055,16.425 8.03-5.475 13.743-8.212 16.831-8.212 3.012-.156-.465,7.196 1.775,8.212s5.944.313 11.428-2.111c7.8-11.263 13.203-24.951 16.215-41.377 3.008-16.504 4.783-38.561 1.466-57.099-3.625-18.85-10.73-36.761-22.158-54.674z" fill-rule="evenodd"/>
 <path d="m322.351,198.168c1.312-8.526 2.007-16.739 2.086-26.124-.154-9.465-.85-19.007-2.396-28.941-1.621-10.167-5.019-21.978-7.255-30.035-2.472-8.056-4.868-13.844-7.185-17.678-6.02-.469-10.422-.156-13.818.939-3.553.861-6.64.782-6.254,5.163 .385,4.223 3.166,11.106 8.646,20.649-8.261-.86-15.055-.547-20.073.626-5.248,1.173-9.341,4.224-10.807,6.727-1.621,2.346-2.086,4.771 1.852,7.899 3.938,3.05 10.731,6.179 21.232,10.012-1.08,1.799-3.861,3.441-8.029,5.788-4.479,2.113-15.055,4.223-17.451,7.275-2.547,2.971 2.316,7.117 3.012,10.011 .62,2.737-3.627,5.788.926,5.788 4.479-.234 12.663-2.659 25.48-7.274-.926,3.52-2.316,6.962-4.478,10.325-2.396,3.207-6.794,5.945-8.415,9.386-1.932,3.442-2.241,8.291-1.236,10.012 1.002,1.095 3.703.077 8.105-1.8 4.479-1.876 10.191-5.006 17.991-9.385-1.546,7.352-.926,11.811 2.161,13.688 3.088,1.72 8.106.704 15.906-3.051z" fill="url(#b)" fill-rule="evenodd"/>
 <path d="m305.826,204.504c1.16,1.095 2.856,1.408 5.713,1.251 2.781-.234 6.179-1.251 10.502-2.737 0,4.771-1.312,10.325-3.317,17.286-2.087,6.805-5.483,14.704-9.576,23.699-3.628.86-5.638.782-6.64-.547-1.005-1.408 1.697-6.257.926-7.352-1.08-1.331-3.087-1.018-6.639.313 2.777-5.867 4.787-11.42 6.329-16.661 1.466-5.397 2.472-10.481 2.702-15.252z" fill="#ad4200" fill-rule="evenodd"/>
 <path d="m212.481,227.5c.771.39 2.392,1.095 4.863,2.737 2.472,1.329 7.645,3.128 9.576,6.336 1.696,3.285 3.396,8.448.615,12.75-2.856,3.91-8.876,7.665-17.756,11.264 6.563,3.206 10.576,6.96 11.736,11.888 1.236,4.693.23,15.175-4.478,16.973-5.098,1.644-12.897-.469-24.63-6.648 2.471,12.516 2.471,21.118 0,26.125-2.857,4.928-8.65,5.943-15.29,3.05-6.714-3.442-14.824-10.637-24.628-22.526-.849,7.822-.849,14.941 0,22.526 .849,7.275 2.549,14.08 5.096,21.589 2.472,7.431 5.789,15.018 9.961,23.074-7.182-4.457-11.892-5.397-14.438-3.677-2.547,1.643-2.857,6.805-.926,14.627l-21.852-1.565 4.17-123.034 71.11-.626 1.466-14.626 5.405-.237z" fill-rule="evenodd"/>
 <path d="m211.632,230.472c4.557,1.799 7.645,4.146 9.266,7.04 1.466,2.581 2.856,6.101 0,9.699-3.242,3.52-9.031,7.978-18.297,12.515 7.875,5.084 12.583,9.62 14.129,13.922 1.391,4.302-.695,10.169-5.098,11.264-4.709.782-11.733-1.251-21.925-6.414 .306,8.995-.465,15.8-1.471,20.728-1.231,4.615-1.852,9.23-5.711,8.76-4.093-.78-13.281-6.647-18.299-10.949-5.249-4.146-9.342-8.683-12.584-13.61-.928,6.493-2.626,10.637-5.405,13.375-2.935,2.425-6.642,3.13-11.427,1.799l.928-54.125h72.575c1.082-4.618 2.163-9.311 3.319-14.004z" fill="url(#a)" fill-rule="evenodd"/>
 <path d="m147.705,299.772c.386,5.163.693,9.933 1.234,14.626 .463,4.458-.232,6.805 1.775,12.75 1.854,5.709 4.941,13.219 9.574,22.213-4.093.235-6.795.626-8.956,1.487-2.086.626-2.702.938-3.321,3.362-.847,2.426-1.542,6.18-1.774,11.263l-12.896-1.249 1.16-62.262c2.777,1.485 5.174,2.189 7.49,1.799 2.083-.468 4.091-1.798 5.714-3.989z" fill="#ad4200" fill-rule="evenodd"/>
 <path d="m212.251,204.739c6.795-4.693 12.584-8.135 17.682-10.325 4.938-2.268 8.726-2.894 12.273-3.051 3.321-.313 1.545,2.816 8.109,1.252 6.409-1.8 16.136-5.867 30.034-11.89l-4.863,9.464c-5.559,3.207-11.042,5.319-16.445,6.335-5.483.705-11.893-1.095-16.215-.86-4.558.313-5.869.234-10.812,2.738-5.174,2.502-11.578,5.944-19.533,11.498-.075-1.719-.154-3.441-.23-5.161z" fill-rule="evenodd"/>
 <path d="m303.358,417.178c1.696-1.019 3.858-1.721 6.175-1.8 2.316-.313 5.403-.704 8.029.626 2.393,1.174 5.789,3.832 6.64,6.491 .54,2.425-.771,6.022-2.161,8.056-1.546,1.8-4.013,2.815-6.175,3.052-2.396-.078-4.867-.938-7.414-2.895-2.626-2.032-5.328-4.927-8.105-8.682 1.001-1.564 2.007-3.207 3.011-4.848z" fill-rule="evenodd"/>
 <path d="m305.055,417.489c3.088-.938 5.944-1.252 8.261-.938 2.316.156 4.402.938 5.948,2.347 1.466,1.329 3.628,3.207 3.548,5.632-.075,1.876-2.392,5.631-4.013,6.727-1.701,1.016-4.323.938-6.409.078-2.392-1.017-5.868-4.225-7.489-5.71-1.697-1.642-2.777-2.815-2.933-3.831 1.001-1.41 2.007-2.819 3.087-4.305z" fill="#ff0080" fill-rule="evenodd"/>
 <path d="m294.093,412.249c-1.235-1.564-2.316-3.363-2.937-5.71-.926-2.426-1.541-5.553-1.001-8.135 .461-2.737 2.856-6.647 5.094-7.82 2.241-1.488 5.868-.394 8.185.547 1.932,1.095 3.628,3.051 4.168,5.553 .386,2.113-.075,4.85-1.386,7.898-1.471,2.896-3.632,6.26-6.795,9.777l-5.328-2.11z" fill-rule="evenodd"/>
 <path d="m294.093,410.528c-1.466-3.051-2.316-5.631-2.551-8.057-.23-2.347.155-4.536 1.16-6.257 .771-1.879 2.781-4.458 4.788-4.694 2.161-.468 5.479,1.017 7.255,2.661 1.235,1.328 1.776,3.832 1.315,6.334-.775,2.582-2.702,6.259-4.018,8.605-1.235,2.111-2.392,3.128-3.162,3.675-1.545-.703-3.166-1.484-4.787-2.267z" fill="#ff0080" fill-rule="evenodd"/>
 <path d="m293.628,416.785c-1.776,1.173-3.552,1.721-5.944,2.268-2.547.314-5.559.94-8.105.078-2.551-1.094-6.408-3.674-7.104-5.944-.851-2.58-.08-6.336 1.466-8.211 1.156-2.189 3.552-3.363 5.944-3.521 2.161-.314 4.787.547 7.568,2.269 2.623,1.643 5.559,4.301 8.801,7.978-.85,1.642-1.7,3.362-2.626,5.083z" fill-rule="evenodd"/>
 <path d="m291.932,416.628c-3.246.94-5.869,1.565-8.186,1.565-2.396-.078-4.402-.782-6.023-1.799-1.696-1.33-4.013-3.208-4.013-5.319-.079-2.269 1.542-5.709 3.397-7.04 1.466-1.406 3.857-1.406 6.329-.626 2.396.861 5.868,3.365 8.03,5.086 1.931,1.25 2.781,2.737 3.166,3.597-.849,1.487-1.775,2.972-2.7,4.536z" fill="#ff0080" fill-rule="evenodd"/>
 <path d="m294.863,422.651c.076,1.957-.154,4.068-1.005,6.336-1.001,2.19-1.927,5.162-4.013,7.119-2.316,1.642-6.179,3.44-8.646,3.284-2.856-.469-5.173-3.6-6.333-5.477-1.081-2.345-1.081-4.77 0-6.959 .926-2.192 2.856-3.913 5.793-5.478 2.856-1.563 6.484-2.815 11.192-3.753 1.006,1.644 2.007,3.286 3.012,4.928z" fill-rule="evenodd"/>
 <path d="m293.858,423.982c-.616,3.206-1.621,5.864-2.702,7.978-1.235,2.111-2.777,3.362-4.633,4.38-2.236.86-4.633,1.564-6.56.86-2.011-1.173-4.017-4.46-4.247-6.492-.465-2.269.695-4.224 2.626-5.866 1.776-2.033 5.944-3.521 8.336-4.458 2.241-.861 3.707-1.409 4.712-1.017 .772,1.486 1.622,3.049 2.468,4.615z" fill="#ff0080" fill-rule="evenodd"/>
 <path d="m300.268,422.183c1.855,1.017 3.396,2.111 4.942,4.146 1.546,1.799 3.397,4.144 4.093,7.037 .23,2.661 0,7.04-1.546,9.229-1.696,1.957-5.479,2.896-7.795,2.815-2.472-.39-4.558-1.563-5.948-3.518-1.387-1.956-2.007-4.538-1.852-7.744-.08-3.285 1.005-7.194 2.392-11.733 1.855-.075 3.782-.153 5.714-.232z" fill-rule="evenodd"/>
 <path d="m300.963,423.746c2.626,2.189 4.172,4.225 5.482,6.414 1.081,2.19 1.542,3.989 1.392,6.258-.235,2.035-1.081,5.005-2.552,6.178-1.927,1.02-5.789,1.174-7.72.473-2.007-.706-3.242-3.053-3.707-5.242-.616-2.739 0-7.118.39-9.544 .306-2.501.691-3.831 1.466-4.614 1.696-.001 3.473-.001 5.249.077z" fill="#ff0080" fill-rule="evenodd"/>
 <path d="m300.652,413.422c-.15-2.033.39-4.146 1.315-6.336 .926-2.58 1.852-5.084 4.248-6.882 2.161-1.8 6.174-3.364 8.801-2.896 2.316.315 5.018,3.521 6.023,5.711 .771,2.034.69,4.85-.235,6.961-1.155,2.035-3.166,3.677-6.019,5.241-2.937,1.485-6.72,2.347-11.353,3.205-.924-1.641-1.85-3.283-2.78-5.004z" fill-rule="evenodd"/>
 <path d="m301.733,412.092c.62-3.363 1.625-5.865 3.012-7.821 1.235-2.033 2.937-3.441 4.788-4.224 1.931-.938 4.633-1.722 6.639-.549 1.856,1.018 3.478,4.461 3.938,6.729 .08,2.111-1.155,3.911-2.856,5.711-2.082,1.484-6.409,3.284-8.491,4.143-2.316.784-3.782.94-4.712.784-.772-1.565-1.543-3.13-2.318-4.773z" fill="#ff0080" fill-rule="evenodd"/>
 <path d="m297.16 410.55c4.562 0 8.26 3.119 8.26 6.962s-3.698 6.962-8.26 6.962-8.261-3.119-8.261-6.962 3.7-6.962 8.261-6.962" fill-rule="evenodd"/>
 <path d="m297.41 411.52c3.624 0 6.564 2.452 6.564 5.477 0 3.021-2.94 5.475-6.564 5.475s-6.56-2.453-6.56-5.475 2.937-5.477 6.56-5.477" fill="#ff0" fill-rule="evenodd"/>
 <path d="m259.426,475.058c1.776-1.017 3.703-1.721 6.1-1.8 2.316-.312 5.403-.704 8.029.626 2.393,1.331 5.789,3.832 6.64,6.571 .616,2.423-.771,6.022-2.086,8.054-1.542,1.645-4.013,3.052-6.254,3.052-2.392-.233-4.863-.938-7.41-2.972-2.626-2.033-5.328-4.928-8.109-8.683 1.004-1.564 2.01-3.206 3.09-4.848z" fill-rule="evenodd"/>
 <path d="m261.047,475.369c3.317-.938 5.714-1.25 8.336-.938 2.396.313 4.248,1.017 5.869,2.426 1.621,1.251 3.396,3.44 3.552,5.631-.23,1.956-2.237,5.474-3.938,6.647-1.696,1.018-4.323.939-6.409.078-2.547-1.017-5.868-4.223-7.564-5.71-1.776-1.642-2.627-2.815-2.857-3.831 1.005-1.408 2.006-2.815 3.011-4.303z" fill="#ff0080" fill-rule="evenodd"/>
 <path d="m250.16,470.207c-1.235-1.485-2.316-3.521-2.932-5.789-.931-2.501-1.546-5.395-1.006-8.056 .616-3.049 2.702-6.49 5.019-7.899 2.161-1.406 6.023-.625 8.261.548 2.006,1.016 3.477,3.208 4.092,5.631 .386,2.347-.075,4.771-1.391,7.902-1.466,2.894-3.627,6.256-6.794,9.776-1.696-.705-3.472-1.409-5.249-2.113z" fill-rule="evenodd"/>
 <path d="m250.16,468.486c-1.466-3.049-2.316-5.631-2.547-8.057-.385-2.423.075-4.536 1.081-6.336 .771-1.799 2.777-4.536 4.783-4.614 2.166-.469 5.483,1.019 7.26,2.66 1.311,1.485 1.776,3.676 1.391,6.258-.695,2.504-2.856,6.414-4.093,8.683-1.235,2.11-2.392,3.206-3.167,3.598-1.541-.704-3.087-1.409-4.708-2.192z" fill="#ff0080" fill-rule="evenodd"/>
 <path d="m249.62,474.667c-1.776,1.095-3.553,1.875-5.944,2.347-2.626.313-5.407.938-8.029.077-2.782-1.096-6.254-3.676-7.18-5.944-.851-2.66-.08-6.102 1.466-8.213 1.156-2.032 3.552-3.521 5.943-3.599 2.393-.233 4.554.548 7.646,2.347 2.622,1.8 5.559,4.146 8.801,7.9-.851,1.644-1.777,3.364-2.703,5.085z" fill-rule="evenodd"/>
 <path d="m247.999,474.511c-3.012,1.094-5.944,1.642-8.186,1.642-2.316-.079-4.553-.704-6.099-1.877-1.7-1.329-4.017-3.207-4.017-5.32-.076-2.269 1.545-5.71 3.396-7.038 1.391-1.408 4.018-1.408 6.409-.626 2.472.859 5.714,3.364 7.955,5.084 1.851,1.252 2.932,2.737 3.242,3.599-.848,1.484-1.774,2.971-2.7,4.536z" fill="#ff0080" fill-rule="evenodd"/>
 <path d="m250.931,480.531c-.075,1.878-.154,4.225-1.08,6.415-.771,2.268-2.082,5.005-3.938,7.04-2.237,1.642-6.329,3.44-8.726,3.284-2.622-.548-5.403-3.441-6.254-5.396-1.001-2.269-1.235-5.008-.075-7.04 1.08-2.19 2.626-3.911 5.789-5.477 2.856-1.485 6.488-2.816 11.196-3.675 1.007,1.565 2.008,3.207 3.088,4.849z" fill-rule="evenodd"/>
 <path d="m249.93,481.94c-.62,3.206-1.545,5.866-2.781,7.978s-2.777,3.363-4.633,4.38c-2.236.861-4.633,1.566-6.563.861-2.007-1.173-4.014-4.458-4.243-6.57-.311-2.269.695-4.223 2.701-5.865 1.932-2.035 5.789-3.52 8.261-4.46 2.006-.859 3.782-1.406 4.708-1.017l2.55,4.693z" fill="#ff0080" fill-rule="evenodd"/>
 <path d="m256.26,480.142c1.851.86 3.396,2.111 4.942,4.067 1.541,1.799 3.397,4.146 4.093,7.04 .23,2.658 0,7.038-1.546,9.229-1.701,1.954-5.559,2.895-7.72,2.815-2.396-.235-4.788-1.487-6.023-3.441-1.467-2.035-1.776-4.537-1.776-7.823-.075-3.521 1.005-7.038 2.396-11.731 1.851,0 3.702-.078 5.634-.156z" fill-rule="evenodd"/>
 <path d="m256.955,481.705c2.392,2.035 4.322,4.146 5.482,6.335s1.542,3.989 1.467,6.258c-.23,1.8-1.081,5.162-2.547,6.181-1.932.938-5.793,1.406-7.725.548-2.007-1.018-3.242-2.895-3.703-5.319-.54-2.738-.154-7.118.306-9.542 .235-2.504.851-3.834 1.546-4.614 1.697-.001 3.398.075 5.174.153z" fill="#ff0080" fill-rule="evenodd"/>
 <path d="m256.645,471.38c-.155-2.032.386-4.143 1.315-6.335 .926-2.501 1.852-5.241 4.243-6.962 2.086-1.797 6.334-3.363 8.881-2.894 2.316.314 5.018,3.52 6.023,5.712 .926,2.032.54,4.848-.311,6.959-1.235,2.035-2.932,3.677-5.943,5.241-2.937,1.409-6.719,2.503-11.352,3.286-.925-1.643-1.851-3.285-2.856-5.007z" fill-rule="evenodd"/>
 <path d="m257.726,470.053c.774-3.287 1.7-6.024 3.091-7.902 1.231-2.032 2.933-3.52 4.784-4.144 2.011-.94 4.478-1.645 6.563-.626 1.776,1.017 3.707,4.458 4.018,6.726 0,2.033-1.085,4.068-2.937,5.789-2.086,1.563-6.409,3.127-8.491,4.066-2.316.782-3.786.938-4.712.782-.771-1.564-1.542-3.129-2.316-4.691z" fill="#ff0080" fill-rule="evenodd"/>
 <path d="m253.4 468.44c4.604 0 8.34 3.12 8.34 6.962s-3.736 6.962-8.34 6.962-8.34-3.119-8.34-6.962 3.737-6.962 8.34-6.962" fill-rule="evenodd"/>
 <path d="m253.15 469.4c3.578 0 6.484 2.453 6.484 5.476s-2.906 5.476-6.484 5.476-6.488-2.453-6.488-5.476 2.907-5.476 6.488-5.476" fill="#ff0" fill-rule="evenodd"/>
 <path d="m242.901,540.76c1.7-1.094 3.862-1.564 6.179-1.72 2.316-.235 5.403-.862 8.029.547 2.393,1.095 5.789,3.989 6.64,6.569 .54,2.426-.771,6.023-2.161,8.057-1.546,1.643-4.018,3.051-6.254,3.051-2.472-.235-4.709-.938-7.335-2.973-2.627-2.033-5.253-4.927-8.186-8.683 1.006-1.563 2.007-3.206 3.088-4.848z" fill-rule="evenodd"/>
 <path d="m244.602,541.072c3.087-.783 5.944-1.173 8.261-.859 2.392.155 4.247.938 5.868,2.347 1.546,1.329 3.553,3.206 3.628,5.631-.075,1.876-2.392,5.632-4.013,6.727-1.701,1.017-4.323.938-6.409.078-2.396-1.016-5.869-4.224-7.489-5.709-1.701-1.564-2.782-2.973-2.933-3.911 1.001-1.409 2.006-2.816 3.087-4.304z" fill="#ff0080" fill-rule="evenodd"/>
 <path d="m233.636,535.91c-1.231-1.485-2.313-3.521-2.933-5.788-.926-2.504-1.546-5.396-1.005-8.058 .465-3.051 2.856-6.491 5.098-7.898s5.868-.626 8.185.547c1.932,1.017 3.628,3.207 4.168,5.632 .386,2.347-.075,4.772-1.391,7.899-1.466,2.894-3.628,6.26-6.794,9.776l-5.328-2.11z" fill-rule="evenodd"/>
 <path d="m233.636,534.189c-1.467-3.052-2.313-5.632-2.547-8.057s.154-4.537 1.16-6.335c.846-1.8 2.622-4.537 4.708-4.615 2.086-.47 5.639,1.016 7.335,2.658 1.235,1.33 1.775,3.834 1.311,6.335-.54,2.582-2.856,6.26-4.013,8.606-1.235,1.876-2.316,3.284-3.242,3.597-1.546-.701-3.087-1.405-4.712-2.189z" fill="#ff0080" fill-rule="evenodd"/>
 <path d="m233.175,540.446c-1.701,1.174-3.707,1.721-6.023,2.269-2.627.313-5.404.94-8.03.078-2.777-1.095-6.254-3.675-7.18-5.945-.926-2.658.079-6.1 1.546-8.211 1.156-2.035 3.552-3.52 5.943-3.599 2.162-.235 4.788.547 7.565,2.347 2.626,1.799 5.559,4.146 8.805,7.899-.85,1.721-1.7,3.442-2.626,5.162z" fill-rule="evenodd"/>
 <path d="m231.474,540.213c-3.007,1.096-5.943,1.643-8.181,1.643-2.316-.078-4.558-.705-6.103-1.878-1.697-1.331-4.014-3.284-4.014-5.24-.154-2.269 1.696-5.711 3.473-7.041 1.471-1.406 3.862-1.406 6.334-.625 2.471.547 5.713,3.52 7.95,5.007 1.855,1.252 2.937,2.737 3.242,3.599-.845,1.484-1.771,2.968-2.701,4.535z" fill="#ff0080" fill-rule="evenodd"/>
 <path d="m234.41,546.235c-.079,1.877-.155,4.224-1.08,6.413-.775,2.189-2.087,5.162-3.938,7.118-2.241,1.643-6.334,3.519-8.726,3.207-2.627-.548-5.404-3.442-6.254-5.398-1.081-2.269-1.081-5.005 0-7.038 .926-2.191 2.856-3.912 5.789-5.476 2.856-1.485 6.488-2.815 11.196-3.675 1.007,1.564 2.008,3.207 3.013,4.849z" fill-rule="evenodd"/>
 <path d="m233.405,547.644c-.616,3.206-1.621,5.865-2.702,7.979-1.235,2.11-2.777,3.362-4.633,4.378-2.236.862-4.633,1.564-6.563.862-2.082-1.174-3.938-4.46-4.323-6.571-.311-2.269.695-4.225 2.702-5.866 1.775-2.033 5.948-3.521 8.34-4.458 2.241-.86 3.707-1.407 4.708-1.017 .775,1.563 1.621,3.127 2.471,4.693z" fill="#ff0080" fill-rule="evenodd"/>
 <path d="m239.813,545.844c1.852.86 3.397,2.111 4.943,4.067 1.541,1.8 3.397,4.146 4.093,7.038 .23,2.661 0,7.04-1.546,9.23-1.701,1.956-5.483,2.894-7.8,2.817-2.472-.235-4.553-1.488-5.944-3.441-1.391-2.035-2.006-4.538-1.851-7.823-.08-3.206 1.001-7.195 2.392-11.654 1.852-.076 3.783-.156 5.713-.234z" fill-rule="evenodd"/>
 <path d="m240.51,547.408c2.471,2.034 4.167,4.146 5.403,6.336 1.16,2.189 1.546,3.988 1.466,6.256-.23,1.8-1.081,5.162-2.547,6.18-1.931.939-5.789,1.409-7.72.547-2.007-1.016-3.242-2.892-3.707-5.317-.616-2.736 0-7.118.385-9.543 .311-2.502.695-3.833 1.471-4.615 1.696-.001 3.472.077 5.249.156z" fill="#ff0080" fill-rule="evenodd"/>
 <path d="m240.199,537.084c-.155-2.033.386-4.146 1.315-6.336 .926-2.504 1.852-5.241 4.243-6.962 2.161-1.8 6.179-3.363 8.805-2.895 2.316.314 5.019,3.52 6.02,5.71 .775,2.035.695,4.851-.23,6.962-1.16,2.034-3.167,3.677-6.023,5.241-2.932,1.408-6.715,2.504-11.348,3.284-.926-1.642-1.856-3.283-2.782-5.004z" fill-rule="evenodd"/>
 <path d="m241.205,535.753c.771-3.284 1.696-6.021 3.087-7.899 1.235-2.032 2.937-3.521 4.788-4.146 2.006-.938 4.478-1.721 6.563-.547 1.776,1.095 3.703,4.304 4.013,6.65 .311,2.032-1.235,4.066-2.856,5.787-2.086,1.564-6.409,3.128-8.491,4.068-2.241.78-3.938.938-4.787.78-.776-1.563-1.546-3.127-2.317-4.693z" fill="#ff0080" fill-rule="evenodd"/>
 <path d="m236.93 534.14c4.604 0 8.34 3.116 8.34 6.959s-3.736 6.962-8.34 6.962-8.34-3.119-8.34-6.962 3.736-6.959 8.34-6.959" fill-rule="evenodd"/>
 <path d="m236.93 535.1c3.624 0 6.564 2.453 6.564 5.477s-2.94 5.474-6.564 5.474-6.563-2.452-6.563-5.474 2.94-5.477 6.563-5.477" fill="#ff0" fill-rule="evenodd"/>
</svg>
